<svg width="428" height="185" viewBox="0 0 428 185" fill="none" xmlns="http://www.w3.org/2000/svg">
<rect width="428" height="185" fill="black"/>
<path d="M162.69 64.35V120.46H189.05C201.34 120.46 207.87 114.29 207.94 104.53C207.94 98.29 204.98 93.54 199.18 90.95V90.83C203.56 88.11 205.48 84.71 205.48 79.47C205.48 71.51 200.11 64.35 188.44 64.35H162.69ZM217.21 64.35V120.46H223.81V98L223.13 97.32H236.46C243.87 97.32 248.13 99.98 250.84 105.72L257.82 120.47H265.22L256.7 102.94C254.85 98.99 252.01 96.52 249.35 95.41V95.28C255.52 93.67 260.59 88.24 260.59 80.9C260.59 69.85 252.01 64.36 241.76 64.36L217.21 64.35ZM272.09 64.35V120.46H278.7V64.35H272.09ZM311.1 64.35L286.4 120.46H293.62L299.55 106.94L299.18 106.26H329.92L329.55 106.94L335.48 120.46H342.7L318.07 64.35H311.1ZM349.88 64.35V120.46H356.48V98L355.8 97.32H369.14C376.55 97.32 380.81 99.98 383.52 105.72L390.49 120.47H397.9L389.38 102.94C387.53 98.99 384.69 96.52 382.03 95.41V95.28C388.2 93.67 393.27 88.24 393.27 80.9C393.27 69.85 384.69 64.36 374.44 64.36L349.88 64.35ZM168.68 70.59H187.75C194.91 70.59 198.68 73.49 198.68 79.41C198.68 84.41 195.77 88.43 187.75 88.43H168.68L169.36 87.75V71.27L168.68 70.59ZM223.13 70.59H241.83C248.74 70.59 253.87 73.43 253.93 80.83C253.93 86.76 249.18 91.02 241.09 91.02H223.12L223.8 90.34V71.27C223.81 71.27 223.13 70.59 223.13 70.59ZM355.86 70.59H374.56C381.41 70.59 386.6 73.43 386.6 80.83C386.6 86.76 381.91 91.02 373.82 91.02H355.85L356.53 90.34V71.27C356.54 71.27 355.86 70.59 355.86 70.59ZM314.56 71.2H314.69L316.35 76.82L326.23 99.35L326.91 100.03H302.28L302.96 99.35L312.84 76.82L314.56 71.2ZM168.62 94.67H189C197.27 94.67 201.1 98.49 201.1 104.48C201.1 110.72 197.64 114.17 189.06 114.17H168.62L169.3 113.49V95.34L168.62 94.67Z" fill="white"/>
<path d="M59.4533 40.001C55.2001 40.001 51.6938 43.5074 51.6938 47.7606V57.6244H70.8086V47.7606C70.8086 43.5074 67.3448 40.001 63.0916 40.001H59.4533ZM101.981 40.001C97.7278 40.001 94.2214 43.5074 94.2214 47.7606V100.152H113.336V47.7606C113.336 43.5074 109.872 40.001 105.619 40.001H101.981ZM51.6938 82.8776V135.269C51.6938 139.522 55.1576 143.029 59.4533 143.029H63.0916C67.3448 143.029 70.8512 139.522 70.8512 135.269V82.8776H51.6938ZM94.2193 125.405V135.269C94.2193 139.522 97.7278 143.029 101.979 143.029H105.617C109.87 143.029 113.377 139.522 113.377 135.269V125.405C113.379 125.405 94.2193 125.405 94.2193 125.405Z" fill="white"/>
<path d="M38.7597 60.6925C34.5065 60.6925 31.0002 64.1563 31.0002 68.4521V72.0904C31.0002 76.3436 34.464 79.85 38.7597 79.85H91.1512V60.6925H38.7597ZM116.404 60.6925V79.8521H126.268C130.521 79.8521 134.028 76.3882 134.028 72.0925V68.4542C134.028 64.1585 130.521 60.6946 126.268 60.6946H116.404V60.6925ZM38.7597 103.22C34.5065 103.22 31.0002 106.684 31.0002 110.98V114.618C31.0002 118.871 34.464 122.378 38.7597 122.378H48.6236V103.22H38.7597ZM73.8767 103.22V122.38H126.268C130.521 122.38 134.028 118.871 134.028 114.62V110.982C134.028 106.686 130.521 103.222 126.268 103.222L73.8767 103.22Z" fill="white"/>
</svg>
