<svg width="317" height="342" viewBox="0 0 317 342" fill="none" xmlns="http://www.w3.org/2000/svg">
<rect width="317" height="342" fill="black"/>
<path d="M41 242.35V298.46H67.36C79.65 298.46 86.18 292.29 86.25 282.53C86.25 276.29 83.29 271.54 77.49 268.95V268.83C81.87 266.11 83.79 262.71 83.79 257.47C83.79 249.51 78.42 242.35 66.75 242.35H41ZM95.52 242.35V298.46H102.12V276L101.44 275.32H114.77C122.18 275.32 126.44 277.98 129.15 283.72L136.13 298.47H143.53L135.01 280.94C133.16 276.99 130.32 274.52 127.66 273.41V273.28C133.83 271.67 138.9 266.24 138.9 258.9C138.9 247.85 130.32 242.36 120.07 242.36L95.52 242.35ZM150.4 242.35V298.46H157.01V242.35H150.4ZM189.41 242.35L164.71 298.46H171.93L177.86 284.94L177.49 284.26H208.23L207.86 284.94L213.79 298.46H221.01L196.38 242.35H189.41ZM228.19 242.35V298.46H234.79V276L234.11 275.32H247.45C254.86 275.32 259.12 277.98 261.83 283.72L268.8 298.47H276.21L267.69 280.94C265.84 276.99 263 274.52 260.34 273.41V273.28C266.51 271.67 271.58 266.24 271.58 258.9C271.58 247.85 263 242.36 252.75 242.36L228.19 242.35ZM46.99 248.59H66.06C73.22 248.59 76.99 251.49 76.99 257.41C76.99 262.41 74.08 266.43 66.06 266.43H46.99L47.67 265.75V249.27L46.99 248.59ZM101.44 248.59H120.14C127.05 248.59 132.18 251.43 132.24 258.83C132.24 264.76 127.49 269.02 119.4 269.02H101.43L102.11 268.34V249.27C102.12 249.27 101.44 248.59 101.44 248.59ZM234.17 248.59H252.87C259.72 248.59 264.91 251.43 264.91 258.83C264.91 264.76 260.22 269.02 252.13 269.02H234.16L234.84 268.34V249.27C234.85 249.27 234.17 248.59 234.17 248.59ZM192.87 249.2H193L194.66 254.82L204.54 277.35L205.22 278.03H180.59L181.27 277.35L191.15 254.82L192.87 249.2ZM46.93 272.67H67.31C75.58 272.67 79.41 276.49 79.41 282.48C79.41 288.72 75.95 292.17 67.37 292.17H46.93L47.61 291.49V273.34L46.93 272.67Z" fill="white"/>
<path d="M122.919 44C116.354 44 110.941 49.4123 110.941 55.9772V71.2025H140.446V55.9772C140.446 49.4123 135.1 44 128.535 44H122.919ZM188.562 44C181.997 44 176.585 49.4123 176.585 55.9772V136.846H206.089V55.9772C206.089 49.4123 200.743 44 194.178 44H188.562ZM110.941 110.182V191.05C110.941 197.615 116.288 203.028 122.919 203.028H128.535C135.1 203.028 140.512 197.615 140.512 191.05V110.182H110.941ZM176.581 175.825V191.05C176.581 197.615 181.997 203.028 188.559 203.028H194.175C200.74 203.028 206.152 197.615 206.152 191.05V175.825C206.155 175.825 176.581 175.825 176.581 175.825Z" fill="white"/>
<path d="M90.9772 75.9384C84.4123 75.9384 79 81.2849 79 87.9156V93.5315C79 100.096 84.3466 105.509 90.9772 105.509H171.846V75.9384H90.9772ZM210.825 75.9384V105.512H226.05C232.615 105.512 238.028 100.165 238.028 93.5347V87.9189C238.028 81.2882 232.615 75.9416 226.05 75.9416H210.825V75.9384ZM90.9772 141.582C84.4123 141.582 79 146.928 79 153.559V159.175C79 165.74 84.3466 171.152 90.9772 171.152H106.202V141.582H90.9772ZM145.182 141.582V171.155H226.05C232.615 171.155 238.028 165.74 238.028 159.178V153.562C238.028 146.931 232.615 141.585 226.05 141.585L145.182 141.582Z" fill="white"/>
</svg>
