<?xml version="1.0" encoding="UTF-8" standalone="no"?>
<svg
   xmlns:dc="http://purl.org/dc/elements/1.1/"
   xmlns:cc="http://creativecommons.org/ns#"
   xmlns:rdf="http://www.w3.org/1999/02/22-rdf-syntax-ns#"
   xmlns:svg="http://www.w3.org/2000/svg"
   xmlns="http://www.w3.org/2000/svg"
   xmlns:sodipodi="http://sodipodi.sourceforge.net/DTD/sodipodi-0.dtd"
   xmlns:inkscape="http://www.inkscape.org/namespaces/inkscape"
   width="180"
   height="194"
   viewBox="0 0 180 194"
   fill="none"
   version="1.1"
   id="svg10"
   sodipodi:docname="briar_vertical_color_bg.svg"
   inkscape:export-filename="/home/anxhelo/briar-styleguide/static/images/briar_vertical_color_bg.png"
   inkscape:export-xdpi="247.42268"
   inkscape:export-ydpi="247.42268"
   inkscape:version="0.92.4 (unknown)">
  <metadata
     id="metadata16">
    <rdf:RDF>
      <cc:Work
         rdf:about="">
        <dc:format>image/svg+xml</dc:format>
        <dc:type
           rdf:resource="http://purl.org/dc/dcmitype/StillImage" />
        <dc:title></dc:title>
      </cc:Work>
    </rdf:RDF>
  </metadata>
  <defs
     id="defs14" />
  <sodipodi:namedview
     pagecolor="#ffffff"
     bordercolor="#666666"
     borderopacity="1"
     objecttolerance="10"
     gridtolerance="10"
     guidetolerance="10"
     inkscape:pageopacity="0"
     inkscape:pageshadow="2"
     inkscape:window-width="1366"
     inkscape:window-height="717"
     id="namedview12"
     showgrid="false"
     inkscape:snap-page="true"
     inkscape:zoom="0.86019175"
     inkscape:cx="-20.660424"
     inkscape:cy="-4.550951"
     inkscape:window-x="0"
     inkscape:window-y="0"
     inkscape:window-maximized="1"
     inkscape:current-layer="g826" />
  <g
     id="g826"
     transform="matrix(1.3137555,0,0,1.3137555,-28.315507,-32.220334)">
    <rect
       style="opacity:1;fill:#2e3d4f;fill-opacity:1;stroke:none;stroke-width:0.76117665;stroke-linecap:square;stroke-linejoin:miter;stroke-miterlimit:4;stroke-dasharray:none;stroke-opacity:1;paint-order:markers stroke fill"
       id="rect884"
       width="137.0118"
       height="147.66827"
       x="21.553102"
       y="24.525366" />
    <path
       id="path4"
       d="m 24,139.99 v 31.723 h 14.8065 c 6.9033,0 10.5712,-3.488 10.6105,-9.006 0,-3.528 -1.6626,-6.214 -4.9205,-7.678 v -0.068 c 2.4603,-1.538 3.5387,-3.46 3.5387,-6.423 0,-4.5 -3.0163,-8.548 -9.5714,-8.548 z m 30.624,0 v 31.723 h 3.7072 v -12.698 l -0.3819,-0.385 h 7.4875 c 4.1622,0 6.555,1.504 8.0772,4.75 l 3.9207,8.339 h 4.1566 l -4.7857,-9.911 c -1.0391,-2.233 -2.6344,-3.63 -4.1285,-4.257 v -0.074 c 3.4657,-0.91 6.3135,-3.98 6.3135,-8.13 0,-6.248 -4.8194,-9.352 -10.5768,-9.352 z m 30.8262,0 v 31.723 h 3.7129 V 139.99 Z m 21.9118,0 -13.8738,31.723 h 4.0555 l 3.3313,-7.644 -0.208,-0.384 h 17.266 l -0.207,0.384 3.331,7.644 h 4.055 L 111.277,139.99 Z m 21.783,0 v 31.723 h 3.707 v -12.698 l -0.382,-0.385 h 7.493 c 4.163,0 6.555,1.504 8.078,4.75 l 3.915,8.339 h 4.162 l -4.786,-9.911 c -1.039,-2.233 -2.634,-3.63 -4.128,-4.257 v -0.074 c 3.465,-0.91 6.313,-3.98 6.313,-8.13 0,-6.248 -4.819,-9.352 -10.577,-9.352 z m -101.7804,3.528 h 10.7117 c 4.0217,0 6.1394,1.639 6.1394,4.986 0,2.827 -1.6346,5.1 -6.1394,5.1 H 27.3646 l 0.382,-0.384 v -9.318 z m 30.5847,0 h 10.5038 c 3.8814,0 6.7629,1.605 6.7966,5.789 0,3.353 -2.6681,5.762 -7.2123,5.762 H 57.9437 l 0.3819,-0.385 v -10.782 c 0.0056,0 -0.3763,-0.384 -0.3763,-0.384 z m 74.5547,0 h 10.504 c 3.847,0 6.763,1.605 6.763,5.789 0,3.353 -2.635,5.762 -7.179,5.762 h -10.094 l 0.382,-0.385 v -10.782 c 0.006,0 -0.376,-0.384 -0.376,-0.384 z m -23.198,0.345 h 0.073 l 0.932,3.177 5.55,12.738 0.382,0.385 h -13.835 l 0.382,-0.385 5.55,-12.738 z m -81.9751,13.269 h 11.4475 c 4.6453,0 6.7966,2.16 6.7966,5.547 0,3.528 -1.9435,5.478 -6.7629,5.478 H 27.3309 l 0.382,-0.384 v -10.262 z"
       inkscape:connector-curvature="0"
       style="fill:#ffffff" />
    <path
       id="path6"
       d="m 70.014,25 c -3.6875,0 -6.7276,3.06 -6.7276,6.7717 v 8.6082 H 79.8592 V 31.7717 C 79.8592,28.06 76.856,25 73.1685,25 Z m 36.872,0 c -3.688,0 -6.728,3.06 -6.728,6.7717 v 45.7219 h 16.573 V 31.7717 C 116.731,28.06 113.728,25 110.04,25 Z M 63.2864,62.4182 V 108.14 c 0,3.712 3.0032,6.772 6.7276,6.772 h 3.1545 c 3.6875,0 6.7276,-3.06 6.7276,-6.772 V 62.4182 Z m 36.8706,37.1137 v 8.6081 c 0,3.712 3.041,6.772 6.727,6.772 h 3.155 c 3.687,0 6.727,-3.06 6.727,-6.772 v -8.6081 c 0.002,0 -16.609,0 -16.609,0 z"
       inkscape:connector-curvature="0"
       style="fill:#74b816" />
    <path
       id="path8"
       d="m 52.0724,43.0576 c -3.6876,0 -6.7277,3.0229 -6.7277,6.7718 v 3.1751 c 0,3.7117 3.0032,6.7717 6.7277,6.7717 h 45.424 V 43.0576 Z m 67.3186,0 v 16.7205 h 8.552 c 3.688,0 6.728,-3.0229 6.728,-6.7718 v -3.1751 c 0,-3.7489 -3.04,-6.7717 -6.728,-6.7717 h -8.552 z M 52.0724,80.1713 c -3.6876,0 -6.7277,3.0229 -6.7277,6.7718 v 3.1751 c 0,3.7117 3.0032,6.7717 6.7277,6.7717 h 8.552 V 80.1713 Z m 30.4468,0 v 16.7205 h 45.4238 c 3.688,0 6.728,-3.0619 6.728,-6.7718 v -3.1751 c 0,-3.7489 -3.04,-6.7717 -6.728,-6.7717 z"
       inkscape:connector-curvature="0"
       style="fill:#82c91e" />
  </g>
</svg>
