<svg width="236" height="57" viewBox="0 0 236 57" fill="none" xmlns="http://www.w3.org/2000/svg">
<path d="M0 0V56.11H26.36C38.65 56.11 45.18 49.94 45.25 40.18C45.25 33.94 42.29 29.19 36.49 26.6V26.48C40.87 23.76 42.79 20.36 42.79 15.12C42.79 7.16 37.42 0 25.75 0H0ZM54.52 0V56.11H61.12V33.65L60.44 32.97H73.77C81.18 32.97 85.44 35.63 88.15 41.37L95.13 56.12H102.53L94.01 38.59C92.16 34.64 89.32 32.17 86.66 31.06V30.93C92.83 29.32 97.9 23.89 97.9 16.55C97.9 5.5 89.32 0.0100002 79.07 0.0100002L54.52 0ZM109.4 0V56.11H116.01V0H109.4ZM148.41 0L123.71 56.11H130.93L136.86 42.59L136.49 41.91H167.23L166.86 42.59L172.79 56.11H180.01L155.38 0H148.41ZM187.19 0V56.11H193.79V33.65L193.11 32.97H206.45C213.86 32.97 218.12 35.63 220.83 41.37L227.8 56.12H235.21L226.69 38.59C224.84 34.64 222 32.17 219.34 31.06V30.93C225.51 29.32 230.58 23.89 230.58 16.55C230.58 5.5 222 0.0100002 211.75 0.0100002L187.19 0ZM5.98999 6.24H25.06C32.22 6.24 35.99 9.14 35.99 15.06C35.99 20.06 33.08 24.08 25.06 24.08H5.98999L6.67 23.4V6.92L5.98999 6.24ZM60.44 6.24H79.14C86.05 6.24 91.18 9.08 91.24 16.48C91.24 22.41 86.49 26.67 78.4 26.67H60.43L61.11 25.99V6.92C61.12 6.92 60.44 6.24 60.44 6.24ZM193.17 6.24H211.87C218.72 6.24 223.91 9.08 223.91 16.48C223.91 22.41 219.22 26.67 211.13 26.67H193.16L193.84 25.99V6.92C193.85 6.92 193.17 6.24 193.17 6.24ZM151.87 6.85H152L153.66 12.47L163.54 35L164.22 35.68H139.59L140.27 35L150.15 12.47L151.87 6.85ZM5.92999 30.32H26.31C34.58 30.32 38.41 34.14 38.41 40.13C38.41 46.37 34.95 49.82 26.37 49.82H5.92999L6.61 49.14V30.99L5.92999 30.32Z" fill="black"/>
</svg>
