<svg width="368" height="191" viewBox="0 0 368 191" fill="none" xmlns="http://www.w3.org/2000/svg">
<path d="M132.191 72.6729V128.783H158.551C170.841 128.783 177.371 122.613 177.441 112.853C177.441 106.613 174.481 101.863 168.681 99.2729V99.1529C173.061 96.4329 174.981 93.0329 174.981 87.7929C174.981 79.8329 169.611 72.6729 157.941 72.6729H132.191ZM186.711 72.6729V128.783H193.311V106.323L192.631 105.643H205.961C213.371 105.643 217.631 108.303 220.341 114.043L227.321 128.793H234.721L226.201 111.263C224.351 107.313 221.511 104.843 218.851 103.733V103.603C225.021 101.993 230.091 96.5629 230.091 89.2229C230.091 78.1729 221.511 72.6829 211.261 72.6829L186.711 72.6729ZM241.591 72.6729V128.783H248.201V72.6729H241.591ZM280.601 72.6729L255.901 128.783H263.121L269.051 115.263L268.681 114.583H299.421L299.051 115.263L304.981 128.783H312.201L287.571 72.6729H280.601ZM319.381 72.6729V128.783H325.981V106.323L325.301 105.643H338.641C346.051 105.643 350.311 108.303 353.021 114.043L359.991 128.793H367.401L358.881 111.263C357.031 107.313 354.191 104.843 351.531 103.733V103.603C357.701 101.993 362.771 96.5629 362.771 89.2229C362.771 78.1729 354.191 72.6829 343.941 72.6829L319.381 72.6729ZM138.181 78.9129H157.251C164.411 78.9129 168.181 81.8129 168.181 87.7329C168.181 92.7329 165.271 96.7529 157.251 96.7529H138.181L138.861 96.0729V79.5929L138.181 78.9129ZM192.631 78.9129H211.331C218.241 78.9129 223.371 81.7529 223.431 89.1529C223.431 95.0829 218.681 99.3429 210.591 99.3429H192.621L193.301 98.6629V79.5929C193.311 79.5929 192.631 78.9129 192.631 78.9129ZM325.361 78.9129H344.061C350.911 78.9129 356.101 81.7529 356.101 89.1529C356.101 95.0829 351.411 99.3429 343.321 99.3429H325.351L326.031 98.6629V79.5929C326.041 79.5929 325.361 78.9129 325.361 78.9129ZM284.061 79.5229H284.191L285.851 85.1429L295.731 107.673L296.411 108.353H271.781L272.461 107.673L282.341 85.1429L284.061 79.5229ZM138.121 102.993H158.501C166.771 102.993 170.601 106.813 170.601 112.803C170.601 119.043 167.141 122.493 158.561 122.493H138.121L138.801 121.813V103.663L138.121 102.993Z" fill="#2E2E2E"/>
<path d="M28.9542 48.3242C24.701 48.3242 21.1946 51.8306 21.1946 56.0838V65.9476H40.3095V56.0838C40.3095 51.8306 36.8456 48.3242 32.5925 48.3242H28.9542ZM71.4818 48.3242C67.2286 48.3242 63.7222 51.8306 63.7222 56.0838V108.475H82.8371V56.0838C82.8371 51.8306 79.3733 48.3242 75.1201 48.3242H71.4818ZM21.1946 91.2008V143.592C21.1946 147.845 24.6584 151.352 28.9542 151.352H32.5925C36.8456 151.352 40.352 147.845 40.352 143.592V91.2008H21.1946ZM63.7201 133.728V143.592C63.7201 147.845 67.2286 151.352 71.4797 151.352H75.118C79.3712 151.352 82.8776 147.845 82.8776 143.592V133.728C82.8797 133.728 63.7201 133.728 63.7201 133.728Z" fill="#74B816"/>
<path d="M8.26055 69.0156C4.00736 69.0156 0.500977 72.4795 0.500977 76.7752V80.4135C0.500977 84.6667 3.9648 88.1731 8.26055 88.1731H60.652V69.0156H8.26055ZM85.9052 69.0156V88.1752H95.7691C100.022 88.1752 103.529 84.7114 103.529 80.4156V76.7773C103.529 72.4816 100.022 69.0178 95.7691 69.0178H85.9052V69.0156ZM8.26055 111.543C4.00736 111.543 0.500977 115.007 0.500977 119.303V122.941C0.500977 127.194 3.9648 130.701 8.26055 130.701H18.1244V111.543H8.26055ZM43.3776 111.543V130.703H95.7691C100.022 130.703 103.529 127.194 103.529 122.943V119.305C103.529 115.009 100.022 111.545 95.7691 111.545L43.3776 111.543Z" fill="#82C91E"/>
<path d="M0.500977 21.3682L0.500977 17.3682L103.529 17.3682V21.3682" stroke="black"/>
<path d="M31.1026 3.7318L29.472 3.7318L29.472 1.90225L28.2987 1.90225L28.2987 3.7318L27.1452 3.7318L27.1452 4.72612L28.2987 4.72612L28.2987 9.49885C28.2987 10.8312 29.3725 11.4676 30.3668 11.4676C30.8043 11.4676 31.0827 11.3881 31.2418 11.3284L31.0032 10.2744C30.9038 10.2943 30.7447 10.3341 30.4862 10.3341C29.9691 10.3341 29.472 10.175 29.472 9.18066L29.472 4.72612L31.1026 4.72612L31.1026 3.7318ZM34.2049 6.77441C34.2049 5.44203 35.055 4.68635 36.2134 4.68635C37.3171 4.68635 37.9833 5.38237 37.9833 6.59544L37.9833 11.3682H39.1566L39.1566 6.51589C39.1566 4.55211 38.1126 3.63237 36.5515 3.63237C35.3484 3.63237 34.6623 4.1345 34.3043 4.92498H34.2049L34.2049 1.18635L33.0316 1.18635L33.0316 11.3682H34.2049L34.2049 6.77441ZM44.5048 11.5273C46.0559 11.5273 47.1895 10.7517 47.5474 9.59828L46.4139 9.2801C46.1156 10.0756 45.4245 10.4733 44.5048 10.4733C43.1277 10.4733 42.1781 9.58336 42.1234 7.94771L47.6667 7.94771V7.45055C47.6667 4.6068 45.9764 3.63237 44.3855 3.63237C42.3173 3.63237 40.9451 5.26305 40.9451 7.60964C40.9451 9.95623 42.2974 11.5273 44.5048 11.5273ZM42.1234 6.9335C42.203 5.74529 43.0432 4.68635 44.3855 4.68635C45.6582 4.68635 46.4736 5.64089 46.4736 6.9335L42.1234 6.9335ZM53.389 11.3682L54.5623 11.3682L54.5623 3.7318L53.389 3.7318L53.389 11.3682ZM53.9856 2.45907C54.443 2.45907 54.8209 2.10112 54.8209 1.66362C54.8209 1.22612 54.443 0.868164 53.9856 0.868164C53.5282 0.868164 53.1504 1.22612 53.1504 1.66362C53.1504 2.10112 53.5282 2.45907 53.9856 2.45907ZM59.8136 11.5273C61.5039 11.5273 62.6175 10.4932 62.8164 9.14089H61.6431C61.4244 9.97612 60.7283 10.4733 59.8136 10.4733C58.4215 10.4733 57.5266 9.31987 57.5266 7.54998C57.5266 5.81987 58.4414 4.68635 59.8136 4.68635C60.8477 4.68635 61.4641 5.32271 61.6431 6.01873L62.8164 6.01873C62.6175 4.58691 61.4045 3.63237 59.7937 3.63237C57.7255 3.63237 56.3533 5.26305 56.3533 7.58975C56.3533 9.87669 57.6658 11.5273 59.8136 11.5273ZM67.6339 11.5273C69.7021 11.5273 71.0941 9.95623 71.0941 7.58975C71.0941 5.20339 69.7021 3.63237 67.6339 3.63237C65.5657 3.63237 64.1737 5.20339 64.1737 7.58975C64.1737 9.95623 65.5657 11.5273 67.6339 11.5273ZM67.6339 10.4733C66.0629 10.4733 65.347 9.121 65.347 7.58975C65.347 6.0585 66.0629 4.68635 67.6339 4.68635C69.2049 4.68635 69.9208 6.0585 69.9208 7.58975C69.9208 9.121 69.2049 10.4733 67.6339 10.4733ZM74.0584 6.77441C74.0584 5.44203 74.8837 4.68635 76.0073 4.68635C77.0961 4.68635 77.7573 5.39728 77.7573 6.59544L77.7573 11.3682H78.9306L78.9306 6.51589C78.9306 4.56703 77.8915 3.63237 76.3454 3.63237C75.1919 3.63237 74.476 4.14941 74.1181 4.92498H74.0187V3.7318L72.8851 3.7318L72.8851 11.3682L74.0584 11.3682L74.0584 6.77441Z" fill="#1F1F1F"/>
<path d="M132.191 21.3682V17.3682L367.401 17.3682V21.3682" stroke="black"/>
<path d="M211.434 3.7318H209.804V1.90225L208.63 1.90225V3.7318H207.477V4.72612H208.63L208.63 9.49885C208.63 10.8312 209.704 11.4676 210.698 11.4676C211.136 11.4676 211.414 11.3881 211.573 11.3284L211.335 10.2744C211.235 10.2943 211.076 10.3341 210.818 10.3341C210.301 10.3341 209.804 10.175 209.804 9.18066L209.804 4.72612H211.434V3.7318ZM214.536 6.77441C214.536 5.44203 215.387 4.68635 216.545 4.68635C217.649 4.68635 218.315 5.38237 218.315 6.59544L218.315 11.3682H219.488L219.488 6.51589C219.488 4.55211 218.444 3.63237 216.883 3.63237C215.68 3.63237 214.994 4.1345 214.636 4.92498H214.536L214.536 1.18635L213.363 1.18635L213.363 11.3682H214.536L214.536 6.77441ZM224.836 11.5273C226.388 11.5273 227.521 10.7517 227.879 9.59828L226.745 9.2801C226.447 10.0756 225.756 10.4733 224.836 10.4733C223.459 10.4733 222.51 9.58336 222.455 7.94771L227.998 7.94771V7.45055C227.998 4.6068 226.308 3.63237 224.717 3.63237C222.649 3.63237 221.277 5.26305 221.277 7.60964C221.277 9.95623 222.629 11.5273 224.836 11.5273ZM222.455 6.9335C222.535 5.74529 223.375 4.68635 224.717 4.68635C225.99 4.68635 226.805 5.64089 226.805 6.9335L222.455 6.9335ZM235.451 11.3682L236.604 11.3682L238.275 5.50169H238.394L240.064 11.3682H241.218L243.544 3.7318H242.312L240.661 9.5585H240.581L238.971 3.7318L237.718 3.7318L236.087 9.57839H236.008L234.357 3.7318H233.124L235.451 11.3682ZM247.938 11.5273C250.006 11.5273 251.398 9.95623 251.398 7.58975C251.398 5.20339 250.006 3.63237 247.938 3.63237C245.87 3.63237 244.478 5.20339 244.478 7.58975C244.478 9.95623 245.87 11.5273 247.938 11.5273ZM247.938 10.4733C246.367 10.4733 245.651 9.121 245.651 7.58975C245.651 6.0585 246.367 4.68635 247.938 4.68635C249.509 4.68635 250.225 6.0585 250.225 7.58975C250.225 9.121 249.509 10.4733 247.938 10.4733ZM253.189 11.3682H254.363L254.363 6.53578C254.363 5.50169 255.178 4.746 256.292 4.746C256.605 4.746 256.928 4.80566 257.008 4.82555V3.63237C256.873 3.62243 256.565 3.61248 256.391 3.61248C255.476 3.61248 254.681 4.12953 254.402 4.88521H254.323V3.7318L253.189 3.7318L253.189 11.3682ZM261.049 11.5273C262.521 11.5273 263.018 10.6125 263.277 10.1949H263.416V11.3682H264.549L264.549 1.18635L263.376 1.18635L263.376 4.94487H263.277C263.018 4.54714 262.561 3.63237 261.069 3.63237C259.14 3.63237 257.808 5.16362 257.808 7.56987C257.808 9.996 259.14 11.5273 261.049 11.5273ZM261.209 10.4733C259.737 10.4733 258.981 9.18066 258.981 7.54998C258.981 5.93919 259.717 4.68635 261.209 4.68635C262.64 4.68635 263.396 5.83975 263.396 7.54998C263.396 9.2801 262.62 10.4733 261.209 10.4733ZM266.861 11.3682H268.035V6.59544C268.035 5.47683 268.85 4.68635 269.765 4.68635C270.655 4.68635 271.276 5.26802 271.276 6.13805V11.3682H272.469V6.39657C272.469 5.4122 273.086 4.68635 274.16 4.68635C274.995 4.68635 275.711 5.12882 275.711 6.25737V11.3682H276.884V6.25737C276.884 4.46262 275.919 3.63237 274.557 3.63237C273.464 3.63237 272.663 4.1345 272.27 4.92498H272.191C271.813 4.10964 271.147 3.63237 270.142 3.63237C269.148 3.63237 268.412 4.10964 268.094 4.92498H267.995V3.7318H266.861L266.861 11.3682ZM281.276 11.5471C282.609 11.5471 283.305 10.8312 283.543 10.3341H283.603V11.3682H284.776V6.33691C284.776 3.91078 282.927 3.63237 281.952 3.63237C280.799 3.63237 279.487 4.0301 278.89 5.42214L280.004 5.81987C280.262 5.26305 280.874 4.66646 281.992 4.66646C283.071 4.66646 283.603 5.23819 283.603 6.2176V6.25737C283.603 6.82413 283.026 6.77441 281.634 6.95339C280.217 7.13734 278.671 7.45055 278.671 9.20055C278.671 10.692 279.825 11.5471 281.276 11.5471ZM281.455 10.4932C280.521 10.4932 279.845 10.0756 279.845 9.26021C279.845 8.36532 280.66 8.08691 281.575 7.9676C282.072 7.90794 283.404 7.76873 283.603 7.5301V8.60396C283.603 9.5585 282.847 10.4932 281.455 10.4932ZM286.918 11.3682L288.091 11.3682V6.53578C288.091 5.50169 288.907 4.746 290.02 4.746C290.333 4.746 290.657 4.80566 290.736 4.82555V3.63237C290.602 3.62243 290.294 3.61248 290.12 3.61248C289.205 3.61248 288.409 4.12953 288.131 4.88521H288.051V3.7318H286.918L286.918 11.3682ZM292.127 11.3682H293.3V8.5095L294.12 7.74885L296.979 11.3682H298.471L295.005 6.99316L298.232 3.7318H296.78L293.439 7.13237H293.3L293.3 1.18635L292.127 1.18635L292.127 11.3682Z" fill="#1F1F1F"/>
<path d="M367.401 166.809L367.401 170.809L0.500966 170.809L0.500966 166.809" stroke="black"/>
<path d="M156.492 180.172H154.861V178.343H153.688V180.172H152.534L152.534 181.167H153.688L153.688 185.939C153.688 187.272 154.762 187.908 155.756 187.908C156.193 187.908 156.472 187.828 156.631 187.769L156.392 186.715C156.293 186.735 156.134 186.775 155.875 186.775C155.358 186.775 154.861 186.615 154.861 185.621L154.861 181.167H156.492L156.492 180.172ZM159.594 183.215C159.594 181.882 160.444 181.127 161.602 181.127C162.706 181.127 163.372 181.823 163.372 183.036L163.372 187.809H164.546L164.546 182.956C164.546 180.993 163.502 180.073 161.941 180.073C160.737 180.073 160.051 180.575 159.693 181.365H159.594L159.594 177.627H158.421L158.421 187.809H159.594L159.594 183.215ZM169.894 187.968C171.445 187.968 172.579 187.192 172.936 186.039L171.803 185.721C171.505 186.516 170.814 186.914 169.894 186.914C168.517 186.914 167.567 186.024 167.512 184.388H173.056V183.891C173.056 181.047 171.365 180.073 169.775 180.073C167.706 180.073 166.334 181.703 166.334 184.05C166.334 186.397 167.686 187.968 169.894 187.968ZM167.512 183.374C167.592 182.186 168.432 181.127 169.775 181.127C171.047 181.127 171.863 182.081 171.863 183.374H167.512ZM179.951 177.627H178.778L178.778 187.809H179.951L179.951 177.627ZM185.203 187.968C187.271 187.968 188.663 186.397 188.663 184.03C188.663 181.644 187.271 180.073 185.203 180.073C183.134 180.073 181.742 181.644 181.742 184.03C181.742 186.397 183.134 187.968 185.203 187.968ZM185.203 186.914C183.632 186.914 182.916 185.561 182.916 184.03C182.916 182.499 183.632 181.127 185.203 181.127C186.774 181.127 187.49 182.499 187.49 184.03C187.49 185.561 186.774 186.914 185.203 186.914ZM193.536 190.831C195.366 190.831 196.837 189.996 196.837 188.027L196.837 180.172H195.704L195.704 181.385H195.585C195.326 180.988 194.849 180.073 193.357 180.073C191.428 180.073 190.096 181.604 190.096 183.951C190.096 186.337 191.488 187.689 193.337 187.689C194.829 187.689 195.306 186.814 195.565 186.397H195.664V187.948C195.664 189.221 194.769 189.797 193.536 189.797C192.149 189.797 191.662 189.066 191.349 188.644L190.414 189.3C190.891 190.1 191.831 190.831 193.536 190.831ZM193.496 186.635C192.025 186.635 191.269 185.522 191.269 183.931C191.269 182.38 192.005 181.127 193.496 181.127C194.928 181.127 195.684 182.28 195.684 183.931C195.684 185.621 194.908 186.635 193.496 186.635ZM202.087 187.968C204.156 187.968 205.548 186.397 205.548 184.03C205.548 181.644 204.156 180.073 202.087 180.073C200.019 180.073 198.627 181.644 198.627 184.03C198.627 186.397 200.019 187.968 202.087 187.968ZM202.087 186.914C200.516 186.914 199.8 185.561 199.8 184.03C199.8 182.499 200.516 181.127 202.087 181.127C203.658 181.127 204.374 182.499 204.374 184.03C204.374 185.561 203.658 186.914 202.087 186.914Z" fill="#1F1F1F"/>
</svg>
