<svg width="471" height="260" viewBox="0 0 471 260" fill="none" xmlns="http://www.w3.org/2000/svg">
<path d="M116.394 258.716L112.394 258.716L112.394 202.596L116.394 202.596" stroke="black"/>
<path d="M42.8956 228.013H41.2649L41.2649 226.184H40.0916L40.0916 228.013H38.9382L38.9382 229.007H40.0916L40.0916 233.78C40.0916 235.112 41.1655 235.749 42.1598 235.749C42.5973 235.749 42.8757 235.669 43.0348 235.61L42.7962 234.556C42.6967 234.576 42.5377 234.615 42.2791 234.615C41.7621 234.615 41.2649 234.456 41.2649 233.462L41.2649 229.007H42.8956L42.8956 228.013ZM45.9979 231.056C45.9979 229.723 46.848 228.968 48.0064 228.968C49.1101 228.968 49.7763 229.664 49.7763 230.877L49.7763 235.649H50.9496L50.9496 230.797C50.9496 228.833 49.9056 227.914 48.3445 227.914C47.1413 227.914 46.4553 228.416 46.0973 229.206H45.9979L45.9979 225.468H44.8246L44.8246 235.649H45.9979L45.9979 231.056ZM56.2978 235.809C57.8489 235.809 58.9824 235.033 59.3404 233.88L58.2069 233.561C57.9086 234.357 57.2175 234.755 56.2978 234.755C54.9206 234.755 53.9711 233.865 53.9164 232.229L59.4597 232.229L59.4597 231.732C59.4597 228.888 57.7694 227.914 56.1785 227.914C54.1103 227.914 52.7381 229.544 52.7381 231.891C52.7381 234.237 54.0904 235.809 56.2978 235.809ZM53.9164 231.215C53.9959 230.027 54.8361 228.968 56.1785 228.968C57.4512 228.968 58.2665 229.922 58.2665 231.215H53.9164ZM65.182 235.649H66.3553L66.3553 228.013H65.182L65.182 235.649ZM65.7786 226.74C66.236 226.74 66.6138 226.382 66.6138 225.945C66.6138 225.507 66.236 225.149 65.7786 225.149C65.3212 225.149 64.9434 225.507 64.9434 225.945C64.9434 226.382 65.3212 226.74 65.7786 226.74ZM71.6065 235.809C73.2969 235.809 74.4105 234.774 74.6094 233.422H73.4361C73.2173 234.257 72.5213 234.755 71.6065 234.755C70.2145 234.755 69.3196 233.601 69.3196 231.831C69.3196 230.101 70.2344 228.968 71.6065 228.968C72.6406 228.968 73.2571 229.604 73.4361 230.3H74.6094C74.4105 228.868 73.1975 227.914 71.5867 227.914C69.5185 227.914 68.1463 229.544 68.1463 231.871C68.1463 234.158 69.4588 235.809 71.6065 235.809ZM79.4269 235.809C81.495 235.809 82.8871 234.237 82.8871 231.871C82.8871 229.485 81.495 227.914 79.4269 227.914C77.3587 227.914 75.9666 229.485 75.9666 231.871C75.9666 234.237 77.3587 235.809 79.4269 235.809ZM79.4269 234.755C77.8558 234.755 77.1399 233.402 77.1399 231.871C77.1399 230.34 77.8558 228.968 79.4269 228.968C80.9979 228.968 81.7138 230.34 81.7138 231.871C81.7138 233.402 80.9979 234.755 79.4269 234.755ZM85.8514 231.056C85.8514 229.723 86.6767 228.968 87.8003 228.968C88.889 228.968 89.5503 229.679 89.5503 230.877L89.5503 235.649H90.7236L90.7236 230.797C90.7236 228.848 89.6845 227.914 88.1383 227.914C86.9849 227.914 86.269 228.431 85.9111 229.206H85.8116L85.8116 228.013H84.6781L84.6781 235.649H85.8514L85.8514 231.056Z" fill="#1F1F1F"/>
<path d="M116.394 163.274L112.394 163.274L112.394 0.999789L116.394 0.999789" stroke="black"/>
<path d="M4.55961 83.4506H2.92892L2.92892 81.621H1.75563L1.75563 83.4506H0.602218L0.602218 84.4449H1.75563L1.75563 89.2176C1.75563 90.55 2.82949 91.1863 3.82381 91.1863C4.26131 91.1863 4.53972 91.1068 4.69881 91.0471L4.46017 89.9932C4.36074 90.0131 4.20165 90.0528 3.94313 90.0528C3.42608 90.0528 2.92892 89.8937 2.92892 88.8994L2.92892 84.4449H4.5596L4.55961 83.4506ZM7.66188 86.4932C7.66188 85.1608 8.51202 84.4051 9.6704 84.4051C10.7741 84.4051 11.4403 85.1011 11.4403 86.3142L11.4403 91.0869H12.6136L12.6136 86.2346C12.6136 84.2709 11.5695 83.3511 10.0085 83.3511C8.80534 83.3511 8.11926 83.8532 7.76131 84.6437H7.66188L7.66188 80.9051H6.48858L6.48858 91.0869H7.66188L7.66188 86.4932ZM17.9618 91.246C19.5129 91.246 20.6464 90.4704 21.0044 89.317L19.8709 88.9988C19.5726 89.7943 18.8815 90.192 17.9618 90.192C16.5846 90.192 15.6351 89.3021 15.5804 87.6665H21.1237L21.1237 87.1693C21.1237 84.3256 19.4334 83.3511 17.8425 83.3511C15.7743 83.3511 14.4021 84.9818 14.4021 87.3284C14.4021 89.675 15.7544 91.246 17.9618 91.246ZM15.5804 86.6523C15.6599 85.464 16.5001 84.4051 17.8425 84.4051C19.1152 84.4051 19.9305 85.3596 19.9305 86.6523H15.5804ZM28.5761 91.0869H29.7295L31.4 85.2204H31.5193L33.1898 91.0869H34.3432L36.6699 83.4506H35.4369L33.7863 89.2773H33.7068L32.096 83.4506H30.8432L29.2125 89.2971H29.1329L27.4824 83.4506H26.2494L28.5761 91.0869ZM41.0635 91.246C43.1317 91.246 44.5237 89.675 44.5237 87.3085C44.5237 84.9221 43.1317 83.3511 41.0635 83.3511C38.9953 83.3511 37.6033 84.9221 37.6033 87.3085C37.6033 89.675 38.9953 91.246 41.0635 91.246ZM41.0635 90.192C39.4925 90.192 38.7766 88.8398 38.7766 87.3085C38.7766 85.7773 39.4925 84.4051 41.0635 84.4051C42.6345 84.4051 43.3504 85.7773 43.3504 87.3085C43.3504 88.8398 42.6345 90.192 41.0635 90.192ZM46.3148 91.0869H47.488L47.488 86.2545C47.488 85.2204 48.3034 84.4648 49.417 84.4648C49.7302 84.4648 50.0534 84.5244 50.1329 84.5443L50.1329 83.3511C49.9987 83.3412 49.6905 83.3312 49.5165 83.3312C48.6017 83.3312 47.8062 83.8483 47.5278 84.604H47.4483L47.4483 83.4506H46.3148L46.3148 91.0869ZM54.1748 91.246C55.6464 91.246 56.1436 90.3312 56.4021 89.9136H56.5413L56.5413 91.0869H57.6748L57.6748 80.9051H56.5015L56.5015 84.6636H56.4021C56.1436 84.2659 55.6862 83.3511 54.1947 83.3511C52.2657 83.3511 50.9334 84.8824 50.9334 87.2886C50.9334 89.7148 52.2657 91.246 54.1748 91.246ZM54.3339 90.192C52.8623 90.192 52.1067 88.8994 52.1067 87.2687C52.1067 85.6579 52.8425 84.4051 54.3339 84.4051C55.7657 84.4051 56.5214 85.5585 56.5214 87.2687C56.5214 88.9988 55.7459 90.192 54.3339 90.192ZM59.9866 91.0869H61.1599L61.1599 86.3142C61.1599 85.1956 61.9753 84.4051 62.89 84.4051C63.78 84.4051 64.4014 84.9868 64.4014 85.8568L64.4014 91.0869H65.5946L65.5946 86.1153C65.5946 85.1309 66.2111 84.4051 67.2849 84.4051C68.1202 84.4051 68.8361 84.8476 68.8361 85.9761L68.8361 91.0869H70.0094L70.0094 85.9761C70.0094 84.1814 69.0449 83.3511 67.6827 83.3511C66.5889 83.3511 65.7885 83.8532 65.3957 84.6437H65.3162C64.9383 83.8284 64.2721 83.3511 63.2679 83.3511C62.2736 83.3511 61.5378 83.8284 61.2196 84.6437H61.1202L61.1202 83.4506H59.9866L59.9866 91.0869ZM74.4018 91.2659C75.7341 91.2659 76.4302 90.55 76.6688 90.0528H76.7285L76.7285 91.0869H77.9018L77.9018 86.0557C77.9018 83.6295 76.0523 83.3511 75.0779 83.3511C73.9245 83.3511 72.612 83.7488 72.0154 85.1409L73.129 85.5386C73.3876 84.9818 73.9991 84.3852 75.1177 84.3852C76.1965 84.3852 76.7285 84.9569 76.7285 85.9363L76.7285 85.9761C76.7285 86.5429 76.1518 86.4932 74.7597 86.6721C73.3428 86.8561 71.7966 87.1693 71.7966 88.9193C71.7966 90.4108 72.9501 91.2659 74.4018 91.2659ZM74.5807 90.2119C73.6461 90.2119 72.9699 89.7943 72.9699 88.979C72.9699 88.0841 73.7853 87.8057 74.7001 87.6863C75.1972 87.6267 76.5296 87.4875 76.7285 87.2488L76.7285 88.3227C76.7285 89.2773 75.9728 90.2119 74.5807 90.2119ZM80.0433 91.0869H81.2166L81.2166 86.2545C81.2166 85.2204 82.0319 84.4648 83.1455 84.4648C83.4588 84.4648 83.7819 84.5244 83.8615 84.5443L83.8615 83.3511C83.7272 83.3412 83.419 83.3312 83.245 83.3312C82.3302 83.3312 81.5347 83.8483 81.2563 84.604H81.1768L81.1768 83.4506H80.0433L80.0433 91.0869ZM85.2523 91.0869H86.4255L86.4255 88.2282L87.2459 87.4676L90.1045 91.0869H91.596L88.1308 86.7119L91.3574 83.4506H89.9057L86.5648 86.8511H86.4255L86.4255 80.9051H85.2523L85.2523 91.0869Z" fill="#1F1F1F"/>
<path d="M392.804 1L396.804 1L396.804 258.716L392.804 258.716" stroke="black"/>
<path d="M421.799 120.222H420.169L420.169 118.392H418.995L418.995 120.222H417.842L417.842 121.216H418.995L418.995 125.989C418.995 127.321 420.069 127.958 421.063 127.958C421.501 127.958 421.779 127.878 421.938 127.819L421.7 126.765C421.6 126.785 421.441 126.824 421.183 126.824C420.666 126.824 420.169 126.665 420.169 125.671L420.169 121.216H421.799L421.799 120.222ZM424.901 123.265C424.901 121.932 425.752 121.177 426.91 121.177C428.014 121.177 428.68 121.873 428.68 123.086L428.68 127.858H429.853L429.853 123.006C429.853 121.042 428.809 120.123 427.248 120.123C426.045 120.123 425.359 120.625 425.001 121.415H424.901L424.901 117.677H423.728L423.728 127.858H424.901L424.901 123.265ZM435.201 128.017C436.752 128.017 437.886 127.242 438.244 126.089L437.11 125.77C436.812 126.566 436.121 126.964 435.201 126.964C433.824 126.964 432.875 126.074 432.82 124.438H438.363L438.363 123.941C438.363 121.097 436.673 120.123 435.082 120.123C433.014 120.123 431.642 121.753 431.642 124.1C431.642 126.446 432.994 128.017 435.201 128.017ZM432.82 123.424C432.9 122.236 433.74 121.177 435.082 121.177C436.355 121.177 437.17 122.131 437.17 123.424H432.82ZM445.259 117.677H444.086L444.086 127.858H445.259L445.259 117.677ZM450.51 128.017C452.578 128.017 453.97 126.446 453.97 124.08C453.97 121.694 452.578 120.123 450.51 120.123C448.442 120.123 447.05 121.694 447.05 124.08C447.05 126.446 448.442 128.017 450.51 128.017ZM450.51 126.964C448.939 126.964 448.223 125.611 448.223 124.08C448.223 122.549 448.939 121.177 450.51 121.177C452.081 121.177 452.797 122.549 452.797 124.08C452.797 125.611 452.081 126.964 450.51 126.964ZM458.844 130.881C460.673 130.881 462.145 130.046 462.145 128.077L462.145 120.222H461.011L461.011 121.435H460.892C460.634 121.037 460.156 120.123 458.665 120.123C456.736 120.123 455.403 121.654 455.403 124C455.403 126.387 456.795 127.739 458.645 127.739C460.136 127.739 460.614 126.864 460.872 126.446H460.972L460.972 127.998C460.972 129.27 460.077 129.847 458.844 129.847C457.457 129.847 456.969 129.116 456.656 128.694L455.722 129.35C456.199 130.15 457.138 130.881 458.844 130.881ZM458.804 126.685C457.332 126.685 456.577 125.571 456.577 123.981C456.577 122.429 457.312 121.177 458.804 121.177C460.236 121.177 460.991 122.33 460.991 123.981C460.991 125.671 460.216 126.685 458.804 126.685ZM467.395 128.017C469.463 128.017 470.855 126.446 470.855 124.08C470.855 121.694 469.463 120.123 467.395 120.123C465.327 120.123 463.935 121.694 463.935 124.08C463.935 126.446 465.327 128.017 467.395 128.017ZM467.395 126.964C465.824 126.964 465.108 125.611 465.108 124.08C465.108 122.549 465.824 121.177 467.395 121.177C468.966 121.177 469.682 122.549 469.682 124.08C469.682 125.611 468.966 126.964 467.395 126.964Z" fill="#1F1F1F"/>
<path d="M136.994 202.596V258.706H163.354C175.644 258.706 182.174 252.536 182.244 242.776C182.244 236.536 179.284 231.786 173.484 229.196V229.076C177.864 226.356 179.784 222.956 179.784 217.716C179.784 209.756 174.414 202.596 162.744 202.596H136.994ZM191.514 202.596V258.706H198.114V236.246L197.434 235.566H210.764C218.174 235.566 222.434 238.226 225.144 243.966L232.124 258.716H239.524L231.004 241.186C229.154 237.236 226.314 234.766 223.654 233.656V233.526C229.824 231.916 234.894 226.486 234.894 219.146C234.894 208.096 226.314 202.606 216.064 202.606L191.514 202.596ZM246.394 202.596V258.706H253.004V202.596H246.394ZM285.404 202.596L260.704 258.706H267.924L273.854 245.186L273.484 244.506H304.224L303.854 245.186L309.784 258.706H317.004L292.374 202.596H285.404ZM324.184 202.596V258.706H330.784V236.246L330.104 235.566H343.444C350.854 235.566 355.114 238.226 357.824 243.966L364.794 258.716H372.204L363.684 241.186C361.834 237.236 358.994 234.766 356.334 233.656V233.526C362.504 231.916 367.574 226.486 367.574 219.146C367.574 208.096 358.994 202.606 348.744 202.606L324.184 202.596ZM142.984 208.836H162.054C169.214 208.836 172.984 211.736 172.984 217.656C172.984 222.656 170.074 226.676 162.054 226.676H142.984L143.664 225.996V209.516L142.984 208.836ZM197.434 208.836H216.134C223.044 208.836 228.174 211.676 228.234 219.076C228.234 225.006 223.484 229.266 215.394 229.266H197.424L198.104 228.586V209.516C198.114 209.516 197.434 208.836 197.434 208.836ZM330.164 208.836H348.864C355.714 208.836 360.904 211.676 360.904 219.076C360.904 225.006 356.214 229.266 348.124 229.266H330.154L330.834 228.586V209.516C330.844 209.516 330.164 208.836 330.164 208.836ZM288.864 209.446H288.994L290.654 215.066L300.534 237.596L301.214 238.276H276.584L277.264 237.596L287.144 215.066L288.864 209.446ZM142.924 232.916H163.304C171.574 232.916 175.404 236.736 175.404 242.726C175.404 248.966 171.944 252.416 163.364 252.416H142.924L143.604 251.736V233.586L142.924 232.916Z" fill="#2E2E2E"/>
<path d="M218.913 4.24609C212.348 4.24609 206.935 9.65835 206.935 16.2233V31.4486H236.44V16.2233C236.44 9.65835 231.093 4.24609 224.528 4.24609H218.913ZM284.556 4.24609C277.991 4.24609 272.579 9.65835 272.579 16.2233V97.0919H302.083V16.2233C302.083 9.65835 296.737 4.24609 290.172 4.24609H284.556ZM206.935 70.428V151.297C206.935 157.861 212.282 163.274 218.913 163.274H224.528C231.093 163.274 236.506 157.861 236.506 151.297V70.428H206.935ZM272.575 136.071V151.297C272.575 157.861 277.991 163.274 284.553 163.274H290.168C296.733 163.274 302.146 157.861 302.146 151.297V136.071C302.149 136.071 272.575 136.071 272.575 136.071Z" fill="#74B816"/>
<path d="M186.971 36.1846C180.406 36.1846 174.994 41.5311 174.994 48.1618V53.7777C174.994 60.3427 180.34 65.7549 186.971 65.7549H267.84V36.1846H186.971ZM306.819 36.1846V65.7582H322.044C328.609 65.7582 334.022 60.4116 334.022 53.781V48.1651C334.022 41.5344 328.609 36.1879 322.044 36.1879H306.819V36.1846ZM186.971 101.828C180.406 101.828 174.994 107.174 174.994 113.805V119.421C174.994 125.986 180.34 131.398 186.971 131.398H202.196V101.828H186.971ZM241.176 101.828V131.401H322.044C328.609 131.401 334.022 125.986 334.022 119.424V113.808C334.022 107.178 328.609 101.831 322.044 101.831L241.176 101.828Z" fill="#82C91E"/>
</svg>
