<svg width="1664" height="320" viewBox="0 0 1664 320" fill="none" xmlns="http://www.w3.org/2000/svg">
<mask id="mask0" mask-type="alpha" maskUnits="userSpaceOnUse" x="0" y="0" width="1664" height="320">
<rect width="1664" height="320" fill="#657D99"/>
</mask>
<g mask="url(#mask0)">
<g style="mix-blend-mode:darken" opacity="0.07">
<path d="M278.763 152.531C265.473 151.48 246.674 164.209 258.806 178.673C262.831 183.471 269.279 183.92 274.488 180.785C282.484 175.972 283.624 165.916 284.313 157.451C284.54 154.666 280.8 154.716 279.914 156.849C272.439 174.847 295.635 190.213 308.042 174.355C322.605 155.743 293.402 132.939 277.45 130.041C254.358 125.847 236.363 143.678 234.604 166.301C232.874 188.545 251.039 212.28 274.681 202.866C277.332 201.811 276.178 197.428 273.491 198.497C236.642 213.168 227.084 148.738 259.201 136.142C273.423 130.565 288.813 136.41 298.876 147.27C306.047 155.008 312.435 171.423 298.071 175.962C286.901 179.494 280.423 167.227 284.233 158.055C282.766 157.854 281.301 157.654 279.834 157.453C279.456 162.102 279.189 167.706 276.805 171.824C273.248 177.972 262.859 180.529 260.588 171.734C257.716 160.618 269.975 156.367 278.761 157.062C281.638 157.29 281.624 152.757 278.763 152.531Z" fill="black"/>
<path d="M55.4433 -23.0844C55.6961 -0.934328 55.929 21.2157 56.1798 43.3658C56.2136 46.2795 60.6923 46.2876 60.6585 43.3658C60.4057 21.2157 60.1728 -0.934328 59.922 -23.0844C59.8882 -25.9981 55.4095 -26.0062 55.4433 -23.0844Z" fill="black"/>
<path d="M59.5894 45.8666C94.951 46.6942 130.402 45.6451 165.75 44.5396C168.624 44.449 168.638 39.9183 165.75 40.0089C130.402 41.1144 94.951 42.1635 59.5894 41.3359C56.7072 41.2674 56.7072 45.7981 59.5894 45.8666Z" fill="black"/>
<path d="M169.466 41.3421C168.684 20.7526 167.848 0.12488 166.142 -20.4082C165.903 -23.2917 161.422 -23.3179 161.663 -20.4082C163.369 0.126894 164.205 20.7526 164.987 41.3421C165.097 44.2478 169.577 44.2619 169.466 41.3421Z" fill="black"/>
<path d="M57.201 -23.3201C73.5929 -7.53919 90.0604 8.15311 108.262 21.8076C110.579 23.5454 112.814 19.6148 110.523 17.8951C92.6342 4.47419 76.4771 -11.0168 60.3679 -26.5238C58.2798 -28.5334 55.1069 -25.3358 57.201 -23.3201Z" fill="black"/>
<path d="M111.144 21.7933C129.811 9.40744 147.32 -4.48466 163.652 -19.883C165.766 -21.8745 162.593 -25.0742 160.485 -23.0867C144.431 -7.95216 127.231 5.70638 108.883 17.8809C106.484 19.4736 108.725 23.3982 111.144 21.7933Z" fill="black"/>
<path d="M1.21185 -9.8045C-16.9576 13.0966 -49.3572 19.4497 -73.747 2.40421C-99.1898 -15.3783 -104.819 -52.0124 -86.1161 -76.8245C-67.9626 -100.908 -33.1544 -105.64 -9.35184 -87.2753C15.0161 -68.476 18.4875 -33.944 0.859528 -9.34539C-0.834404 -6.98138 3.04908 -4.71804 4.72708 -7.05789C19.2459 -27.3151 20.8542 -54.7087 7.15552 -75.9305C-6.36607 -96.8763 -31.9143 -107.241 -55.9837 -101.639C-109.19 -89.2547 -117.526 -13.7915 -68.7787 10.5977C-43.4096 23.2897 -13.088 15.4123 4.37877 -6.6008C6.16625 -8.85205 3.01526 -12.0779 1.21185 -9.8045Z" fill="black"/>
<path d="M-130.809 171.395C-87.6787 170.634 -44.5482 169.907 -1.41768 169.146C1.4606 169.096 1.47057 164.565 -1.41768 164.615C-44.5482 165.376 -87.6787 166.103 -130.809 166.864C-133.689 166.917 -133.697 171.447 -130.809 171.395Z" fill="black"/>
<path d="M66.6083 92.0113C78.6648 101.91 89.967 112.625 100.515 124.151C102.477 126.296 105.638 123.086 103.682 120.947C93.1339 109.419 81.8317 98.7066 69.7752 88.8076C67.5557 86.9852 64.369 90.1728 66.6083 92.0113Z" fill="black"/>
<path d="M98.9742 123.453C87.9587 134.689 76.6665 145.633 65.0976 156.285C62.9618 158.252 66.1366 161.448 68.2645 159.489C79.8334 148.836 91.1236 137.892 102.141 126.656C104.171 124.584 101.007 121.378 98.9742 123.453Z" fill="black"/>
<path d="M64.6714 91.6935C64.6714 99.5245 64.6714 107.356 64.6714 115.187C64.6714 118.102 69.1501 118.106 69.1501 115.187C69.1501 107.356 69.1501 99.5245 69.1501 91.6935C69.1501 88.7777 64.6714 88.7737 64.6714 91.6935Z" fill="black"/>
<path d="M67.1877 118.376C69.9226 120.502 71.7081 123.648 74.463 125.79C75.4284 126.541 76.9611 125.933 77.5264 124.977C78.2131 123.817 77.6777 122.619 76.7222 121.878C73.9872 119.751 72.2018 116.606 69.4469 114.463C68.4815 113.712 66.9488 114.321 66.3835 115.277C65.6967 116.437 66.2322 117.633 67.1877 118.376Z" fill="black"/>
<path d="M73.7423 122.627C71.0889 124.64 68.4336 126.654 65.7802 128.668C64.8049 129.407 64.3292 130.617 64.9761 131.767C65.5215 132.737 67.0741 133.311 68.0395 132.58C70.6928 130.567 73.3482 128.553 76.0015 126.539C76.9769 125.8 77.4526 124.59 76.8057 123.44C76.2603 122.47 74.7077 121.896 73.7423 122.627Z" fill="black"/>
<path d="M62.8043 132.639C62.7725 140.969 63.2164 149.257 64.136 157.535C64.4545 160.401 68.9371 160.433 68.6147 157.535C67.6951 149.257 67.2512 140.967 67.283 132.639C67.293 129.723 62.8143 129.719 62.8043 132.639Z" fill="black"/>
<path d="M108.409 89.9977C120.466 99.8968 131.768 110.611 142.316 122.137C144.278 124.282 147.439 121.072 145.483 118.934C134.935 107.406 123.633 96.6931 111.576 86.794C109.357 84.9717 106.17 88.1593 108.409 89.9977Z" fill="black"/>
<path d="M140.775 121.438C129.759 132.675 118.467 143.619 106.898 154.271C104.763 156.238 107.937 159.434 110.065 157.475C121.634 146.822 132.924 135.878 143.942 124.642C145.972 122.57 142.807 119.364 140.775 121.438Z" fill="black"/>
<path d="M106.472 89.6795C106.472 97.5106 106.472 105.342 106.472 113.173C106.472 116.088 110.951 116.092 110.951 113.173C110.951 105.342 110.951 97.5106 110.951 89.6795C110.951 86.7638 106.472 86.7598 106.472 89.6795Z" fill="black"/>
<path d="M108.988 116.362C111.723 118.488 113.509 121.634 116.264 123.776C117.229 124.527 118.762 123.919 119.327 122.963C120.014 121.803 119.478 120.605 118.523 119.864C115.788 117.737 114.003 114.592 111.248 112.45C110.282 111.698 108.75 112.307 108.184 113.263C107.498 114.423 108.033 115.619 108.988 116.362Z" fill="black"/>
<path d="M115.543 120.613C112.89 122.627 110.234 124.64 107.581 126.654C106.606 127.393 106.13 128.603 106.777 129.753C107.322 130.724 108.875 131.298 109.84 130.567C112.494 128.553 115.149 126.539 117.802 124.526C118.778 123.787 119.253 122.576 118.606 121.427C118.061 120.456 116.508 119.882 115.543 120.613Z" fill="black"/>
<path d="M104.605 130.625C104.573 138.955 105.017 147.244 105.937 155.522C106.255 158.387 110.738 158.419 110.415 155.522C109.496 147.244 109.052 138.953 109.084 130.625C109.094 127.709 104.615 127.705 104.605 130.625Z" fill="black"/>
<path d="M150.21 87.9842C162.267 97.8832 173.569 108.598 184.116 120.124C186.079 122.268 189.24 119.059 187.283 116.92C176.736 105.392 165.434 94.6795 153.377 84.7805C151.158 82.9581 147.971 86.1457 150.21 87.9842Z" fill="black"/>
<path d="M182.576 119.425C171.56 130.661 160.268 141.605 148.699 152.257C146.563 154.225 149.738 157.42 151.866 155.461C163.435 144.809 174.725 133.865 185.743 122.629C187.773 120.557 184.608 117.351 182.576 119.425Z" fill="black"/>
<path d="M148.273 87.6661C148.273 95.4972 148.273 103.328 148.273 111.159C148.273 114.075 152.752 114.079 152.752 111.159C152.752 103.328 152.752 95.4972 152.752 87.6661C152.752 84.7504 148.273 84.7463 148.273 87.6661Z" fill="black"/>
<path d="M150.789 114.349C153.524 116.475 155.31 119.62 158.065 121.763C159.03 122.514 160.563 121.906 161.128 120.949C161.815 119.789 161.279 118.591 160.324 117.85C157.589 115.724 155.803 112.579 153.048 110.436C152.083 109.685 150.55 110.293 149.985 111.25C149.298 112.409 149.834 113.606 150.789 114.349Z" fill="black"/>
<path d="M157.344 118.6C154.691 120.613 152.035 122.627 149.382 124.641C148.407 125.38 147.931 126.59 148.578 127.74C149.123 128.71 150.676 129.284 151.641 128.553C154.295 126.54 156.95 124.526 159.603 122.512C160.579 121.773 161.054 120.563 160.408 119.413C159.862 118.443 158.31 117.869 157.344 118.6Z" fill="black"/>
<path d="M146.406 128.611C146.374 136.942 146.818 145.23 147.738 153.508C148.056 156.373 152.539 156.405 152.216 153.508C151.297 145.23 150.853 136.94 150.885 128.611C150.895 125.695 146.416 125.691 146.406 128.611Z" fill="black"/>
<path d="M127.026 331.729C120.802 331.592 114.484 325.765 113.077 319.875C110.214 307.904 124.064 299.984 133.051 307.988C135.207 309.909 138.386 306.716 136.218 304.785C126.322 295.969 110.174 300.644 108.409 314.486C107.055 325.086 116.369 336.026 127.026 336.26C129.91 336.324 129.908 331.793 127.026 331.729Z" fill="black"/>
<path d="M136.161 302.29C131.67 291.652 135.494 278.609 146.84 274.602C157.427 270.863 167.881 277.186 170.356 288.112C170.999 290.953 175.318 289.751 174.675 286.908C171.644 273.523 158.046 265.422 145.08 270.357C131.065 275.694 126.732 291.394 132.297 304.575C133.422 307.249 137.281 304.944 136.161 302.29Z" fill="black"/>
<path d="M175.121 288.17C179.07 281.708 187.156 279.195 193.674 283.472C200.5 287.951 201.083 297.298 196.051 303.341C194.204 305.558 197.357 308.778 199.218 306.545C205.767 298.685 205.54 287.028 197.204 280.49C188.591 273.736 176.797 276.813 171.255 285.885C169.735 288.371 173.606 290.649 175.121 288.17Z" fill="black"/>
<path d="M198.215 307.551C208.524 300.224 224.938 307.012 221.494 321.353C218.009 335.867 199.66 331.719 188.88 331.437C168.246 330.897 147.658 333.058 127.026 331.731C124.148 331.546 124.16 336.077 127.026 336.262C145.789 337.47 164.49 335.809 183.256 335.885C195.2 335.934 213.403 340.889 222.267 329.848C236.6 311.993 213.194 291.39 195.954 303.641C193.613 305.304 195.848 309.233 198.215 307.551Z" fill="black"/>
<path d="M152.234 278.148C147.114 277.671 142.468 282.282 142.618 287.423C142.701 290.333 147.18 290.345 147.096 287.423C147.015 284.57 149.483 282.423 152.234 282.679C155.104 282.947 155.086 278.414 152.234 278.148Z" fill="black"/>
<path d="M144.202 299.549C147.085 299.549 147.088 295.019 144.202 295.019C141.322 295.019 141.316 299.549 144.202 299.549Z" fill="black"/>
<path d="M122.478 311.635C119.068 313.717 117.426 317.795 118.421 321.697C119.142 324.518 123.463 323.322 122.741 320.493C122.247 318.56 123.049 316.579 124.739 315.548C127.203 314.043 124.954 310.123 122.478 311.635Z" fill="black"/>
<path d="M-20.3754 246.774C-9.74608 229.763 -0.557863 211.861 11.0986 195.517C12.7866 193.149 8.90506 190.885 7.23104 193.229C-4.42542 209.572 -13.6137 227.475 -24.243 244.486C-25.7877 246.959 -21.9141 249.234 -20.3754 246.774Z" fill="black"/>
<path d="M9.45453 196.046C20.7348 211.817 30.7531 228.339 39.5392 245.656C40.855 248.252 44.7205 245.962 43.4068 243.369C34.6206 226.051 24.6024 209.527 13.3221 193.759C11.6481 191.419 7.76259 193.678 9.45453 196.046Z" fill="black"/>
<path d="M-25.694 318.578C-13.7708 323.528 -0.111925 328.836 12.7289 323.882C22.5521 320.092 28.1076 311.182 30.1798 301.068C33.709 283.839 31.181 264.307 31.3522 246.742C31.3801 243.826 26.9014 243.824 26.8735 246.742C26.7501 259.377 26.6725 272.017 26.8078 284.654C26.9292 296.035 26.2823 309.617 16.1008 316.804C3.53271 325.674 -11.8261 319.47 -24.5017 314.209C-27.167 313.103 -28.3275 317.485 -25.694 318.578Z" fill="black"/>
<path d="M30.4186 249.009C34.3996 249.009 38.3806 249.009 42.3617 249.009C45.2439 249.009 45.2479 244.478 42.3617 244.478C38.3806 244.478 34.3996 244.478 30.4186 244.478C27.5363 244.478 27.5303 249.009 30.4186 249.009Z" fill="black"/>
<path d="M254.22 235.997C254.347 267.102 254.474 298.206 254.6 329.311C254.612 332.225 259.091 332.231 259.079 329.311C258.951 298.206 258.824 267.102 258.698 235.997C258.686 233.081 254.208 233.075 254.22 235.997Z" fill="black"/>
<path d="M259.025 333.02C265.974 317.4 272.921 301.78 279.87 286.161C281.042 283.523 277.185 281.217 276.002 283.873C269.053 299.493 262.107 315.113 255.158 330.733C253.985 333.37 257.843 335.678 259.025 333.02Z" fill="black"/>
<path d="M276.182 288.065C278.954 294.376 281.725 300.687 284.498 306.998C285.666 309.658 289.526 307.354 288.366 304.71C285.593 298.399 282.822 292.089 280.049 285.778C278.881 283.12 275.021 285.422 276.182 288.065Z" fill="black"/>
<path d="M290.312 306.973C295.814 292.447 301.314 277.921 306.816 263.394C307.847 260.67 303.519 259.49 302.496 262.19C296.994 276.716 291.495 291.243 285.993 305.769C284.962 308.494 289.289 309.672 290.312 306.973Z" fill="black"/>
<path d="M302.496 263.394C306.933 274.195 311.37 284.997 315.805 295.796C316.896 298.45 321.231 297.286 320.124 294.592C315.687 283.79 311.25 272.989 306.816 262.19C305.725 259.536 301.389 260.7 302.496 263.394Z" fill="black"/>
<path d="M322.228 298.849C331.767 282.76 341.297 266.665 350.732 250.513C352.201 247.998 348.332 245.715 346.865 248.226C337.43 264.377 327.899 280.472 318.361 296.561C316.876 299.068 320.747 301.349 322.228 298.849Z" fill="black"/>
<path d="M340.01 255.986C344.654 252.629 349.297 249.271 353.941 245.914C356.266 244.232 354.033 240.302 351.68 242.001C347.036 245.358 342.392 248.717 337.748 252.074C335.425 253.755 337.659 257.688 340.01 255.986Z" fill="black"/>
<path d="M350.187 246.16C349.488 251.077 348.792 255.994 348.093 260.912C347.689 263.763 352.002 264.995 352.412 262.116C353.111 257.198 353.808 252.281 354.506 247.364C354.91 244.512 350.597 243.282 350.187 246.16Z" fill="black"/>
<path d="M338.753 256.321C341.847 258.785 344.942 261.248 348.035 263.713C350.275 265.497 353.465 262.311 351.202 260.509C348.109 258.044 345.014 255.582 341.92 253.117C339.681 251.333 336.49 254.516 338.753 256.321Z" fill="black"/>
<path d="M167.77 187.116C150.176 188.525 141.334 207.063 145.693 223.247C150.441 240.874 168.347 250.251 185.5 245.137C202.003 240.217 211.134 222.099 207.019 205.462C202.532 187.321 183.72 177.877 166.347 181.514C163.526 182.104 164.721 186.471 167.537 185.883C181.403 182.982 197.144 189.83 201.941 204.05C206.356 217.135 201.101 232.535 188.78 238.979C175.828 245.751 159.05 241.021 152.222 227.866C145.14 214.215 150.367 193.044 167.768 191.648C170.625 191.417 170.648 186.884 167.77 187.116Z" fill="black"/>
<path d="M169.09 213.436C171.972 213.436 171.976 208.905 169.09 208.905C166.21 208.905 166.204 213.436 169.09 213.436Z" fill="black"/>
<path d="M183.024 213.436C185.906 213.436 185.91 208.905 183.024 208.905C180.143 208.905 180.137 213.436 183.024 213.436Z" fill="black"/>
<path d="M163.061 223.156C166.759 235.397 182.46 237.423 189.029 226.458C190.528 223.959 186.656 221.678 185.161 224.171C180.601 231.78 169.956 230.479 167.378 221.95C166.54 219.171 162.215 220.355 163.061 223.156Z" fill="black"/>
<path d="M312.443 100.247C302.676 89.2909 292.297 77.7507 288.503 63.1095C284.439 47.4233 290.948 24.1838 310.683 24.4678C328.72 24.7275 335.877 45.4177 332.937 60.4878C330.017 75.4572 320.109 87.5692 310.765 99.0047C308.942 101.236 312.093 104.458 313.932 102.208C326.15 87.2531 339.524 70.26 338.091 49.6524C337.078 35.0877 326.265 20.0418 310.683 19.9371C295.347 19.8344 284.058 34.097 282.701 48.6133C280.655 70.5137 295.777 88.3082 309.276 103.451C311.209 105.622 314.37 102.41 312.443 100.247Z" fill="black"/>
<path d="M310.735 34.2424C302.258 34.2927 294.182 40.5028 293.292 49.3769C292.442 57.8483 298.637 66.2391 306.898 67.8178C315.118 69.3884 323.988 63.6918 326.134 55.5165C328.423 46.8014 323.041 38.3079 315.172 35.072C312.503 33.9745 311.342 38.3562 313.982 39.4416C327.368 44.9448 322.097 66.5029 307.511 63.275C292.892 60.0391 296.268 38.8617 310.735 38.7751C313.618 38.7549 313.624 34.2242 310.735 34.2424Z" fill="black"/>
<path d="M406.742 75.5638C408.143 53.8366 379.006 38.9135 367.25 60.8582C361.643 71.3271 366.734 85.2132 372.688 94.3753C380.969 107.116 393.296 116.741 405.074 125.963C407.325 127.727 410.518 124.542 408.241 122.76C395.543 112.816 381.07 102.021 373.691 87.1725C368.164 76.0491 366.577 59.0278 381.572 55.1918C394.269 51.9418 403.012 63.9351 402.263 75.5638C402.076 78.4735 406.555 78.4635 406.742 75.5638Z" fill="black"/>
<path d="M406.551 77.2937C409.077 67.3986 414.176 56.3015 425.23 54.1227C440.3 51.1526 444.703 66.2831 440.921 77.9743C435.288 95.3802 419.644 111.632 405.529 122.403C403.256 124.137 405.486 128.074 407.791 126.316C423.795 114.101 456.212 83.1836 445.226 59.487C440.967 50.2988 430.469 47.3025 421.32 50.5183C410.378 54.3643 404.946 65.4635 402.235 76.0875C401.511 78.9146 405.828 80.1188 406.551 77.2937Z" fill="black"/>
<path d="M452.251 -15.3421C445.306 -16.806 438.178 -15.5152 432.503 -11.0611C428.265 -7.73654 424.823 -1.74192 429.019 3.06867C433.088 7.73226 441.408 7.62352 446.633 5.48504C452.667 3.01631 456.471 -2.87158 456.011 -9.44209C455.808 -12.3337 451.329 -12.3558 451.532 -9.44209C452.129 -0.884115 441.11 6.15759 433.655 1.02885C428.104 -2.79103 435.28 -7.96609 438.472 -9.53875C442.426 -11.4839 446.781 -11.8746 451.058 -10.9725C453.873 -10.3804 455.075 -14.746 452.251 -15.3421Z" fill="black"/>
<path d="M485.893 -17.0235C478.948 -18.4874 471.82 -17.1966 466.145 -12.7425C461.907 -9.41794 458.465 -3.42333 462.661 1.38726C466.73 6.05085 475.05 5.94211 480.275 3.80362C486.309 1.3349 490.112 -4.55298 489.653 -11.1235C489.45 -14.0151 484.971 -14.0372 485.174 -11.1235C485.771 -2.56552 474.752 4.47618 467.297 -0.652561C461.746 -4.47244 468.921 -9.64749 472.114 -11.2201C476.067 -13.1653 480.423 -13.556 484.7 -12.6539C487.515 -12.0618 488.717 -16.4294 485.893 -17.0235Z" fill="black"/>
<path d="M404.226 223.901C403.398 210.301 404.148 196.453 403.133 182.941C401.274 158.244 367.879 165.431 351.461 166.403C348.597 166.572 348.577 171.105 351.461 170.934C362.509 170.279 374.05 169.337 385.109 170.245C399.104 171.393 398.415 183.263 398.459 194C398.499 203.968 399.144 213.955 399.749 223.901C399.922 226.798 404.403 226.818 404.226 223.901Z" fill="black"/>
<path d="M352.343 166.651C336.899 167.233 335.336 188.16 339.339 199.791C341.459 205.951 345.886 208.607 352.078 209.596C363.231 211.376 375.606 209.948 386.713 208.516C389.534 208.154 389.57 203.617 386.713 203.986C376.388 205.315 365.777 206.138 355.367 205.347C347.618 204.757 343.153 199.578 342.572 192.089C342.03 185.1 341.397 171.592 352.343 171.181C355.215 171.073 355.229 166.542 352.343 166.651Z" fill="black"/>
<path d="M383.865 208.424C385.941 217.151 392.753 224.021 401.391 226.085C404.194 226.756 405.39 222.388 402.582 221.716C395.394 219.998 389.912 214.483 388.184 207.218C387.51 204.384 383.188 205.585 383.865 208.424Z" fill="black"/>
<path d="M358.854 191.286C361.736 191.286 361.74 186.755 358.854 186.755C355.972 186.755 355.966 191.286 358.854 191.286Z" fill="black"/>
<path d="M369.469 191.286C369.69 191.286 369.911 191.286 370.132 191.286C373.015 191.286 373.019 186.755 370.132 186.755C369.911 186.755 369.69 186.755 369.469 186.755C366.587 186.755 366.583 191.286 369.469 191.286Z" fill="black"/>
<path d="M380.75 191.286C383.632 191.286 383.636 186.755 380.75 186.755C377.867 186.755 377.861 191.286 380.75 191.286Z" fill="black"/>
<path d="M462.898 216.732C463.822 193.533 463.356 170.37 461.503 147.229C461.272 144.344 456.791 144.318 457.024 147.229C458.877 170.37 459.343 193.535 458.42 216.732C458.304 219.648 462.783 219.644 462.898 216.732Z" fill="black"/>
<path d="M481.589 170.27C477.697 163.454 473.874 156.591 469.915 149.815C468.149 146.795 466.302 142.52 462.285 142.161C457.83 141.765 455.053 146.458 452.746 149.481C447.472 156.392 442.197 163.305 436.922 170.215C435.162 172.521 439.052 174.78 440.789 172.503C443.767 168.602 458.033 145.142 464.586 149.545C466.897 151.1 469.005 157.288 470.424 159.773C472.857 164.033 475.289 168.294 477.721 172.557C479.163 175.08 483.034 172.801 481.589 170.27Z" fill="black"/>
<path d="M239.136 31.1654C228.153 20.4286 204.463 31.3466 206.215 47.2644C206.916 53.6356 212.505 55.7902 218.071 56.7728C221.646 57.4031 225.682 57.1051 229.092 58.3837C236.505 61.1666 244.775 68.8647 236.881 76.875C228.62 85.2558 216.337 77.1066 209.923 70.8844C207.843 68.8668 204.672 72.0644 206.756 74.0881C213.021 80.1673 221.056 86.0914 230.266 84.7624C236.678 83.8382 243.093 79.1585 244.343 72.4611C245.8 64.6482 240.161 58.0354 233.439 55.1257C228.509 52.9932 223.335 53.7765 218.397 52.1938C209.684 49.4009 211.096 41.443 216.283 36.4673C221.948 31.0345 229.641 28.1832 235.971 34.3691C238.041 36.3948 241.212 33.1951 239.136 31.1654Z" fill="black"/>
<path d="M219.981 19.5707C221.367 46.7529 222.752 73.933 224.138 101.115C224.285 104.017 228.766 104.035 228.616 101.115C227.231 73.933 225.846 46.7529 224.46 19.5707C224.311 16.6691 219.832 16.651 219.981 19.5707Z" fill="black"/>
<path d="M68.706 196.838C74.0903 208.329 79.4747 219.821 84.859 231.315C85.6035 232.906 87.9185 232.67 88.7266 231.315C95.568 219.823 102.409 208.329 109.251 196.838C110.742 194.333 106.87 192.053 105.383 194.55C98.5419 206.042 91.7004 217.536 84.859 229.028C86.1489 229.028 87.4368 229.028 88.7266 229.028C83.3423 217.536 77.9579 206.044 72.5736 194.55C71.3394 191.918 67.4759 194.214 68.706 196.838Z" fill="black"/>
<path d="M86.0395 230.975C86.3301 242.386 86.6187 253.798 86.9093 265.211C86.983 268.121 91.4617 268.133 91.388 265.211C91.0974 253.8 90.8088 242.388 90.5182 230.975C90.4445 228.065 85.9658 228.055 86.0395 230.975Z" fill="black"/>
<path d="M74.5401 247.332C84.4927 247.332 94.4453 247.332 104.398 247.332C107.28 247.332 107.284 242.801 104.398 242.801C94.4453 242.801 84.4927 242.801 74.5401 242.801C71.6599 242.801 71.6539 247.332 74.5401 247.332Z" fill="black"/>
<path d="M74.5462 257.591C84.5008 257.323 94.4554 257.053 104.41 256.785C107.286 256.707 107.298 252.176 104.41 252.255C94.4554 252.523 84.5008 252.792 74.5462 253.06C71.6699 253.139 71.658 257.67 74.5462 257.591Z" fill="black"/>
<path d="M30.6914 32.5287C7.75465 32.2649 -0.408443 59.2215 3.32776 78.4115C4.95202 86.752 9.88451 94.9818 18.2646 97.7606C26.2366 100.404 34.4475 96.5041 37.6741 88.8341C38.7908 86.1821 34.9332 83.8705 33.8065 86.5466C29.6205 96.498 18.2526 94.9072 12.4244 88.0609C7.88403 82.7267 6.93656 75.4172 7.04205 68.6212C7.26897 54.0807 13.8018 36.864 30.6894 37.0573C33.5736 37.0936 33.5756 32.5629 30.6914 32.5287Z" fill="black"/>
<path d="M-5.08023 65.0972C4.53994 65.0972 14.1621 65.0972 23.7823 65.0972C26.6645 65.0972 26.6685 60.5665 23.7823 60.5665C14.1621 60.5665 4.53994 60.5665 -5.08023 60.5665C-7.9605 60.5665 -7.96648 65.0972 -5.08023 65.0972Z" fill="black"/>
<path d="M-4.08487 76.1722C4.87245 76.1722 13.8298 76.1722 22.7871 76.1722C25.6694 76.1722 25.6733 71.6415 22.7871 71.6415C13.8298 71.6415 4.87245 71.6415 -4.08487 71.6415C-6.96514 71.6415 -6.97111 76.1722 -4.08487 76.1722Z" fill="black"/>
<path d="M404.618 318.87C402.275 307.129 399.932 295.387 397.587 283.644C397.018 280.788 392.699 281.996 393.268 284.848C395.611 296.589 397.954 308.331 400.298 320.074C400.87 322.932 405.187 321.723 404.618 318.87Z" fill="black"/>
<path d="M394.502 282.159C404.219 283.867 414.391 286.201 424.248 284.244C428.85 283.329 437.541 280.708 436.534 274.224C435.66 268.604 427.917 267.734 423.643 267.138C413.376 265.704 403.27 267.103 393.614 270.813C390.945 271.837 392.103 276.219 394.804 275.182C400.201 273.11 405.617 271.67 411.405 271.235C415.301 270.943 425.377 269.969 428.398 272.655C428.932 274.29 429.463 275.925 429.997 277.562C428.227 278.501 426.374 279.163 424.435 279.552C421.418 280.301 418.3 280.48 415.203 280.43C408.638 280.321 402.139 278.926 395.694 277.794C392.874 277.296 391.663 281.66 394.502 282.159Z" fill="black"/>
<path d="M430.885 278.513C427.947 291.881 426.024 305.512 424.141 319.067C423.745 321.919 428.06 323.151 428.46 320.272C430.343 306.716 432.266 293.085 435.204 279.717C435.827 276.878 431.512 275.663 430.885 278.513Z" fill="black"/>
<path d="M402.389 321.967C409.881 326.876 419.346 326.923 426.898 322.116C429.332 320.568 427.087 316.645 424.637 318.204C418.358 322.197 410.874 322.132 404.648 318.055C402.221 316.466 399.974 320.386 402.389 321.967Z" fill="black"/>
<path d="M401.976 313.772C396.887 313.409 383.636 315.876 385.927 324.039C388.086 331.741 409.536 332.46 415.558 332.464C421.702 332.468 428.303 331.818 434.175 329.832C437.202 328.81 443.966 327.12 444.836 323.471C446.407 316.877 434.057 313.802 429.637 313.232C426.784 312.866 426.812 317.398 429.637 317.763C431.275 317.974 436.384 319.456 437.833 321.001C440.537 323.884 439.635 321.268 437.495 323.288C433.411 327.144 423.85 327.611 418.671 327.863C413.163 328.131 407.625 327.642 402.225 326.548C400.448 326.188 396.252 325.902 394.85 324.539C389.279 319.106 397.653 317.99 401.976 318.298C404.853 318.508 404.839 313.977 401.976 313.772Z" fill="black"/>
<path d="M340.557 -90.2051C340.816 -56.1827 342.814 -22.2025 343.073 11.82C343.095 14.7337 347.574 14.7418 347.552 11.82C347.293 -22.2025 345.294 -56.1827 345.036 -90.2051C345.014 -93.1189 340.535 -93.1249 340.557 -90.2051Z" fill="black"/>
<path d="M344.988 15.3462C346.59 15.7751 348.276 16.2362 349.948 16.0993C351.654 15.9604 353.225 15.2918 354.803 14.6737C357.462 13.6346 356.308 9.25093 353.613 10.3041C352.45 10.7591 351.196 11.3894 349.948 11.5666C348.684 11.7458 347.38 11.2968 346.178 10.9746C343.389 10.2296 342.199 14.5992 344.988 15.3462Z" fill="black"/>
<path d="M348.951 -90.2152C350.115 -56.4243 351.111 -22.6293 352.116 11.1676C352.202 14.0773 356.682 14.0894 356.595 11.1676C355.589 -22.6273 354.594 -56.4243 353.43 -90.2152C353.33 -93.1229 348.849 -93.137 348.951 -90.2152Z" fill="black"/>
<path d="M530.926 305.099C525.526 305.352 520.125 305.606 514.727 305.862C512.273 305.977 509.819 306.106 507.364 306.208C506.003 306.303 504.637 306.355 503.274 306.365C500.204 306.764 498.739 304.521 498.877 299.638C501.114 297.248 508.013 297.457 511.081 297.574C513.616 297.67 516.15 297.795 518.684 297.904C524.767 298.17 530.85 298.434 536.933 298.699C539.816 298.824 539.81 294.294 536.933 294.169C526.224 293.702 514.636 291.879 503.966 293.021C498.795 293.575 493.303 296.615 492.875 302.439C492.543 306.957 495.674 309.865 499.848 310.681C509.401 312.543 521.234 310.087 530.926 309.629C533.796 309.493 533.812 304.962 530.926 305.099Z" fill="black"/>
<path d="M539.004 299.094C544.304 299.136 554.512 299.964 552.509 308.085C551.249 313.19 546.118 314.748 541.659 315.191C536.711 315.685 531.679 315.677 526.712 315.499C523.83 315.397 523.834 319.927 526.712 320.03C534.716 320.314 546.191 321.587 552.625 315.781C556.608 312.187 558.753 306.307 555.985 301.315C552.585 295.188 545.186 294.612 539.004 294.561C536.121 294.539 536.119 299.07 539.004 299.094Z" fill="black"/>
<path d="M532.264 315.499C522.685 315.421 513.107 315.342 503.529 315.264C499.287 315.229 494.273 315.946 490.118 315.155C484.197 315.707 479.965 312.33 477.423 305.026C479.288 300.449 482.749 298.949 487.807 300.522C490.57 301.374 491.751 297.002 488.998 296.152C478.181 292.816 467.512 304.374 475.211 314.484C479.204 319.728 486.123 319.621 492.033 319.702C505.441 319.885 518.853 319.921 532.264 320.03C535.146 320.054 535.148 315.523 532.264 315.499Z" fill="black"/>
<path d="M1092.88 152.531C1079.59 151.48 1060.8 164.209 1072.93 178.673C1076.95 183.471 1083.4 183.92 1088.61 180.785C1096.6 175.972 1097.75 165.916 1098.43 157.451C1098.66 154.666 1094.92 154.716 1094.04 156.849C1086.56 174.847 1109.76 190.213 1122.17 174.355C1136.73 155.743 1107.52 132.939 1091.57 130.041C1068.48 125.847 1050.49 143.678 1048.73 166.301C1047 188.545 1065.16 212.28 1088.8 202.866C1091.46 201.811 1090.3 197.428 1087.61 198.497C1050.77 213.168 1041.21 148.738 1073.32 136.142C1087.55 130.565 1102.94 136.41 1113 147.27C1120.17 155.008 1126.56 171.423 1112.19 175.962C1101.02 179.494 1094.55 167.227 1098.36 158.055C1096.89 157.854 1095.42 157.654 1093.96 157.453C1093.58 162.102 1093.31 167.706 1090.93 171.824C1087.37 177.972 1076.98 180.529 1074.71 171.734C1071.84 160.618 1084.1 156.367 1092.89 157.062C1095.76 157.29 1095.75 152.757 1092.88 152.531Z" fill="black"/>
<path d="M869.565 -23.0844C869.817 -0.934328 870.05 21.2157 870.301 43.3658C870.335 46.2795 874.814 46.2876 874.78 43.3658C874.527 21.2157 874.294 -0.934328 874.043 -23.0844C874.009 -25.9981 869.531 -26.0062 869.565 -23.0844Z" fill="black"/>
<path d="M873.711 45.8666C909.073 46.6942 944.524 45.6451 979.871 44.5396C982.746 44.449 982.759 39.9183 979.871 40.0089C944.524 41.1144 909.073 42.1635 873.711 41.3359C870.829 41.2674 870.829 45.7981 873.711 45.8666Z" fill="black"/>
<path d="M983.588 41.3421C982.805 20.7526 981.969 0.12488 980.263 -20.4082C980.025 -23.2917 975.544 -23.3179 975.785 -20.4082C977.491 0.126894 978.327 20.7526 979.109 41.3421C979.218 44.2478 983.699 44.2619 983.588 41.3421Z" fill="black"/>
<path d="M871.323 -23.3201C887.714 -7.53919 904.182 8.15311 922.383 21.8076C924.7 23.5454 926.936 19.6148 924.645 17.8951C906.756 4.47419 890.599 -11.0168 874.489 -26.5238C872.401 -28.5334 869.229 -25.3358 871.323 -23.3201Z" fill="black"/>
<path d="M925.265 21.7933C943.933 9.40744 961.441 -4.48466 977.773 -19.883C979.887 -21.8745 976.714 -25.0742 974.606 -23.0867C958.553 -7.95216 941.355 5.70638 923.004 17.8809C920.606 19.4736 922.847 23.3982 925.265 21.7933Z" fill="black"/>
<path d="M815.333 -9.8045C797.163 13.0966 764.764 19.4497 740.374 2.40421C714.931 -15.3783 709.302 -52.0124 728.005 -76.8245C746.158 -100.908 780.967 -105.64 804.769 -87.2753C829.137 -68.476 832.609 -33.944 814.981 -9.34539C813.287 -6.98138 817.17 -4.71804 818.848 -7.05789C833.367 -27.3151 834.975 -54.7087 821.277 -75.9305C807.755 -96.8763 782.207 -107.241 758.137 -101.639C704.931 -89.2547 696.595 -13.7915 745.342 10.5977C770.712 23.2897 801.033 15.4123 818.5 -6.6008C820.287 -8.85205 817.136 -12.0779 815.333 -9.8045Z" fill="black"/>
<path d="M769.199 -44.1628C771.482 -26.7186 771.339 -8.82138 771.028 8.74965C770.976 11.6654 775.455 11.6674 775.507 8.74965C775.817 -8.81937 775.961 -26.7186 773.678 -44.1628C773.305 -47.0101 768.821 -47.0483 769.199 -44.1628Z" fill="black"/>
<path d="M729.064 -21.3323C738.113 -5.38225 753.645 4.70408 771.675 6.68147C774.537 6.9956 774.515 2.46289 771.675 2.15078C755.265 0.350586 741.126 -9.17796 732.931 -23.6178C731.496 -26.1469 727.625 -23.8675 729.064 -21.3323Z" fill="black"/>
<path d="M697.134 151.923C705.166 131.592 713.198 111.26 721.229 90.9282C722.298 88.2199 717.969 87.0439 716.91 89.7241C708.878 110.056 700.847 130.388 692.815 150.719C691.746 153.426 696.077 154.602 697.134 151.923Z" fill="black"/>
<path d="M696.571 156.275C713.174 155.232 729.747 155.212 746.352 156.21C749.23 156.383 749.22 151.853 746.352 151.68C729.747 150.681 713.174 150.701 696.571 151.744C693.706 151.923 693.687 156.456 696.571 156.275Z" fill="black"/>
<path d="M718.166 92.0356C726.731 112.198 735.296 132.361 743.861 152.523C744.996 155.195 748.856 152.89 747.729 150.236C739.164 130.073 730.599 109.911 722.034 89.7481C720.899 87.078 717.039 89.3836 718.166 92.0356Z" fill="black"/>
<path d="M737.637 121.333C746.987 98.668 756.336 76.0024 765.685 53.3369C766.794 50.6487 762.463 49.4767 761.366 52.1327C752.017 74.7983 742.667 97.4638 733.318 120.129C732.209 122.818 736.54 123.989 737.637 121.333Z" fill="black"/>
<path d="M747.685 155.501C767.636 154.986 787.589 154.47 807.54 153.955C810.416 153.88 810.428 149.35 807.54 149.424C787.589 149.94 767.636 150.455 747.685 150.971C744.809 151.043 744.797 155.576 747.685 155.501Z" fill="black"/>
<path d="M760.787 53.3796C775.726 85.8536 790.667 118.328 805.605 150.8C806.82 153.441 810.683 151.142 809.473 148.512C794.534 116.038 779.593 83.5641 764.655 51.0921C763.44 48.4522 759.579 50.7498 760.787 53.3796Z" fill="black"/>
<path d="M676.483 44.7091C675.945 85.6423 677.727 126.674 679.528 167.561C679.655 170.465 684.136 170.481 684.007 167.561C682.203 126.674 680.424 85.6423 680.961 44.7091C680.999 41.7933 676.52 41.7913 676.483 44.7091Z" fill="black"/>
<path d="M683.312 171.395C726.442 170.634 769.573 169.907 812.704 169.146C815.582 169.096 815.592 164.565 812.704 164.615C769.573 165.376 726.442 166.103 683.312 166.864C680.434 166.917 680.424 171.447 683.312 171.395Z" fill="black"/>
<path d="M691.933 55.0286C692.154 55.0286 692.375 55.0286 692.596 55.0286C695.478 55.0286 695.482 50.4979 692.596 50.4979C692.375 50.4979 692.154 50.4979 691.933 50.4979C689.051 50.4979 689.047 55.0286 691.933 55.0286Z" fill="black"/>
<path d="M709.185 54.3584C712.067 54.3584 712.071 49.8278 709.185 49.8278C706.303 49.8278 706.297 54.3584 709.185 54.3584Z" fill="black"/>
<path d="M723.781 53.0154C726.664 53.0154 726.668 48.4847 723.781 48.4847C720.899 48.4847 720.895 53.0154 723.781 53.0154Z" fill="black"/>
<path d="M741.033 53.0154C743.915 53.0154 743.919 48.4847 741.033 48.4847C738.151 48.4847 738.145 53.0154 741.033 53.0154Z" fill="black"/>
<path d="M690.854 90.3521C690.854 90.1286 690.854 89.9051 690.854 89.6816C690.854 86.7659 686.375 86.7618 686.375 89.6816C686.375 89.9051 686.375 90.1286 686.375 90.3521C686.375 93.2659 690.854 93.2719 690.854 90.3521Z" fill="black"/>
<path d="M703.876 91.9444C706.758 91.9444 706.762 87.4137 703.876 87.4137C700.994 87.4137 700.99 91.9444 703.876 91.9444Z" fill="black"/>
<path d="M541.004 -59.9783C540.681 -43.4061 539.531 -26.6083 540.074 -10.0421C540.349 -1.69151 542.449 4.83873 551.418 6.22613C567.414 8.69888 584.855 7.05575 600.99 6.85439C617.806 6.64497 634.608 6.45568 651.414 7.20073C654.296 7.32759 654.29 2.7969 651.414 2.67004C625.557 1.52427 599.702 2.71434 573.837 2.46264C568.318 2.40827 559.52 3.95273 554.444 1.92701C550.534 0.366436 545.14 -5.96042 544.553 -10.0421C544.173 -12.6799 544.623 -15.7366 544.674 -18.4047C544.943 -32.2626 545.214 -46.1205 545.483 -59.9783C545.54 -62.8941 541.062 -62.8941 541.004 -59.9783Z" fill="black"/>
<path d="M650.841 6.97535C661.267 6.23634 661.364 -4.22654 661.223 -12.5952C660.936 -29.7897 659.537 -46.9379 657.614 -64.0176C657.292 -66.881 652.809 -66.9152 653.136 -64.0176C654.063 -55.7697 663.108 1.57476 650.839 2.44466C647.98 2.64602 647.958 7.17873 650.841 6.97535Z" fill="black"/>
<path d="M590.906 298.216C602.784 287.415 618.158 276.761 634.861 277.172C651.732 277.586 666.544 288.132 678.334 299.434C680.426 301.44 683.599 298.242 681.501 296.231C668.907 284.157 652.893 272.883 634.861 272.641C616.851 272.399 600.618 283.303 587.739 295.012C585.59 296.966 588.766 300.161 590.906 298.216Z" fill="black"/>
<path d="M587.739 300.655C600.618 312.366 616.849 323.268 634.861 323.026C652.891 322.785 668.909 311.508 681.501 299.437C683.597 297.427 680.426 294.227 678.334 296.233C666.717 307.37 651.595 318.435 634.861 318.496C618.009 318.556 602.967 308.417 590.906 297.451C588.766 295.506 585.59 298.7 587.739 300.655Z" fill="black"/>
<path d="M632.207 274.955C620.865 274.568 611.753 284.189 612.242 295.657C612.768 307.932 623.447 319.042 635.508 320.143C646.939 321.186 656.862 311.947 657.841 300.542C659.053 286.415 648.426 275.805 635.673 272.551C632.878 271.838 631.684 276.205 634.483 276.92C642.952 279.081 650.562 284.481 652.821 293.44C655.361 303.516 649.497 314.406 638.858 315.538C616.273 317.942 607.32 278.636 632.209 279.486C635.09 279.584 635.086 275.054 632.207 274.955Z" fill="black"/>
<path d="M638.971 290.496C635.518 289.832 631.722 291.183 630.297 294.65C628.979 297.856 630.265 301.928 633.575 303.238C636.503 304.398 640.404 302.995 641.332 299.771C642.327 296.309 639.754 292.796 636.26 292.619C633.38 292.472 633.388 297.002 636.26 297.149C636.919 297.183 637.279 298.218 636.913 298.704C636.457 299.304 635.325 299.239 634.813 298.792C634.1 298.172 634.097 296.887 634.55 296.122C635.191 295.041 636.612 294.638 637.783 294.862C640.598 295.407 641.806 291.042 638.971 290.496Z" fill="black"/>
<path d="M611.234 280.975C611.234 278.515 611.234 276.054 611.234 273.591C611.234 270.676 606.755 270.671 606.755 273.591C606.755 276.052 606.755 278.513 606.755 280.975C606.755 283.891 611.234 283.895 611.234 280.975Z" fill="black"/>
<path d="M622.514 276.278C622.514 273.144 622.514 270.013 622.514 266.88C622.514 263.964 618.035 263.96 618.035 266.88C618.035 270.013 618.035 273.144 618.035 276.278C618.035 279.193 622.514 279.197 622.514 276.278Z" fill="black"/>
<path d="M635.04 276.88C635.703 273.746 636.368 270.615 637.031 267.482C637.634 264.639 633.316 263.424 632.711 266.278C632.048 269.411 631.383 272.542 630.721 275.675C630.119 278.519 634.435 279.733 635.04 276.88Z" fill="black"/>
<path d="M649.636 279.564C650.52 275.983 651.406 272.403 652.29 268.825C652.988 265.996 648.671 264.79 647.97 267.621C647.087 271.201 646.201 274.781 645.317 278.36C644.62 281.189 648.938 282.395 649.636 279.564Z" fill="black"/>
<path d="M661.354 282.79C662.238 281 663.124 279.209 664.008 277.419C664.549 276.326 664.296 274.965 663.204 274.32C662.21 273.732 660.684 274.034 660.14 275.134C659.257 276.924 658.371 278.714 657.487 280.504C656.946 281.598 657.198 282.959 658.291 283.603C659.284 284.191 660.811 283.889 661.354 282.79Z" fill="black"/>
<path d="M608.389 314.736C607.282 316.526 606.177 318.317 605.071 320.107C603.538 322.585 607.412 324.863 608.938 322.394C610.043 320.604 611.15 318.814 612.256 317.024C613.787 314.543 609.914 312.266 608.389 314.736Z" fill="black"/>
<path d="M618.78 320.646C618.338 322.66 617.894 324.674 617.452 326.687C616.829 329.528 621.144 330.741 621.771 327.891C622.213 325.878 622.655 323.864 623.099 321.851C623.722 319.011 619.405 317.797 618.78 320.646Z" fill="black"/>
<path d="M633.296 321.921C633.296 323.935 633.296 325.948 633.296 327.962C633.296 330.878 637.775 330.882 637.775 327.962C637.775 325.948 637.775 323.935 637.775 321.921C637.775 319.005 633.296 318.999 633.296 321.921Z" fill="black"/>
<path d="M648.422 320.565C648.886 322.349 649.348 324.134 649.812 325.918C650.542 328.735 654.863 327.541 654.131 324.713C653.667 322.929 653.205 321.145 652.742 319.361C652.009 316.542 647.69 317.738 648.422 320.565Z" fill="black"/>
<path d="M658.592 317.392C659.245 318.073 659.898 318.755 660.55 319.436C662.561 321.534 665.726 318.329 663.717 316.232C663.064 315.552 662.412 314.869 661.759 314.188C659.748 312.09 656.583 315.296 658.592 317.392Z" fill="black"/>
<path d="M880.729 92.0113C892.786 101.91 904.088 112.625 914.636 124.151C916.598 126.296 919.759 123.086 917.803 120.947C907.255 109.419 895.953 98.7066 883.896 88.8076C881.677 86.9852 878.49 90.1728 880.729 92.0113Z" fill="black"/>
<path d="M913.095 123.453C902.08 134.689 890.788 145.633 879.219 156.285C877.083 158.252 880.258 161.448 882.386 159.489C893.955 148.836 905.245 137.892 916.262 126.656C918.293 124.584 915.128 121.378 913.095 123.453Z" fill="black"/>
<path d="M878.793 91.6935C878.793 99.5245 878.793 107.356 878.793 115.187C878.793 118.102 883.271 118.106 883.271 115.187C883.271 107.356 883.271 99.5245 883.271 91.6935C883.271 88.7777 878.793 88.7737 878.793 91.6935Z" fill="black"/>
<path d="M881.308 118.376C884.043 120.502 885.829 123.648 888.584 125.79C889.549 126.541 891.082 125.933 891.647 124.977C892.334 123.817 891.798 122.619 890.843 121.878C888.108 119.751 886.323 116.606 883.568 114.463C882.602 113.712 881.07 114.321 880.504 115.277C879.818 116.437 880.353 117.633 881.308 118.376Z" fill="black"/>
<path d="M887.863 122.627C885.21 124.64 882.554 126.654 879.901 128.668C878.926 129.407 878.45 130.617 879.097 131.767C879.642 132.737 881.195 133.311 882.16 132.58C884.814 130.567 887.469 128.553 890.122 126.539C891.098 125.8 891.573 124.59 890.927 123.44C890.381 122.47 888.829 121.896 887.863 122.627Z" fill="black"/>
<path d="M876.925 132.639C876.894 140.969 877.337 149.257 878.257 157.535C878.576 160.401 883.058 160.433 882.736 157.535C881.816 149.257 881.372 140.967 881.404 132.639C881.414 129.723 876.935 129.719 876.925 132.639Z" fill="black"/>
<path d="M922.53 89.9977C934.587 99.8968 945.889 110.611 956.437 122.137C958.399 124.282 961.56 121.072 959.604 118.934C949.056 107.406 937.754 96.6931 925.697 86.794C923.478 84.9717 920.291 88.1593 922.53 89.9977Z" fill="black"/>
<path d="M954.896 121.438C943.881 132.675 932.588 143.619 921.019 154.271C918.884 156.238 922.059 159.434 924.186 157.475C935.755 146.822 947.045 135.878 958.063 124.642C960.093 122.57 956.928 119.364 954.896 121.438Z" fill="black"/>
<path d="M920.594 89.6795C920.594 97.5106 920.594 105.342 920.594 113.173C920.594 116.088 925.072 116.092 925.072 113.173C925.072 105.342 925.072 97.5106 925.072 89.6795C925.072 86.7638 920.594 86.7598 920.594 89.6795Z" fill="black"/>
<path d="M923.11 116.362C925.844 118.488 927.63 121.634 930.385 123.776C931.35 124.527 932.883 123.919 933.448 122.963C934.135 121.803 933.6 120.605 932.644 119.864C929.909 117.737 928.124 114.592 925.369 112.45C924.403 111.698 922.871 112.307 922.305 113.263C921.619 114.423 922.154 115.619 923.11 116.362Z" fill="black"/>
<path d="M929.664 120.613C927.011 122.627 924.356 124.64 921.702 126.654C920.727 127.393 920.251 128.603 920.898 129.753C921.444 130.724 922.996 131.298 923.962 130.567C926.615 128.553 929.27 126.539 931.924 124.526C932.899 123.787 933.375 122.576 932.728 121.427C932.182 120.456 930.63 119.882 929.664 120.613Z" fill="black"/>
<path d="M918.726 130.625C918.694 138.955 919.138 147.244 920.058 155.522C920.376 158.387 924.859 158.419 924.537 155.522C923.617 147.244 923.173 138.953 923.205 130.625C923.215 127.709 918.736 127.705 918.726 130.625Z" fill="black"/>
<path d="M964.331 87.9842C976.388 97.8832 987.69 108.598 998.238 120.124C1000.2 122.268 1003.36 119.059 1001.4 116.92C990.857 105.392 979.555 94.6795 967.498 84.7805C965.279 82.9581 962.092 86.1457 964.331 87.9842Z" fill="black"/>
<path d="M996.697 119.425C985.681 130.661 974.389 141.605 962.82 152.257C960.684 154.225 963.859 157.42 965.987 155.461C977.556 144.809 988.846 133.865 999.864 122.629C1001.89 120.557 998.729 117.351 996.697 119.425Z" fill="black"/>
<path d="M962.395 87.6661C962.395 95.4972 962.395 103.328 962.395 111.159C962.395 114.075 966.873 114.079 966.873 111.159C966.873 103.328 966.873 95.4972 966.873 87.6661C966.873 84.7504 962.395 84.7463 962.395 87.6661Z" fill="black"/>
<path d="M964.91 114.349C967.645 116.475 969.431 119.62 972.185 121.763C973.151 122.514 974.684 121.906 975.249 120.949C975.936 119.789 975.4 118.591 974.445 117.85C971.71 115.724 969.924 112.579 967.17 110.436C966.204 109.685 964.671 110.293 964.106 111.25C963.419 112.409 963.955 113.606 964.91 114.349Z" fill="black"/>
<path d="M971.465 118.6C968.812 120.613 966.156 122.627 963.503 124.641C962.528 125.38 962.052 126.59 962.699 127.74C963.244 128.71 964.797 129.284 965.762 128.553C968.416 126.54 971.071 124.526 973.724 122.512C974.7 121.773 975.175 120.563 974.528 119.413C973.983 118.443 972.43 117.869 971.465 118.6Z" fill="black"/>
<path d="M960.527 128.611C960.495 136.942 960.939 145.23 961.859 153.508C962.177 156.373 966.66 156.405 966.337 153.508C965.418 145.23 964.974 136.94 965.006 128.611C965.016 125.695 960.537 125.691 960.527 128.611Z" fill="black"/>
<path d="M941.148 331.729C934.923 331.592 928.605 325.765 927.198 319.875C924.336 307.904 938.186 299.984 947.173 307.988C949.329 309.909 952.507 306.716 950.34 304.785C940.443 295.969 924.296 300.644 922.53 314.486C921.177 325.086 930.49 336.026 941.148 336.26C944.032 336.324 944.03 331.793 941.148 331.729Z" fill="black"/>
<path d="M950.282 302.29C945.792 291.652 949.615 278.609 960.961 274.602C971.549 270.863 982.003 277.186 984.477 288.112C985.12 290.953 989.44 289.751 988.797 286.908C985.765 273.523 972.168 265.422 959.202 270.357C945.186 275.694 940.853 291.394 946.419 304.575C947.543 307.249 951.403 304.944 950.282 302.29Z" fill="black"/>
<path d="M989.242 288.17C993.192 281.708 1001.28 279.195 1007.8 283.472C1014.62 287.951 1015.2 297.298 1010.17 303.341C1008.33 305.558 1011.48 308.778 1013.34 306.545C1019.89 298.685 1019.66 287.028 1011.33 280.49C1002.71 273.736 990.918 276.813 985.377 285.885C983.856 288.371 987.728 290.649 989.242 288.17Z" fill="black"/>
<path d="M1012.34 307.551C1022.64 300.224 1039.06 307.012 1035.62 321.353C1032.13 335.867 1013.78 331.719 1003 331.437C982.365 330.897 961.779 333.058 941.147 331.731C938.269 331.546 938.281 336.077 941.147 336.262C959.91 337.47 978.611 335.809 997.377 335.885C1009.32 335.934 1027.52 340.889 1036.39 329.848C1050.72 311.993 1027.31 291.39 1010.07 303.641C1007.73 305.304 1009.97 309.233 1012.34 307.551Z" fill="black"/>
<path d="M966.356 278.148C961.236 277.671 956.59 282.282 956.74 287.423C956.823 290.333 961.302 290.345 961.218 287.423C961.137 284.57 963.605 282.423 966.356 282.679C969.226 282.947 969.208 278.414 966.356 278.148Z" fill="black"/>
<path d="M958.324 299.549C961.206 299.549 961.21 295.019 958.324 295.019C955.443 295.019 955.437 299.549 958.324 299.549Z" fill="black"/>
<path d="M936.599 311.635C933.19 313.717 931.547 317.795 932.543 321.697C933.263 324.518 937.585 323.322 936.862 320.493C936.368 318.56 937.171 316.579 938.86 315.548C941.325 314.043 939.075 310.123 936.599 311.635Z" fill="black"/>
<path d="M793.746 246.774C804.375 229.763 813.563 211.861 825.22 195.517C826.908 193.149 823.026 190.885 821.352 193.229C809.696 209.572 800.507 227.475 789.878 244.486C788.333 246.959 792.207 249.234 793.746 246.774Z" fill="black"/>
<path d="M823.575 196.046C834.856 211.817 844.874 228.339 853.66 245.656C854.976 248.252 858.841 245.962 857.528 243.369C848.742 226.051 838.721 209.527 827.443 193.759C825.769 191.419 821.883 193.678 823.575 196.046Z" fill="black"/>
<path d="M792.121 249.009C796.544 249.009 800.967 249.009 805.392 249.009C808.275 249.009 808.279 244.478 805.392 244.478C800.969 244.478 796.546 244.478 792.121 244.478C789.241 244.478 789.235 249.009 792.121 249.009Z" fill="black"/>
<path d="M805.02 248.022C804.99 258.584 804.96 269.147 804.93 279.709C804.902 289.535 807.349 314.754 790.593 312.416C787.774 312.024 786.556 316.387 789.402 316.786C800.05 318.27 806.931 310.222 808.686 300.155C811.593 283.499 809.451 264.905 809.499 248.022C809.507 245.106 805.028 245.102 805.02 248.022Z" fill="black"/>
<path d="M788.427 318.578C800.35 323.528 814.009 328.836 826.85 323.882C836.673 320.092 842.229 311.182 844.301 301.068C847.83 283.839 845.302 264.307 845.473 246.742C845.501 243.826 841.023 243.824 840.995 246.742C840.871 259.377 840.794 272.017 840.929 284.654C841.05 296.035 840.403 309.617 830.222 316.804C817.654 325.674 802.295 319.47 789.619 314.209C786.954 313.103 785.794 317.485 788.427 318.578Z" fill="black"/>
<path d="M844.54 249.009C848.521 249.009 852.502 249.009 856.483 249.009C859.365 249.009 859.369 244.478 856.483 244.478C852.502 244.478 848.521 244.478 844.54 244.478C841.657 244.478 841.651 249.009 844.54 249.009Z" fill="black"/>
<path d="M1068.34 235.997C1068.47 267.102 1068.6 298.206 1068.72 329.311C1068.73 332.225 1073.21 332.231 1073.2 329.311C1073.07 298.206 1072.95 267.102 1072.82 235.997C1072.81 233.081 1068.33 233.075 1068.34 235.997Z" fill="black"/>
<path d="M1073.15 333.02C1080.1 317.4 1087.04 301.78 1093.99 286.161C1095.16 283.523 1091.31 281.217 1090.12 283.873C1083.17 299.493 1076.23 315.113 1069.28 330.733C1068.11 333.37 1071.96 335.678 1073.15 333.02Z" fill="black"/>
<path d="M1090.3 288.065C1093.08 294.376 1095.85 300.687 1098.62 306.998C1099.79 309.658 1103.65 307.354 1102.49 304.71C1099.71 298.399 1096.94 292.089 1094.17 285.778C1093 283.12 1089.14 285.422 1090.3 288.065Z" fill="black"/>
<path d="M1104.43 306.973C1109.94 292.447 1115.44 277.921 1120.94 263.394C1121.97 260.67 1117.64 259.49 1116.62 262.19C1111.12 276.716 1105.62 291.243 1100.11 305.769C1099.08 308.494 1103.41 309.672 1104.43 306.973Z" fill="black"/>
<path d="M1116.62 263.394C1121.05 274.195 1125.49 284.997 1129.93 295.796C1131.02 298.45 1135.35 297.286 1134.25 294.592C1129.81 283.79 1125.37 272.989 1120.94 262.19C1119.85 259.536 1115.51 260.7 1116.62 263.394Z" fill="black"/>
<path d="M1136.35 298.849C1145.89 282.76 1155.42 266.665 1164.85 250.513C1166.32 247.998 1162.45 245.715 1160.99 248.226C1151.55 264.377 1142.02 280.472 1132.48 296.561C1131 299.068 1134.87 301.349 1136.35 298.849Z" fill="black"/>
<path d="M1154.13 255.986C1158.77 252.629 1163.42 249.271 1168.06 245.914C1170.39 244.232 1168.15 240.302 1165.8 242.001C1161.16 245.358 1156.51 248.717 1151.87 252.074C1149.55 253.755 1151.78 257.688 1154.13 255.986Z" fill="black"/>
<path d="M1164.31 246.16C1163.61 251.077 1162.91 255.994 1162.21 260.912C1161.81 263.763 1166.12 264.995 1166.53 262.116C1167.23 257.198 1167.93 252.281 1168.63 247.364C1169.03 244.512 1164.72 243.282 1164.31 246.16Z" fill="black"/>
<path d="M1152.87 256.321C1155.97 258.785 1159.06 261.248 1162.16 263.713C1164.4 265.497 1167.59 262.311 1165.32 260.509C1162.23 258.044 1159.13 255.582 1156.04 253.117C1153.8 251.333 1150.61 254.516 1152.87 256.321Z" fill="black"/>
<path d="M981.892 187.116C964.298 188.525 955.456 207.063 959.815 223.247C964.562 240.874 982.469 250.251 999.621 245.137C1016.12 240.217 1025.26 222.099 1021.14 205.462C1016.65 187.321 997.842 177.877 980.468 181.514C977.648 182.104 978.842 186.471 981.659 185.883C995.525 182.982 1011.27 189.83 1016.06 204.05C1020.48 217.135 1015.22 232.535 1002.9 238.979C989.949 245.751 973.171 241.021 966.344 227.866C959.261 214.215 964.489 193.044 981.89 191.648C984.746 191.417 984.77 186.884 981.892 187.116Z" fill="black"/>
<path d="M983.211 213.436C986.093 213.436 986.097 208.905 983.211 208.905C980.331 208.905 980.325 213.436 983.211 213.436Z" fill="black"/>
<path d="M997.145 213.436C1000.03 213.436 1000.03 208.905 997.145 208.905C994.265 208.905 994.259 213.436 997.145 213.436Z" fill="black"/>
<path d="M977.182 223.156C980.88 235.397 996.58 237.423 1003.15 226.458C1004.65 223.959 1000.78 221.678 999.283 224.171C994.722 231.78 984.077 230.479 981.499 221.95C980.661 219.171 976.336 220.355 977.182 223.156Z" fill="black"/>
<path d="M715.025 210.971C705.747 212.938 694.636 206.801 686.272 213.204C681.347 216.974 680.123 224.493 684.761 228.917C686.857 230.916 690.03 227.719 687.928 225.713C684.245 222.199 687.518 217.014 691.35 215.562C694.206 214.479 697.56 214.7 700.532 215.004C705.898 215.552 710.859 216.476 716.217 215.341C719.034 214.741 717.841 210.373 715.025 210.971Z" fill="black"/>
<path d="M686.292 226.941C679.745 230.469 679.791 240.004 686.56 243.278C689.148 244.529 691.423 240.624 688.822 239.366C685.079 237.557 684.797 232.878 688.553 230.854C691.097 229.483 688.838 225.57 686.292 226.941Z" fill="black"/>
<path d="M687.414 241.089C680.527 245.193 681.3 253.908 687.613 258.338C691.989 261.409 697.522 261.348 702.608 261.326C710.272 261.296 717.943 261.044 725.604 260.903C728.483 260.851 728.493 256.32 725.604 256.373C719.376 256.488 713.148 256.6 706.92 256.715C704.208 256.765 701.469 256.937 698.758 256.786C696.83 256.792 694.927 256.524 693.05 255.986C687.574 254.544 686.449 250.884 689.672 245C692.156 243.522 689.905 239.605 687.414 241.089Z" fill="black"/>
<path d="M716.816 215.026C719.259 211.229 719.746 207.248 719.283 202.777C718.63 196.493 715.294 187.534 722.653 183.922C725.246 182.649 722.977 178.741 720.391 180.009C706.957 186.602 719.213 203.001 712.949 212.739C711.372 215.19 715.248 217.463 716.816 215.026Z" fill="black"/>
<path d="M722.292 185.102C729.545 181.274 729.398 202.741 729.486 205.238C729.669 210.456 729.802 215.675 729.886 220.896C730.015 229.033 733.401 250.207 726.936 256.26C724.816 258.245 727.989 261.443 730.103 259.464C735.4 254.504 734.392 247.269 734.444 240.475C734.534 228.727 734.376 216.98 733.964 205.238C733.7 197.693 734.239 173.693 720.031 181.191C717.475 182.54 719.736 186.451 722.292 185.102Z" fill="black"/>
<path d="M733.586 252.116C741.543 252.517 749.497 252.915 757.453 253.316C760.333 253.461 760.325 248.93 757.453 248.785C749.497 248.385 741.543 247.986 733.586 247.585C730.704 247.44 730.712 251.971 733.586 252.116Z" fill="black"/>
<path d="M734.158 218.597C741.045 217.558 747.976 217.523 754.871 218.502C757.69 218.903 758.908 214.537 756.062 214.132C748.299 213.031 740.721 213.057 732.968 214.227C730.127 214.656 731.333 219.022 734.158 218.597Z" fill="black"/>
<path d="M753.525 216.533C754.003 228.013 754.483 239.49 754.96 250.97C755.082 253.876 759.561 253.89 759.439 250.97C758.961 239.49 758.482 228.013 758.004 216.533C757.883 213.627 753.404 213.613 753.525 216.533Z" fill="black"/>
<path d="M743.376 228.556C746.258 228.556 746.262 224.025 743.376 224.025C740.494 224.025 740.49 228.556 743.376 228.556Z" fill="black"/>
<path d="M561.222 256.798C553.578 256.798 545.779 257.281 538.156 256.798C525.974 256.025 521.66 246.836 521.66 236.055C521.66 217.671 521.66 199.286 521.66 180.904C521.66 172.277 520.392 162.616 528.728 156.992C535.888 152.161 549.304 154.225 557.462 154.37C569.337 154.583 576.525 160.971 576.897 173.171C577.136 180.986 576.897 188.848 576.897 196.665C576.897 207.864 576.897 219.064 576.897 230.264C576.897 242.03 577.054 255.614 561.222 256.798C558.365 257.011 558.341 261.544 561.222 261.329C586.963 259.402 581.376 228.744 581.376 210.571C581.376 198.571 581.376 186.572 581.376 174.573C581.376 165.218 579.021 156.239 569.886 151.839C561.174 147.642 547.949 149.555 538.629 149.839C526.634 150.202 517.914 157.942 517.181 170.302C515.951 191.067 517.181 212.266 517.181 233.069C517.181 243.564 517.908 254.083 528.671 259.331C537.817 263.791 551.416 261.331 561.222 261.331C564.104 261.329 564.11 256.798 561.222 256.798Z" fill="black"/>
<path d="M527.821 174.253C527.562 192.599 527.301 210.945 527.042 229.292C527 232.207 531.479 232.209 531.521 229.292C531.78 210.945 532.04 192.599 532.299 174.253C532.341 171.337 527.862 171.335 527.821 174.253Z" fill="black"/>
<path d="M530.699 233.762C543.749 233.965 556.797 234.169 569.846 234.372C572.729 234.416 572.731 229.886 569.846 229.841C556.797 229.638 543.749 229.435 530.699 229.231C527.815 229.187 527.815 233.718 530.699 233.762Z" fill="black"/>
<path d="M570.862 231.978C570.754 212.288 570.647 192.599 570.541 172.91C570.525 169.996 566.047 169.99 566.063 172.91C566.17 192.599 566.277 212.288 566.383 231.978C566.399 234.892 570.878 234.898 570.862 231.978Z" fill="black"/>
<path d="M532.015 175.713C543.359 174.694 554.643 174.897 565.931 176.458C568.75 176.848 569.97 172.483 567.121 172.088C555.417 170.469 543.789 170.123 532.015 171.18C529.166 171.438 529.14 175.97 532.015 175.713Z" fill="black"/>
<path d="M543.972 165.109C546.846 165.109 549.722 165.109 552.596 165.109C555.479 165.109 555.483 160.578 552.596 160.578C549.722 160.578 546.846 160.578 543.972 160.578C541.089 160.578 541.083 165.109 543.972 165.109Z" fill="black"/>
<path d="M547.338 240.314C544.597 240.703 542.686 243.536 542.732 246.222C542.784 249.209 545.345 251.333 548.188 251.377C551.03 251.421 553.489 249.356 553.719 246.456C553.938 243.713 551.98 240.802 549.237 240.326C548.046 240.119 546.824 240.646 546.482 241.909C546.185 242.998 546.848 244.487 548.046 244.696C548.821 244.831 549.338 245.391 549.261 246.192C549.221 246.591 548.765 246.877 548.188 246.849C547.565 246.816 547.216 246.611 547.206 246.091C547.19 245.348 547.724 244.801 548.53 244.686C549.728 244.515 550.385 242.97 550.095 241.899C549.738 240.592 548.54 240.145 547.338 240.314Z" fill="black"/>
<path d="M541.31 204.56C545.956 204.351 550.6 204.141 555.246 203.932C558.116 203.803 558.132 199.27 555.246 199.401C550.6 199.611 545.956 199.82 541.31 200.029C538.44 200.158 538.424 204.691 541.31 204.56Z" fill="black"/>
<path d="M545.297 195.313C547.73 195.313 550.162 195.313 552.597 195.313C555.479 195.313 555.483 190.783 552.597 190.783C550.164 190.783 547.732 190.783 545.297 190.783C542.417 190.783 542.411 195.313 545.297 195.313Z" fill="black"/>
<path d="M544.635 214.777C547.509 214.777 550.385 214.777 553.26 214.777C556.142 214.777 556.146 210.246 553.26 210.246C550.385 210.246 547.509 210.246 544.635 210.246C541.752 210.246 541.748 214.777 544.635 214.777Z" fill="black"/>
<path d="M518.656 59.5357C518.873 77.2215 519.09 94.9093 519.307 112.595C519.343 115.509 523.822 115.517 523.786 112.595C523.569 94.9093 523.352 77.2215 523.135 59.5357C523.099 56.624 518.621 56.6159 518.656 59.5357Z" fill="black"/>
<path d="M521.369 114.19C547.949 114.933 574.532 115.039 601.117 114.514C603.996 114.457 604.006 109.927 601.117 109.983C574.532 110.509 547.949 110.4 521.369 109.659C518.487 109.578 518.489 114.109 521.369 114.19Z" fill="black"/>
<path d="M604.384 111.776C604.281 93.8642 604.179 75.9549 604.076 58.0435C604.06 55.1298 599.581 55.1237 599.597 58.0435C599.7 75.9549 599.802 93.8642 599.905 111.776C599.921 114.689 604.4 114.697 604.384 111.776Z" fill="black"/>
<path d="M523.346 60.7573C548.988 61.9493 574.805 61.021 600.443 60.0042C603.315 59.8894 603.329 55.3587 600.443 55.4735C574.805 56.4924 548.988 57.4186 523.346 56.2266C520.466 56.0937 520.472 60.6244 523.346 60.7573Z" fill="black"/>
<path d="M524.134 63.5262C535.849 72.8353 547.356 82.398 558.658 92.2145C560.834 94.1054 564.016 90.9137 561.825 89.0108C550.523 79.1943 539.014 69.6316 527.301 60.3225C525.06 58.5424 521.869 61.726 524.134 63.5262Z" fill="black"/>
<path d="M562.231 93.4108C574.871 83.3869 587.512 73.363 600.154 63.3391C602.421 61.5409 599.231 58.3553 596.987 60.1354C584.345 70.1593 571.706 80.1832 559.064 90.2071C556.799 92.0053 559.987 95.1909 562.231 93.4108Z" fill="black"/>
<path d="M519.327 69.4383C506.654 64.1727 494.43 58.025 482.592 51.0458C480.098 49.5738 477.841 53.4883 480.331 54.9583C492.505 62.1369 505.101 68.3912 518.135 73.8079C520.8 74.9154 521.961 70.5338 519.327 69.4383Z" fill="black"/>
<path d="M478.494 54.7126C473.559 67.03 482.553 79.8126 495.527 79.6918C498.407 79.6656 498.415 75.1349 495.527 75.1611C485.236 75.2577 479.015 65.3949 482.813 55.9167C483.894 53.2164 479.563 52.0405 478.494 54.7126Z" fill="black"/>
<path d="M492.76 75.461C488.855 79.8406 487.937 86.5642 491.454 91.5077C494.723 96.1008 500.879 97.8103 506.065 95.847C508.74 94.8342 507.581 90.4545 504.874 91.4774C496.984 94.4637 490.027 85.2795 495.927 78.6647C497.852 76.504 494.695 73.2903 492.76 75.461Z" fill="black"/>
<path d="M503.971 94.9874C506.58 102.051 514.118 106.143 521.372 104.037C524.136 103.233 522.962 98.8617 520.181 99.6671C515.426 101.048 510.053 98.5596 508.288 93.7812C507.291 91.0769 502.959 92.2489 503.971 94.9874Z" fill="black"/>
<path d="M606.331 73.8078C619.365 68.3911 631.961 62.1368 644.135 54.9581C646.623 53.4902 644.372 49.5737 641.874 51.0456C630.038 58.0249 617.814 64.1725 605.138 69.4382C602.511 70.5316 603.662 74.9173 606.331 73.8078Z" fill="black"/>
<path d="M641.655 55.917C645.456 65.4072 639.22 75.258 628.941 75.1613C626.059 75.1351 626.057 79.6658 628.941 79.692C641.915 79.8128 650.908 67.0302 645.974 54.7128C644.905 52.0467 640.572 53.2126 641.655 55.917Z" fill="black"/>
<path d="M628.541 78.6647C634.427 85.2674 627.494 94.4677 619.594 91.4775C616.891 90.4545 615.724 94.8322 618.403 95.8471C623.597 97.8124 629.737 96.0988 633.014 91.5077C636.537 86.5702 635.609 79.8366 631.708 75.461C629.773 73.2903 626.614 76.504 628.541 78.6647Z" fill="black"/>
<path d="M616.178 93.7833C614.412 98.5596 609.042 101.051 604.285 99.6692C601.51 98.8637 600.323 103.233 603.094 104.039C610.346 106.143 617.886 102.053 620.495 94.9895C621.507 92.2529 617.179 91.0729 616.178 93.7833Z" fill="black"/>
<path d="M1126.56 100.247C1116.8 89.2909 1106.42 77.7507 1102.62 63.1095C1098.56 47.4233 1105.07 24.1838 1124.8 24.4678C1142.84 24.7275 1150 45.4177 1147.06 60.4878C1144.14 75.4572 1134.23 87.5692 1124.89 99.0047C1123.06 101.236 1126.21 104.458 1128.05 102.208C1140.27 87.2531 1153.65 70.26 1152.21 49.6524C1151.2 35.0877 1140.39 20.0418 1124.8 19.9371C1109.47 19.8344 1098.18 34.097 1096.82 48.6133C1094.78 70.5137 1109.9 88.3082 1123.4 103.451C1125.33 105.622 1128.49 102.41 1126.56 100.247Z" fill="black"/>
<path d="M1124.86 34.2424C1116.38 34.2927 1108.3 40.5028 1107.41 49.3769C1106.56 57.8483 1112.76 66.2391 1121.02 67.8178C1129.24 69.3884 1138.11 63.6918 1140.26 55.5165C1142.54 46.8014 1137.16 38.3079 1129.29 35.072C1126.62 33.9745 1125.46 38.3562 1128.1 39.4416C1141.49 44.9448 1136.22 66.5029 1121.63 63.275C1107.01 60.0391 1110.39 38.8617 1124.86 38.7751C1127.74 38.7549 1127.74 34.2242 1124.86 34.2424Z" fill="black"/>
<path d="M1220.86 75.5638C1222.26 53.8366 1193.13 38.9135 1181.37 60.8582C1175.77 71.3271 1180.86 85.2132 1186.81 94.3753C1195.09 107.116 1207.42 116.741 1219.2 125.963C1221.45 127.727 1224.64 124.542 1222.36 122.76C1209.67 112.816 1195.19 102.021 1187.81 87.1725C1182.29 76.0491 1180.7 59.0278 1195.69 55.1918C1208.39 51.9418 1217.13 63.9351 1216.38 75.5638C1216.2 78.4735 1220.68 78.4635 1220.86 75.5638Z" fill="black"/>
<path d="M1220.67 77.2937C1223.2 67.3986 1228.3 56.3015 1239.35 54.1227C1254.42 51.1526 1258.82 66.2831 1255.04 77.9743C1249.41 95.3802 1233.77 111.632 1219.65 122.403C1217.38 124.137 1219.61 128.074 1221.91 126.316C1237.92 114.101 1270.33 83.1836 1259.35 59.487C1255.09 50.2988 1244.59 47.3025 1235.44 50.5183C1224.5 54.3643 1219.07 65.4635 1216.36 76.0875C1215.63 78.9146 1219.95 80.1188 1220.67 77.2937Z" fill="black"/>
<path d="M1266.37 -15.3421C1259.43 -16.806 1252.3 -15.5152 1246.62 -11.0611C1242.39 -7.73654 1238.94 -1.74192 1243.14 3.06867C1247.21 7.73226 1255.53 7.62352 1260.75 5.48504C1266.79 3.01631 1270.59 -2.87158 1270.13 -9.44209C1269.93 -12.3337 1265.45 -12.3558 1265.65 -9.44209C1266.25 -0.884115 1255.23 6.15759 1247.78 1.02885C1242.23 -2.79103 1249.4 -7.96609 1252.59 -9.53875C1256.55 -11.4839 1260.9 -11.8746 1265.18 -10.9725C1267.99 -10.3804 1269.2 -14.746 1266.37 -15.3421Z" fill="black"/>
<path d="M1300.01 -17.0233C1293.07 -18.4873 1285.94 -17.1965 1280.27 -12.7423C1276.03 -9.41782 1272.59 -3.42321 1276.78 1.38738C1280.85 6.05097 1289.17 5.94223 1294.4 3.80374C1300.43 1.33502 1304.23 -4.55286 1303.77 -11.1234C1303.57 -14.015 1299.09 -14.0371 1299.3 -11.1234C1299.89 -2.5654 1288.87 4.4763 1281.42 -0.652439C1275.87 -4.47231 1283.04 -9.64737 1286.24 -11.22C1290.19 -13.1652 1294.54 -13.5558 1298.82 -12.6537C1301.64 -12.0617 1302.84 -16.4293 1300.01 -17.0233Z" fill="black"/>
<path d="M1218.35 223.901C1217.52 210.301 1218.27 196.453 1217.25 182.941C1215.4 158.244 1182 165.431 1165.58 166.403C1162.72 166.572 1162.7 171.105 1165.58 170.934C1176.63 170.279 1188.17 169.337 1199.23 170.245C1213.23 171.393 1212.54 183.263 1212.58 194C1212.62 203.968 1213.27 213.955 1213.87 223.901C1214.04 226.798 1218.52 226.818 1218.35 223.901Z" fill="black"/>
<path d="M1166.46 166.651C1151.02 167.233 1149.46 188.16 1153.46 199.791C1155.58 205.951 1160.01 208.607 1166.2 209.596C1177.35 211.376 1189.73 209.948 1200.83 208.516C1203.65 208.154 1203.69 203.617 1200.83 203.986C1190.51 205.315 1179.9 206.138 1169.49 205.347C1161.74 204.757 1157.27 199.578 1156.69 192.089C1156.15 185.1 1155.52 171.592 1166.46 171.181C1169.34 171.073 1169.35 166.542 1166.46 166.651Z" fill="black"/>
<path d="M1197.99 208.424C1200.06 217.151 1206.87 224.021 1215.51 226.085C1218.31 226.756 1219.51 222.388 1216.7 221.716C1209.51 219.998 1204.03 214.483 1202.31 207.218C1201.63 204.384 1197.31 205.585 1197.99 208.424Z" fill="black"/>
<path d="M1172.98 191.286C1175.86 191.286 1175.86 186.755 1172.98 186.755C1170.09 186.755 1170.09 191.286 1172.98 191.286Z" fill="black"/>
<path d="M1183.59 191.286C1183.81 191.286 1184.03 191.286 1184.25 191.286C1187.14 191.286 1187.14 186.755 1184.25 186.755C1184.03 186.755 1183.81 186.755 1183.59 186.755C1180.71 186.755 1180.7 191.286 1183.59 191.286Z" fill="black"/>
<path d="M1194.87 191.286C1197.75 191.286 1197.76 186.755 1194.87 186.755C1191.99 186.755 1191.98 191.286 1194.87 191.286Z" fill="black"/>
<path d="M728.453 385.161C745.862 388.121 767.465 385.296 775.357 366.887C783.419 348.08 773.112 326.405 754.722 319.13C737.084 312.153 716.448 318.351 705.65 334.138C694.722 350.114 698.354 371.442 713.46 383.115C715.749 384.885 717.983 380.951 715.722 379.203C701.374 368.118 699.959 347.178 711.691 333.582C721.92 321.725 738.497 317.696 752.954 323.367C768.353 329.406 777.559 346.725 772.059 363.003C766.044 380.804 745.565 383.498 729.641 380.79C726.823 380.314 725.613 384.68 728.453 385.161Z" fill="black"/>
<path d="M1277.02 216.732C1277.94 193.533 1277.48 170.37 1275.62 147.229C1275.39 144.344 1270.91 144.318 1271.15 147.229C1273 170.37 1273.46 193.535 1272.54 216.732C1272.43 219.648 1276.9 219.644 1277.02 216.732Z" fill="black"/>
<path d="M1295.71 170.27C1291.82 163.454 1288 156.591 1284.04 149.815C1282.27 146.795 1280.42 142.52 1276.41 142.161C1271.95 141.765 1269.17 146.458 1266.87 149.481C1261.59 156.392 1256.32 163.305 1251.04 170.215C1249.28 172.521 1253.17 174.78 1254.91 172.503C1257.89 168.602 1272.15 145.142 1278.71 149.545C1281.02 151.1 1283.13 157.288 1284.55 159.773C1286.98 164.033 1289.41 168.294 1291.84 172.557C1293.28 175.08 1297.16 172.801 1295.71 170.27Z" fill="black"/>
<path d="M1053.26 31.1654C1042.27 20.4286 1018.58 31.3466 1020.34 47.2644C1021.04 53.6356 1026.63 55.7902 1032.19 56.7728C1035.77 57.4031 1039.8 57.1051 1043.21 58.3837C1050.63 61.1666 1058.9 68.8647 1051 76.875C1042.74 85.2558 1030.46 77.1066 1024.04 70.8844C1021.96 68.8668 1018.79 72.0644 1020.88 74.0881C1027.14 80.1673 1035.18 86.0914 1044.39 84.7624C1050.8 83.8382 1057.22 79.1585 1058.46 72.4611C1059.92 64.6482 1054.28 58.0354 1047.56 55.1257C1042.63 52.9932 1037.46 53.7765 1032.52 52.1938C1023.81 49.4009 1025.22 41.443 1030.4 36.4673C1036.07 31.0345 1043.76 28.1832 1050.09 34.3691C1052.16 36.3948 1055.33 33.1951 1053.26 31.1654Z" fill="black"/>
<path d="M1034.1 19.5707C1035.49 46.7529 1036.87 73.933 1038.26 101.115C1038.41 104.017 1042.89 104.035 1042.74 101.115C1041.35 73.933 1039.97 46.7529 1038.58 19.5707C1038.43 16.6691 1033.95 16.651 1034.1 19.5707Z" fill="black"/>
<path d="M882.827 196.838C888.212 208.329 893.596 219.821 898.98 231.315C899.725 232.906 902.04 232.67 902.848 231.315C909.689 219.823 916.531 208.329 923.372 196.838C924.863 194.333 920.991 192.053 919.505 194.55C912.663 206.042 905.822 217.536 898.98 229.028C900.27 229.028 901.558 229.028 902.848 229.028C897.464 217.536 892.079 206.044 886.695 194.55C885.461 191.918 881.597 194.214 882.827 196.838Z" fill="black"/>
<path d="M900.161 230.975C900.452 242.386 900.74 253.798 901.031 265.211C901.105 268.121 905.583 268.133 905.51 265.211C905.219 253.8 904.93 242.388 904.64 230.975C904.566 228.065 900.087 228.055 900.161 230.975Z" fill="black"/>
<path d="M888.661 247.332C898.614 247.332 908.567 247.332 918.519 247.332C921.402 247.332 921.406 242.801 918.519 242.801C908.567 242.801 898.614 242.801 888.661 242.801C885.781 242.801 885.775 247.332 888.661 247.332Z" fill="black"/>
<path d="M888.668 257.591C898.622 257.323 908.577 257.053 918.531 256.785C921.408 256.707 921.42 252.176 918.531 252.255C908.577 252.523 898.622 252.792 888.668 253.06C885.791 253.139 885.779 257.67 888.668 257.591Z" fill="black"/>
<path d="M648.973 164.927C646.587 153.117 632.896 154.428 627.948 163.999C624.516 170.636 624.856 179.329 624.643 186.564C624.293 198.386 624.825 210.17 625.997 221.933C626.114 223.115 626.929 224.249 628.236 224.199C636.089 223.895 643.94 223.591 651.792 223.287C654.664 223.176 654.678 218.643 651.792 218.756C643.94 219.06 636.089 219.364 628.236 219.668C628.983 220.423 629.729 221.178 630.476 221.933C629.488 212.03 628.929 202.111 629.011 192.156C629.05 187.206 629.1 182.184 629.558 177.253C629.683 174.661 630.034 172.098 630.613 169.565C631.758 162.591 636.437 161.448 644.656 166.133C645.231 168.985 649.551 167.777 648.973 164.927Z" fill="black"/>
<path d="M616.956 201.018C625.913 201.018 634.871 201.018 643.828 201.018C646.71 201.018 646.714 196.487 643.828 196.487C634.871 196.487 625.913 196.487 616.956 196.487C614.076 196.487 614.07 201.018 616.956 201.018Z" fill="black"/>
<path d="M844.813 32.5287C821.876 32.2649 813.713 59.2215 817.449 78.4115C819.073 86.752 824.006 94.9818 832.386 97.7606C840.358 100.404 848.569 96.5041 851.795 88.8341C852.912 86.1821 849.054 83.8705 847.928 86.5466C843.742 96.498 832.372 94.9072 826.546 88.0609C822.005 82.7267 821.058 75.4172 821.163 68.6212C821.39 54.0807 827.923 36.864 844.811 37.0573C847.695 37.0936 847.697 32.5629 844.813 32.5287Z" fill="black"/>
<path d="M809.041 65.0972C818.661 65.0972 828.283 65.0972 837.903 65.0972C840.786 65.0972 840.79 60.5665 837.903 60.5665C828.283 60.5665 818.661 60.5665 809.041 60.5665C806.161 60.5665 806.155 65.0972 809.041 65.0972Z" fill="black"/>
<path d="M810.036 76.1722C818.993 76.1722 827.951 76.1722 836.908 76.1722C839.79 76.1722 839.794 71.6415 836.908 71.6415C827.951 71.6415 818.993 71.6415 810.036 71.6415C807.156 71.6415 807.15 76.1722 810.036 76.1722Z" fill="black"/>
<path d="M1218.74 318.87C1216.4 307.129 1214.05 295.387 1211.71 283.644C1211.14 280.788 1206.82 281.996 1207.39 284.848C1209.73 296.589 1212.07 308.331 1214.42 320.074C1214.99 322.932 1219.31 321.723 1218.74 318.87Z" fill="black"/>
<path d="M1208.62 282.159C1218.34 283.867 1228.51 286.201 1238.37 284.244C1242.97 283.329 1251.66 280.708 1250.65 274.224C1249.78 268.604 1242.04 267.734 1237.76 267.138C1227.5 265.704 1217.39 267.103 1207.74 270.813C1205.07 271.837 1206.22 276.219 1208.93 275.182C1214.32 273.11 1219.74 271.67 1225.53 271.235C1229.42 270.943 1239.5 269.969 1242.52 272.655C1243.05 274.29 1243.58 275.925 1244.12 277.562C1242.35 278.501 1240.5 279.163 1238.56 279.552C1235.54 280.301 1232.42 280.48 1229.32 280.43C1222.76 280.321 1216.26 278.926 1209.82 277.794C1206.99 277.296 1205.78 281.66 1208.62 282.159Z" fill="black"/>
<path d="M1245.01 278.513C1242.07 291.881 1240.14 305.512 1238.26 319.067C1237.87 321.919 1242.18 323.151 1242.58 320.272C1244.46 306.716 1246.39 293.085 1249.33 279.717C1249.95 276.878 1245.63 275.663 1245.01 278.513Z" fill="black"/>
<path d="M1216.51 321.967C1224 326.876 1233.47 326.923 1241.02 322.116C1243.45 320.568 1241.21 316.645 1238.76 318.204C1232.48 322.197 1224.99 322.132 1218.77 318.055C1216.34 316.466 1214.09 320.386 1216.51 321.967Z" fill="black"/>
<path d="M1216.1 313.772C1211.01 313.409 1197.76 315.876 1200.05 324.039C1202.21 331.741 1223.66 332.46 1229.68 332.464C1235.82 332.468 1242.42 331.818 1248.3 329.832C1251.32 328.81 1258.09 327.12 1258.96 323.471C1260.53 316.877 1248.18 313.802 1243.76 313.232C1240.91 312.866 1240.93 317.398 1243.76 317.763C1245.4 317.974 1250.51 319.456 1251.95 321.001C1254.66 323.884 1253.76 321.268 1251.62 323.288C1247.53 327.144 1237.97 327.611 1232.79 327.863C1227.28 328.131 1221.75 327.642 1216.35 326.548C1214.57 326.188 1210.37 325.902 1208.97 324.539C1203.4 319.106 1211.77 317.99 1216.1 318.298C1218.97 318.508 1218.96 313.977 1216.1 313.772Z" fill="black"/>
<path d="M1154.68 -90.2051C1154.94 -56.1827 1156.94 -22.2025 1157.19 11.82C1157.22 14.7337 1161.69 14.7418 1161.67 11.82C1161.41 -22.2025 1159.42 -56.1827 1159.16 -90.2051C1159.13 -93.1189 1154.66 -93.1249 1154.68 -90.2051Z" fill="black"/>
<path d="M1159.11 15.3462C1160.71 15.7751 1162.4 16.2362 1164.07 16.0993C1165.78 15.9604 1167.35 15.2918 1168.92 14.6737C1171.58 13.6346 1170.43 9.25093 1167.73 10.3041C1166.57 10.7591 1165.32 11.3894 1164.07 11.5666C1162.81 11.7458 1161.5 11.2968 1160.3 10.9746C1157.51 10.2296 1156.32 14.5992 1159.11 15.3462Z" fill="black"/>
<path d="M1163.07 -90.2152C1164.24 -56.4243 1165.23 -22.6293 1166.24 11.1676C1166.32 14.0773 1170.8 14.0894 1170.72 11.1676C1169.71 -22.6273 1168.72 -56.4243 1167.55 -90.2152C1167.45 -93.1229 1162.97 -93.137 1163.07 -90.2152Z" fill="black"/>
<path d="M1345.05 305.099C1339.65 305.352 1334.25 305.606 1328.85 305.862C1326.39 305.977 1323.94 306.106 1321.49 306.208C1320.12 306.303 1318.76 306.355 1317.39 306.365C1314.33 306.764 1312.86 304.521 1313 299.638C1315.24 297.248 1322.13 297.457 1325.2 297.574C1327.74 297.67 1330.27 297.795 1332.81 297.904C1338.89 298.17 1344.97 298.434 1351.05 298.699C1353.94 298.824 1353.93 294.294 1351.05 294.169C1340.35 293.702 1328.76 291.879 1318.09 293.021C1312.92 293.575 1307.42 296.615 1307 302.439C1306.66 306.957 1309.8 309.865 1313.97 310.681C1323.52 312.543 1335.36 310.087 1345.05 309.629C1347.92 309.493 1347.93 304.962 1345.05 305.099Z" fill="black"/>
<path d="M1353.12 299.094C1358.43 299.136 1368.63 299.964 1366.63 308.085C1365.37 313.19 1360.24 314.748 1355.78 315.191C1350.83 315.685 1345.8 315.677 1340.83 315.499C1337.95 315.397 1337.95 319.927 1340.83 320.03C1348.84 320.314 1360.31 321.587 1366.75 315.781C1370.73 312.187 1372.87 306.307 1370.11 301.315C1366.71 295.188 1359.31 294.612 1353.12 294.561C1350.24 294.539 1350.24 299.07 1353.12 299.094Z" fill="black"/>
<path d="M1346.39 315.499C1336.81 315.421 1327.23 315.342 1317.65 315.264C1313.41 315.229 1308.39 315.946 1304.24 315.155C1298.32 315.707 1294.09 312.33 1291.54 305.026C1293.41 300.449 1296.87 298.949 1301.93 300.522C1304.69 301.374 1305.87 297.002 1303.12 296.152C1292.3 292.816 1281.63 304.374 1289.33 314.484C1293.33 319.728 1300.24 319.621 1306.15 319.702C1319.56 319.885 1332.97 319.921 1346.39 320.03C1349.27 320.054 1349.27 315.523 1346.39 315.499Z" fill="black"/>
<path d="M1629.45 -9.8045C1611.29 13.0966 1578.89 19.4497 1554.5 2.40421C1529.05 -15.3783 1523.42 -52.0124 1542.13 -76.8245C1560.28 -100.908 1595.09 -105.64 1618.89 -87.2753C1643.26 -68.476 1646.73 -33.944 1629.1 -9.34539C1627.41 -6.98138 1631.29 -4.71804 1632.97 -7.05789C1647.49 -27.3151 1649.1 -54.7087 1635.4 -75.9305C1621.88 -96.8763 1596.33 -107.241 1572.26 -101.639C1519.05 -89.2547 1510.72 -13.7915 1559.46 10.5977C1584.83 23.2897 1615.15 15.4123 1632.62 -6.6008C1634.41 -8.85205 1631.26 -12.0779 1629.45 -9.8045Z" fill="black"/>
<path d="M1583.32 -44.1628C1585.6 -26.7186 1585.46 -8.82138 1585.15 8.74965C1585.1 11.6654 1589.58 11.6674 1589.63 8.74965C1589.94 -8.81937 1590.08 -26.7186 1587.8 -44.1628C1587.43 -47.0101 1582.94 -47.0483 1583.32 -44.1628Z" fill="black"/>
<path d="M1543.19 -21.3323C1552.23 -5.38225 1567.77 4.70408 1585.8 6.68147C1588.66 6.9956 1588.64 2.46289 1585.8 2.15078C1569.39 0.350586 1555.25 -9.17796 1547.05 -23.6178C1545.62 -26.1469 1541.75 -23.8675 1543.19 -21.3323Z" fill="black"/>
<path d="M1511.26 151.923C1519.29 131.592 1527.32 111.26 1535.35 90.9282C1536.42 88.2199 1532.09 87.0439 1531.03 89.7241C1523 110.056 1514.97 130.388 1506.94 150.719C1505.87 153.426 1510.2 154.602 1511.26 151.923Z" fill="black"/>
<path d="M1510.69 156.275C1527.29 155.232 1543.87 155.212 1560.47 156.21C1563.35 156.383 1563.34 151.853 1560.47 151.68C1543.87 150.681 1527.29 150.701 1510.69 151.744C1507.83 151.923 1507.81 156.456 1510.69 156.275Z" fill="black"/>
<path d="M1532.29 92.0356C1540.85 112.198 1549.42 132.361 1557.98 152.523C1559.12 155.195 1562.98 152.89 1561.85 150.236C1553.28 130.073 1544.72 109.911 1536.15 89.7481C1535.02 87.078 1531.16 89.3836 1532.29 92.0356Z" fill="black"/>
<path d="M1551.76 121.333C1561.11 98.668 1570.46 76.0024 1579.81 53.3369C1580.92 50.6487 1576.58 49.4767 1575.49 52.1327C1566.14 74.7983 1556.79 97.4638 1547.44 120.129C1546.33 122.818 1550.66 123.989 1551.76 121.333Z" fill="black"/>
<path d="M1561.81 155.501C1581.76 154.986 1601.71 154.47 1621.66 153.955C1624.54 153.88 1624.55 149.35 1621.66 149.424C1601.71 149.94 1581.76 150.455 1561.81 150.971C1558.93 151.043 1558.92 155.576 1561.81 155.501Z" fill="black"/>
<path d="M1574.91 53.3796C1589.85 85.8536 1604.79 118.328 1619.73 150.8C1620.94 153.441 1624.8 151.142 1623.59 148.512C1608.66 116.038 1593.71 83.5641 1578.78 51.0921C1577.56 48.4522 1573.7 50.7498 1574.91 53.3796Z" fill="black"/>
<path d="M1490.6 44.7091C1490.07 85.6423 1491.85 126.674 1493.65 167.561C1493.78 170.465 1498.26 170.481 1498.13 167.561C1496.33 126.674 1494.55 85.6423 1495.08 44.7091C1495.12 41.7933 1490.64 41.7913 1490.6 44.7091Z" fill="black"/>
<path d="M1497.43 171.395C1540.56 170.634 1583.69 169.907 1626.83 169.146C1629.7 169.096 1629.71 164.565 1626.83 164.615C1583.69 165.376 1540.56 166.103 1497.43 166.864C1494.56 166.917 1494.55 171.447 1497.43 171.395Z" fill="black"/>
<path d="M1506.05 55.0286C1506.28 55.0286 1506.5 55.0286 1506.72 55.0286C1509.6 55.0286 1509.6 50.4979 1506.72 50.4979C1506.5 50.4979 1506.28 50.4979 1506.05 50.4979C1503.17 50.4979 1503.17 55.0286 1506.05 55.0286Z" fill="black"/>
<path d="M1523.31 54.3584C1526.19 54.3584 1526.19 49.8278 1523.31 49.8278C1520.42 49.8278 1520.42 54.3584 1523.31 54.3584Z" fill="black"/>
<path d="M1537.9 53.0154C1540.78 53.0154 1540.79 48.4847 1537.9 48.4847C1535.02 48.4847 1535.02 53.0154 1537.9 53.0154Z" fill="black"/>
<path d="M1555.15 53.0154C1558.04 53.0154 1558.04 48.4847 1555.15 48.4847C1552.27 48.4847 1552.27 53.0154 1555.15 53.0154Z" fill="black"/>
<path d="M1504.98 90.3521C1504.98 90.1286 1504.98 89.9051 1504.98 89.6816C1504.98 86.7659 1500.5 86.7618 1500.5 89.6816C1500.5 89.9051 1500.5 90.1286 1500.5 90.3521C1500.5 93.2659 1504.98 93.2719 1504.98 90.3521Z" fill="black"/>
<path d="M1518 91.9444C1520.88 91.9444 1520.88 87.4137 1518 87.4137C1515.11 87.4137 1515.11 91.9444 1518 91.9444Z" fill="black"/>
<path d="M1355.13 -59.9783C1354.8 -43.4061 1353.65 -26.6083 1354.2 -10.0421C1354.47 -1.69151 1356.57 4.83873 1365.54 6.22613C1381.54 8.69888 1398.98 7.05575 1415.11 6.85439C1431.93 6.64497 1448.73 6.45568 1465.54 7.20073C1468.42 7.32759 1468.41 2.7969 1465.54 2.67004C1439.68 1.52427 1413.82 2.71434 1387.96 2.46264C1382.44 2.40827 1373.64 3.95273 1368.57 1.92701C1364.66 0.366436 1359.26 -5.96042 1358.67 -10.0421C1358.29 -12.6799 1358.74 -15.7366 1358.8 -18.4047C1359.06 -32.2626 1359.34 -46.1205 1359.6 -59.9783C1359.66 -62.8941 1355.18 -62.8941 1355.13 -59.9783Z" fill="black"/>
<path d="M1464.96 6.97535C1475.39 6.23634 1475.48 -4.22654 1475.34 -12.5952C1475.06 -29.7897 1473.66 -46.9379 1471.74 -64.0176C1471.41 -66.881 1466.93 -66.9152 1467.26 -64.0176C1468.19 -55.7697 1477.23 1.57476 1464.96 2.44466C1462.1 2.64602 1462.08 7.17873 1464.96 6.97535Z" fill="black"/>
<path d="M1405.03 298.216C1416.91 287.415 1432.28 276.761 1448.98 277.172C1465.85 277.586 1480.67 288.132 1492.46 299.434C1494.55 301.44 1497.72 298.242 1495.62 296.231C1483.03 284.157 1467.01 272.883 1448.98 272.641C1430.97 272.399 1414.74 283.303 1401.86 295.012C1399.71 296.966 1402.89 300.161 1405.03 298.216Z" fill="black"/>
<path d="M1401.86 300.655C1414.74 312.366 1430.97 323.268 1448.98 323.026C1467.01 322.785 1483.03 311.508 1495.62 299.437C1497.72 297.427 1494.55 294.227 1492.46 296.233C1480.84 307.37 1465.72 318.435 1448.98 318.496C1432.13 318.556 1417.09 308.417 1405.03 297.451C1402.89 295.506 1399.71 298.7 1401.86 300.655Z" fill="black"/>
<path d="M1446.33 274.955C1434.99 274.568 1425.87 284.189 1426.36 295.657C1426.89 307.932 1437.57 319.042 1449.63 320.143C1461.06 321.186 1470.98 311.947 1471.96 300.542C1473.18 286.415 1462.55 275.805 1449.79 272.551C1447 271.838 1445.81 276.205 1448.6 276.92C1457.07 279.081 1464.68 284.481 1466.94 293.44C1469.48 303.516 1463.62 314.406 1452.98 315.538C1430.4 317.942 1421.44 278.636 1446.33 279.486C1449.21 279.584 1449.21 275.054 1446.33 274.955Z" fill="black"/>
<path d="M1453.09 290.496C1449.64 289.832 1445.85 291.183 1444.42 294.65C1443.1 297.856 1444.39 301.928 1447.7 303.238C1450.63 304.398 1454.53 302.995 1455.46 299.771C1456.45 296.309 1453.88 292.796 1450.38 292.619C1447.5 292.472 1447.51 297.002 1450.38 297.149C1451.04 297.183 1451.4 298.218 1451.04 298.704C1450.58 299.304 1449.45 299.239 1448.94 298.792C1448.22 298.172 1448.22 296.887 1448.67 296.122C1449.31 295.041 1450.74 294.638 1451.91 294.862C1454.72 295.407 1455.93 291.042 1453.09 290.496Z" fill="black"/>
<path d="M1425.35 280.975C1425.35 278.515 1425.35 276.054 1425.35 273.591C1425.35 270.676 1420.88 270.671 1420.88 273.591C1420.88 276.052 1420.88 278.513 1420.88 280.975C1420.88 283.891 1425.35 283.895 1425.35 280.975Z" fill="black"/>
<path d="M1436.64 276.278C1436.64 273.144 1436.64 270.013 1436.64 266.88C1436.64 263.964 1432.16 263.96 1432.16 266.88C1432.16 270.013 1432.16 273.144 1432.16 276.278C1432.16 279.193 1436.64 279.197 1436.64 276.278Z" fill="black"/>
<path d="M1449.16 276.88C1449.82 273.746 1450.49 270.615 1451.15 267.482C1451.76 264.639 1447.44 263.424 1446.83 266.278C1446.17 269.411 1445.51 272.542 1444.84 275.675C1444.24 278.519 1448.56 279.733 1449.16 276.88Z" fill="black"/>
<path d="M1463.76 279.564C1464.64 275.983 1465.53 272.403 1466.41 268.825C1467.11 265.996 1462.79 264.79 1462.09 267.621C1461.21 271.201 1460.32 274.781 1459.44 278.36C1458.74 281.189 1463.06 282.395 1463.76 279.564Z" fill="black"/>
<path d="M1475.48 282.79C1476.36 281 1477.25 279.209 1478.13 277.419C1478.67 276.326 1478.42 274.965 1477.33 274.32C1476.33 273.732 1474.81 274.034 1474.26 275.134C1473.38 276.924 1472.49 278.714 1471.61 280.504C1471.07 281.598 1471.32 282.959 1472.41 283.603C1473.41 284.191 1474.93 283.889 1475.48 282.79Z" fill="black"/>
<path d="M1422.51 314.736C1421.41 316.526 1420.3 318.317 1419.19 320.107C1417.66 322.585 1421.53 324.863 1423.06 322.394C1424.17 320.604 1425.27 318.814 1426.38 317.024C1427.91 314.543 1424.04 312.266 1422.51 314.736Z" fill="black"/>
<path d="M1432.9 320.646C1432.46 322.66 1432.02 324.674 1431.57 326.687C1430.95 329.528 1435.27 330.741 1435.89 327.891C1436.33 325.878 1436.78 323.864 1437.22 321.851C1437.84 319.011 1433.53 317.797 1432.9 320.646Z" fill="black"/>
<path d="M1447.42 321.921C1447.42 323.935 1447.42 325.948 1447.42 327.962C1447.42 330.878 1451.9 330.882 1451.9 327.962C1451.9 325.948 1451.9 323.935 1451.9 321.921C1451.9 319.005 1447.42 318.999 1447.42 321.921Z" fill="black"/>
<path d="M1462.54 320.565C1463.01 322.349 1463.47 324.134 1463.93 325.918C1464.66 328.735 1468.98 327.541 1468.25 324.713C1467.79 322.929 1467.33 321.145 1466.86 319.361C1466.13 316.542 1461.81 317.738 1462.54 320.565Z" fill="black"/>
<path d="M1472.71 317.392C1473.37 318.073 1474.02 318.755 1474.67 319.436C1476.68 321.534 1479.85 318.329 1477.84 316.232C1477.19 315.552 1476.53 314.869 1475.88 314.188C1473.87 312.09 1470.7 315.296 1472.71 317.392Z" fill="black"/>
<path d="M1607.87 246.774C1618.5 229.763 1627.68 211.861 1639.34 195.517C1641.03 193.149 1637.15 190.885 1635.47 193.229C1623.82 209.572 1614.63 227.475 1604 244.486C1602.46 246.959 1606.33 249.234 1607.87 246.774Z" fill="black"/>
<path d="M1637.7 196.046C1648.98 211.817 1659 228.339 1667.78 245.656C1669.1 248.252 1672.96 245.962 1671.65 243.369C1662.86 226.051 1652.84 209.527 1641.56 193.759C1639.89 191.419 1636.01 193.678 1637.7 196.046Z" fill="black"/>
<path d="M1606.24 249.009C1610.67 249.009 1615.09 249.009 1619.51 249.009C1622.4 249.009 1622.4 244.478 1619.51 244.478C1615.09 244.478 1610.67 244.478 1606.24 244.478C1603.36 244.478 1603.36 249.009 1606.24 249.009Z" fill="black"/>
<path d="M1619.14 248.022C1619.11 258.584 1619.08 269.147 1619.05 279.709C1619.02 289.535 1621.47 314.754 1604.71 312.416C1601.9 312.024 1600.68 316.387 1603.52 316.786C1614.17 318.27 1621.05 310.222 1622.81 300.155C1625.71 283.499 1623.57 264.905 1623.62 248.022C1623.63 245.106 1619.15 245.102 1619.14 248.022Z" fill="black"/>
<path d="M1602.55 318.578C1614.47 323.528 1628.13 328.836 1640.97 323.882C1650.79 320.092 1656.35 311.182 1658.42 301.068C1661.95 283.839 1659.42 264.307 1659.59 246.742C1659.62 243.826 1655.14 243.824 1655.12 246.742C1654.99 259.377 1654.92 272.017 1655.05 284.654C1655.17 296.035 1654.53 309.617 1644.34 316.804C1631.78 325.674 1616.42 319.47 1603.74 314.209C1601.08 313.103 1599.92 317.485 1602.55 318.578Z" fill="black"/>
<path d="M1658.66 249.009C1662.64 249.009 1666.62 249.009 1670.6 249.009C1673.49 249.009 1673.49 244.478 1670.6 244.478C1666.62 244.478 1662.64 244.478 1658.66 244.478C1655.78 244.478 1655.77 249.009 1658.66 249.009Z" fill="black"/>
<path d="M1529.15 210.971C1519.87 212.938 1508.76 206.801 1500.39 213.204C1495.47 216.974 1494.24 224.493 1498.88 228.917C1500.98 230.916 1504.15 227.719 1502.05 225.713C1498.37 222.199 1501.64 217.014 1505.47 215.562C1508.33 214.479 1511.68 214.7 1514.65 215.004C1520.02 215.552 1524.98 216.476 1530.34 215.341C1533.16 214.741 1531.96 210.373 1529.15 210.971Z" fill="black"/>
<path d="M1500.41 226.941C1493.87 230.469 1493.91 240.004 1500.68 243.278C1503.27 244.529 1505.54 240.624 1502.94 239.366C1499.2 237.557 1498.92 232.878 1502.67 230.854C1505.22 229.483 1502.96 225.57 1500.41 226.941Z" fill="black"/>
<path d="M1501.54 241.089C1494.65 245.193 1495.42 253.908 1501.73 258.338C1506.11 261.409 1511.64 261.348 1516.73 261.326C1524.39 261.296 1532.06 261.044 1539.73 260.903C1542.6 260.851 1542.61 256.32 1539.73 256.373C1533.5 256.488 1527.27 256.6 1521.04 256.715C1518.33 256.765 1515.59 256.937 1512.88 256.786C1510.95 256.792 1509.05 256.524 1507.17 255.986C1501.7 254.544 1500.57 250.884 1503.79 245C1506.28 243.522 1504.03 239.605 1501.54 241.089Z" fill="black"/>
<path d="M1530.94 215.026C1533.38 211.229 1533.87 207.248 1533.4 202.777C1532.75 196.493 1529.42 187.534 1536.77 183.922C1539.37 182.649 1537.1 178.741 1534.51 180.009C1521.08 186.602 1533.33 203.001 1527.07 212.739C1525.49 215.19 1529.37 217.463 1530.94 215.026Z" fill="black"/>
<path d="M1536.41 185.102C1543.67 181.274 1543.52 202.741 1543.61 205.238C1543.79 210.456 1543.92 215.675 1544.01 220.896C1544.14 229.033 1547.52 250.207 1541.06 256.26C1538.94 258.245 1542.11 261.443 1544.22 259.464C1549.52 254.504 1548.51 247.269 1548.57 240.475C1548.66 228.727 1548.5 216.98 1548.09 205.238C1547.82 197.693 1548.36 173.693 1534.15 181.191C1531.6 182.54 1533.86 186.451 1536.41 185.102Z" fill="black"/>
<path d="M1547.71 252.116C1555.66 252.517 1563.62 252.915 1571.57 253.316C1574.45 253.461 1574.45 248.93 1571.57 248.785C1563.62 248.385 1555.66 247.986 1547.71 247.585C1544.83 247.44 1544.83 251.971 1547.71 252.116Z" fill="black"/>
<path d="M1548.28 218.597C1555.17 217.558 1562.1 217.523 1568.99 218.502C1571.81 218.903 1573.03 214.537 1570.18 214.132C1562.42 213.031 1554.84 213.057 1547.09 214.227C1544.25 214.656 1545.45 219.022 1548.28 218.597Z" fill="black"/>
<path d="M1567.65 216.533C1568.12 228.013 1568.6 239.49 1569.08 250.97C1569.2 253.876 1573.68 253.89 1573.56 250.97C1573.08 239.49 1572.6 228.013 1572.13 216.533C1572 213.627 1567.53 213.613 1567.65 216.533Z" fill="black"/>
<path d="M1557.5 228.556C1560.38 228.556 1560.38 224.025 1557.5 224.025C1554.61 224.025 1554.61 228.556 1557.5 228.556Z" fill="black"/>
<path d="M1375.34 256.798C1367.7 256.798 1359.9 257.281 1352.27 256.798C1340.09 256.025 1335.78 246.836 1335.78 236.055C1335.78 217.671 1335.78 199.286 1335.78 180.904C1335.78 172.277 1334.51 162.616 1342.85 156.992C1350.01 152.161 1363.43 154.225 1371.58 154.37C1383.46 154.583 1390.65 160.971 1391.02 173.171C1391.26 180.986 1391.02 188.848 1391.02 196.665C1391.02 207.864 1391.02 219.064 1391.02 230.264C1391.02 242.03 1391.18 255.614 1375.34 256.798C1372.49 257.011 1372.46 261.544 1375.34 261.329C1401.08 259.402 1395.5 228.744 1395.5 210.571C1395.5 198.571 1395.5 186.572 1395.5 174.573C1395.5 165.218 1393.14 156.239 1384.01 151.839C1375.3 147.642 1362.07 149.555 1352.75 149.839C1340.76 150.202 1332.04 157.942 1331.3 170.302C1330.07 191.067 1331.3 212.266 1331.3 233.069C1331.3 243.564 1332.03 254.083 1342.79 259.331C1351.94 263.791 1365.54 261.331 1375.34 261.331C1378.23 261.329 1378.23 256.798 1375.34 256.798Z" fill="black"/>
<path d="M1341.94 174.253C1341.68 192.599 1341.42 210.945 1341.16 229.292C1341.12 232.207 1345.6 232.209 1345.64 229.292C1345.9 210.945 1346.16 192.599 1346.42 174.253C1346.46 171.337 1341.98 171.335 1341.94 174.253Z" fill="black"/>
<path d="M1344.82 233.762C1357.87 233.965 1370.92 234.169 1383.97 234.372C1386.85 234.416 1386.85 229.886 1383.97 229.841C1370.92 229.638 1357.87 229.435 1344.82 229.231C1341.94 229.187 1341.94 233.718 1344.82 233.762Z" fill="black"/>
<path d="M1384.98 231.978C1384.88 212.288 1384.77 192.599 1384.66 172.91C1384.65 169.996 1380.17 169.99 1380.18 172.91C1380.29 192.599 1380.4 212.288 1380.5 231.978C1380.52 234.892 1385 234.898 1384.98 231.978Z" fill="black"/>
<path d="M1346.14 175.713C1357.48 174.694 1368.76 174.897 1380.05 176.458C1382.87 176.848 1384.09 172.483 1381.24 172.088C1369.54 170.469 1357.91 170.123 1346.14 171.18C1343.29 171.438 1343.26 175.97 1346.14 175.713Z" fill="black"/>
<path d="M1358.09 165.109C1360.97 165.109 1363.84 165.109 1366.72 165.109C1369.6 165.109 1369.6 160.578 1366.72 160.578C1363.84 160.578 1360.97 160.578 1358.09 160.578C1355.21 160.578 1355.21 165.109 1358.09 165.109Z" fill="black"/>
<path d="M1361.46 240.314C1358.72 240.703 1356.81 243.536 1356.85 246.222C1356.9 249.209 1359.47 251.333 1362.31 251.377C1365.15 251.421 1367.61 249.356 1367.84 246.456C1368.06 243.713 1366.1 240.802 1363.36 240.326C1362.17 240.119 1360.95 240.646 1360.6 241.909C1360.31 242.998 1360.97 244.487 1362.17 244.696C1362.94 244.831 1363.46 245.391 1363.38 246.192C1363.34 246.591 1362.89 246.877 1362.31 246.849C1361.69 246.816 1361.34 246.611 1361.33 246.091C1361.31 245.348 1361.85 244.801 1362.65 244.686C1363.85 244.515 1364.51 242.97 1364.22 241.899C1363.86 240.592 1362.66 240.145 1361.46 240.314Z" fill="black"/>
<path d="M1355.43 204.56C1360.08 204.351 1364.72 204.141 1369.37 203.932C1372.24 203.803 1372.25 199.27 1369.37 199.401C1364.72 199.611 1360.08 199.82 1355.43 200.029C1352.56 200.158 1352.55 204.691 1355.43 204.56Z" fill="black"/>
<path d="M1359.42 195.313C1361.85 195.313 1364.28 195.313 1366.72 195.313C1369.6 195.313 1369.6 190.783 1366.72 190.783C1364.29 190.783 1361.85 190.783 1359.42 190.783C1356.54 190.783 1356.53 195.313 1359.42 195.313Z" fill="black"/>
<path d="M1358.76 214.777C1361.63 214.777 1364.51 214.777 1367.38 214.777C1370.26 214.777 1370.27 210.246 1367.38 210.246C1364.51 210.246 1361.63 210.246 1358.76 210.246C1355.87 210.246 1355.87 214.777 1358.76 214.777Z" fill="black"/>
<path d="M1332.78 59.5357C1333 77.2215 1333.21 94.9093 1333.43 112.595C1333.46 115.509 1337.94 115.517 1337.91 112.595C1337.69 94.9093 1337.47 77.2215 1337.26 59.5357C1337.22 56.624 1332.74 56.6159 1332.78 59.5357Z" fill="black"/>
<path d="M1335.49 114.19C1362.07 114.933 1388.65 115.039 1415.24 114.514C1418.12 114.457 1418.13 109.927 1415.24 109.983C1388.65 110.509 1362.07 110.4 1335.49 109.659C1332.61 109.578 1332.61 114.109 1335.49 114.19Z" fill="black"/>
<path d="M1418.51 111.776C1418.4 93.8642 1418.3 75.9549 1418.2 58.0435C1418.18 55.1298 1413.7 55.1237 1413.72 58.0435C1413.82 75.9549 1413.92 93.8642 1414.03 111.776C1414.04 114.689 1418.52 114.697 1418.51 111.776Z" fill="black"/>
<path d="M1337.47 60.7573C1363.11 61.9493 1388.93 61.021 1414.56 60.0042C1417.44 59.8894 1417.45 55.3587 1414.56 55.4735C1388.93 56.4924 1363.11 57.4186 1337.47 56.2266C1334.59 56.0937 1334.59 60.6244 1337.47 60.7573Z" fill="black"/>
<path d="M1338.26 63.5262C1349.97 72.8353 1361.48 82.398 1372.78 92.2145C1374.96 94.1054 1378.14 90.9137 1375.95 89.0108C1364.64 79.1943 1353.13 69.6316 1341.42 60.3225C1339.18 58.5424 1335.99 61.726 1338.26 63.5262Z" fill="black"/>
<path d="M1376.35 93.4108C1388.99 83.3869 1401.63 73.363 1414.28 63.3391C1416.54 61.5409 1413.35 58.3553 1411.11 60.1354C1398.47 70.1593 1385.83 80.1832 1373.19 90.2071C1370.92 92.0053 1374.11 95.1909 1376.35 93.4108Z" fill="black"/>
<path d="M1333.45 69.4383C1320.77 64.1727 1308.55 58.025 1296.71 51.0458C1294.22 49.5738 1291.96 53.4883 1294.45 54.9583C1306.63 62.1369 1319.22 68.3912 1332.26 73.8079C1334.92 74.9154 1336.08 70.5338 1333.45 69.4383Z" fill="black"/>
<path d="M1292.62 54.7126C1287.68 67.03 1296.67 79.8126 1309.65 79.6918C1312.53 79.6656 1312.54 75.1349 1309.65 75.1611C1299.36 75.2577 1293.14 65.3949 1296.93 55.9167C1298.02 53.2164 1293.68 52.0405 1292.62 54.7126Z" fill="black"/>
<path d="M1306.88 75.461C1302.98 79.8406 1302.06 86.5642 1305.58 91.5077C1308.84 96.1008 1315 97.8103 1320.19 95.847C1322.86 94.8342 1321.7 90.4545 1319 91.4774C1311.11 94.4637 1304.15 85.2795 1310.05 78.6647C1311.97 76.504 1308.82 73.2903 1306.88 75.461Z" fill="black"/>
<path d="M1318.09 94.9874C1320.7 102.051 1328.24 106.143 1335.49 104.037C1338.26 103.233 1337.08 98.8617 1334.3 99.6671C1329.55 101.048 1324.17 98.5596 1322.41 93.7812C1321.41 91.0769 1317.08 92.2489 1318.09 94.9874Z" fill="black"/>
<path d="M1420.45 73.8078C1433.49 68.3911 1446.08 62.1368 1458.26 54.9581C1460.74 53.4902 1458.49 49.5737 1455.99 51.0456C1444.16 58.0249 1431.94 64.1725 1419.26 69.4382C1416.63 70.5316 1417.78 74.9173 1420.45 73.8078Z" fill="black"/>
<path d="M1455.78 55.917C1459.58 65.4072 1453.34 75.258 1443.06 75.1613C1440.18 75.1351 1440.18 79.6658 1443.06 79.692C1456.04 79.8128 1465.03 67.0302 1460.1 54.7128C1459.03 52.0467 1454.69 53.2126 1455.78 55.917Z" fill="black"/>
<path d="M1442.66 78.6647C1448.55 85.2674 1441.62 94.4677 1433.71 91.4775C1431.01 90.4545 1429.85 94.8322 1432.52 95.8471C1437.72 97.8124 1443.86 96.0988 1447.13 91.5077C1450.66 86.5702 1449.73 79.8366 1445.83 75.461C1443.89 73.2903 1440.74 76.504 1442.66 78.6647Z" fill="black"/>
<path d="M1430.3 93.7833C1428.53 98.5596 1423.16 101.051 1418.4 99.6692C1415.63 98.8637 1414.44 103.233 1417.21 104.039C1424.46 106.143 1432.01 102.053 1434.61 94.9895C1435.63 92.2529 1431.3 91.0729 1430.3 93.7833Z" fill="black"/>
<path d="M1542.57 385.161C1559.98 388.121 1581.59 385.296 1589.48 366.887C1597.54 348.08 1587.23 326.405 1568.84 319.13C1551.21 312.153 1530.57 318.351 1519.77 334.138C1508.84 350.114 1512.48 371.442 1527.58 383.115C1529.87 384.885 1532.1 380.951 1529.84 379.203C1515.5 368.118 1514.08 347.178 1525.81 333.582C1536.04 321.725 1552.62 317.696 1567.08 323.367C1582.47 329.406 1591.68 346.725 1586.18 363.003C1580.17 380.804 1559.69 383.498 1543.76 380.79C1540.94 380.314 1539.73 384.68 1542.57 385.161Z" fill="black"/>
<path d="M1463.1 164.927C1460.71 153.117 1447.02 154.428 1442.07 163.999C1438.64 170.636 1438.98 179.329 1438.76 186.564C1438.41 198.386 1438.95 210.17 1440.12 221.933C1440.24 223.115 1441.05 224.249 1442.36 224.199C1450.21 223.895 1458.06 223.591 1465.91 223.287C1468.79 223.176 1468.8 218.643 1465.91 218.756C1458.06 219.06 1450.21 219.364 1442.36 219.668C1443.1 220.423 1443.85 221.178 1444.6 221.933C1443.61 212.03 1443.05 202.111 1443.13 192.156C1443.17 187.206 1443.22 182.184 1443.68 177.253C1443.8 174.661 1444.16 172.098 1444.73 169.565C1445.88 162.591 1450.56 161.448 1458.78 166.133C1459.35 168.985 1463.67 167.776 1463.1 164.927Z" fill="black"/>
<path d="M1431.08 201.018C1440.03 201.018 1448.99 201.018 1457.95 201.018C1460.83 201.018 1460.84 196.487 1457.95 196.487C1448.99 196.487 1440.03 196.487 1431.08 196.487C1428.2 196.487 1428.19 201.018 1431.08 201.018Z" fill="black"/>
<path d="M1658.93 32.5287C1636 32.2649 1627.83 59.2215 1631.57 78.4115C1633.19 86.752 1638.13 94.9818 1646.51 97.7606C1654.48 100.404 1662.69 96.5041 1665.92 88.8341C1667.03 86.1821 1663.18 83.8705 1662.05 86.5466C1657.86 96.498 1646.49 94.9072 1640.67 88.0609C1636.13 82.7267 1635.18 75.4172 1635.28 68.6212C1635.51 54.0807 1642.04 36.864 1658.93 37.0573C1661.82 37.0936 1661.82 32.5629 1658.93 32.5287Z" fill="black"/>
<path d="M1623.16 65.0972C1632.78 65.0972 1642.4 65.0972 1652.03 65.0972C1654.91 65.0972 1654.91 60.5665 1652.03 60.5665C1642.4 60.5665 1632.78 60.5665 1623.16 60.5665C1620.28 60.5665 1620.28 65.0972 1623.16 65.0972Z" fill="black"/>
<path d="M1624.16 76.1722C1633.12 76.1722 1642.07 76.1722 1651.03 76.1722C1653.91 76.1722 1653.92 71.6415 1651.03 71.6415C1642.07 71.6415 1633.12 71.6415 1624.16 71.6415C1621.28 71.6415 1621.27 76.1722 1624.16 76.1722Z" fill="black"/>
</g>
</g>
</svg>
