<svg width="242" height="105" viewBox="0 0 242 105" fill="none" xmlns="http://www.w3.org/2000/svg">
<rect x="0.510254" y="0.482422" width="241.472" height="104.144" fill="white"/>
<path d="M92.2979 36.7075V68.2942H107.17C114.104 68.2942 117.788 64.8209 117.827 59.3266C117.827 55.8138 116.157 53.1398 112.885 51.6818V51.6142C115.356 50.083 116.439 48.169 116.439 45.2192C116.439 40.7382 113.41 36.7075 106.826 36.7075H92.2979ZM123.057 36.7075V68.2942H126.781V55.6505L126.397 55.2677H133.918C138.099 55.2677 140.502 56.7652 142.031 59.9965L145.969 68.2999H150.144L145.337 58.4315C144.293 56.2079 142.691 54.8174 141.19 54.1925V54.1193C144.671 53.213 147.532 50.1562 147.532 46.0242C147.532 39.8037 142.691 36.7131 136.908 36.7131L123.057 36.7075ZM154.02 36.7075V68.2942H157.749V36.7075H154.02ZM176.029 36.7075L162.093 68.2942H166.167L169.512 60.6833L169.304 60.3005H186.647L186.438 60.6833L189.784 68.2942H193.857L179.961 36.7075H176.029ZM197.908 36.7075V68.2942H201.632V55.6505L201.248 55.2677H208.774C212.955 55.2677 215.358 56.7652 216.887 59.9965L220.82 68.2999H225L220.193 58.4315C219.15 56.2079 217.547 54.8174 216.047 54.1925V54.1193C219.528 53.213 222.388 50.1562 222.388 46.0242C222.388 39.8037 217.547 36.7131 211.764 36.7131L197.908 36.7075ZM95.6773 40.2203H106.436C110.476 40.2203 112.603 41.8528 112.603 45.1854C112.603 48.0002 110.961 50.2632 106.436 50.2632H95.6773L96.061 49.8804V40.6031L95.6773 40.2203ZM126.397 40.2203H136.948C140.846 40.2203 143.74 41.819 143.774 45.9848C143.774 49.3231 141.094 51.7212 136.53 51.7212H126.392L126.775 51.3384V40.6031C126.781 40.6031 126.397 40.2203 126.397 40.2203ZM201.282 40.2203H211.832C215.697 40.2203 218.625 41.819 218.625 45.9848C218.625 49.3231 215.979 51.7212 211.415 51.7212H201.276L201.66 51.3384V40.6031C201.665 40.6031 201.282 40.2203 201.282 40.2203ZM177.981 40.5637H178.054L178.991 43.7274L184.565 56.4105L184.949 56.7933H171.053L171.436 56.4105L177.01 43.7274L177.981 40.5637ZM95.6435 53.7759H107.142C111.807 53.7759 113.968 55.9264 113.968 59.2984C113.968 62.8112 112.016 64.7533 107.175 64.7533H95.6435L96.0271 64.3705V54.1531L95.6435 53.7759Z" fill="#2E2E2E"/>
<path d="M34.0529 23.0005C31.6533 23.0005 29.675 24.9744 29.675 27.3687V32.9215H40.4594V27.3687C40.4594 24.9744 38.5052 23.0005 36.1056 23.0005H34.0529ZM58.0464 23.0005C55.6468 23.0005 53.6686 24.9744 53.6686 27.3687V56.8621H64.4529V27.3687C64.4529 24.9744 62.4987 23.0005 60.0991 23.0005H58.0464ZM29.675 47.1376V76.631C29.675 79.0253 31.6293 80.9992 34.0529 80.9992H36.1056C38.5052 80.9992 40.4834 79.0253 40.4834 76.631V47.1376H29.675ZM53.6674 71.0782V76.631C53.6674 79.0253 55.6468 80.9992 58.0452 80.9992H60.0979C62.4975 80.9992 64.4757 79.0253 64.4757 76.631V71.0782C64.4769 71.0782 53.6674 71.0782 53.6674 71.0782Z" fill="#74B816"/>
<path d="M22.3778 34.6484C19.9783 34.6484 18 36.5984 18 39.0166V41.0648C18 43.4591 19.9542 45.433 22.3778 45.433H51.9364V34.6484H22.3778ZM66.1839 34.6484V45.4342H71.749C74.1486 45.4342 76.1268 43.4842 76.1268 41.066V39.0178C76.1268 36.5996 74.1486 34.6496 71.749 34.6496H66.1839V34.6484ZM22.3778 58.5891C19.9783 58.5891 18 60.539 18 62.9573V65.0054C18 67.3997 19.9542 69.3736 22.3778 69.3736H27.9429V58.5891H22.3778ZM42.1904 58.5891V69.3748H71.749C74.1486 69.3748 76.1268 67.3997 76.1268 65.0066V62.9585C76.1268 60.5402 74.1486 58.5903 71.749 58.5903L42.1904 58.5891Z" fill="#82C91E"/>
</svg>
