<svg width="494" height="231" viewBox="0 0 494 231" fill="none" xmlns="http://www.w3.org/2000/svg">
<path opacity="0.5" d="M159.681 18.0166L159.681 227.9H178.791V18.0166H159.681Z" fill="#FCA429"/>
<path d="M228.134 112.154V168.264H254.494C266.784 168.264 273.314 162.094 273.384 152.334C273.384 146.094 270.424 141.344 264.624 138.754V138.634C269.004 135.914 270.924 132.514 270.924 127.274C270.924 119.314 265.554 112.154 253.884 112.154H228.134ZM282.654 112.154V168.264H289.254V145.804L288.574 145.124H301.904C309.314 145.124 313.574 147.784 316.284 153.524L323.264 168.274H330.664L322.144 150.744C320.294 146.794 317.454 144.324 314.794 143.214V143.084C320.964 141.474 326.034 136.044 326.034 128.704C326.034 117.654 317.454 112.164 307.204 112.164L282.654 112.154ZM337.534 112.154V168.264H344.144V112.154H337.534ZM376.544 112.154L351.844 168.264H359.064L364.994 154.744L364.624 154.064H395.364L394.994 154.744L400.924 168.264H408.144L383.514 112.154H376.544ZM415.324 112.154V168.264H421.924V145.804L421.244 145.124H434.584C441.994 145.124 446.254 147.784 448.964 153.524L455.934 168.274H463.344L454.824 150.744C452.974 146.794 450.134 144.324 447.474 143.214V143.084C453.644 141.474 458.714 136.044 458.714 128.704C458.714 117.654 450.134 112.164 439.884 112.164L415.324 112.154ZM234.124 118.394H253.194C260.354 118.394 264.124 121.294 264.124 127.214C264.124 132.214 261.214 136.234 253.194 136.234H234.124L234.804 135.554V119.074L234.124 118.394ZM288.574 118.394H307.274C314.184 118.394 319.314 121.234 319.374 128.634C319.374 134.564 314.624 138.824 306.534 138.824H288.564L289.244 138.144V119.074C289.254 119.074 288.574 118.394 288.574 118.394ZM421.304 118.394H440.004C446.854 118.394 452.044 121.234 452.044 128.634C452.044 134.564 447.354 138.824 439.264 138.824H421.294L421.974 138.144V119.074C421.984 119.074 421.304 118.394 421.304 118.394ZM380.004 119.004H380.134L381.794 124.624L391.674 147.154L392.354 147.834H367.724L368.404 147.154L378.284 124.624L380.004 119.004ZM234.064 142.474H254.444C262.714 142.474 266.544 146.294 266.544 152.284C266.544 158.524 263.084 161.974 254.504 161.974H234.064L234.744 161.294V143.144L234.064 142.474Z" fill="#2E2E2E"/>
<path d="M124.898 87.8057C120.644 87.8057 117.138 91.312 117.138 95.5652V105.429H136.253V95.5652C136.253 91.312 132.789 87.8057 128.536 87.8057H124.898ZM167.425 87.8057C163.172 87.8057 159.666 91.312 159.666 95.5652V147.957H178.78V95.5652C178.78 91.312 175.317 87.8057 171.063 87.8057H167.425ZM117.138 130.682V183.074C117.138 187.327 120.602 190.833 124.898 190.833H128.536C132.789 190.833 136.295 187.327 136.295 183.074V130.682H117.138ZM159.663 173.21V183.074C159.663 187.327 163.172 190.833 167.423 190.833H171.061C175.315 190.833 178.821 187.327 178.821 183.074V173.21C178.823 173.21 159.663 173.21 159.663 173.21Z" fill="#74B816"/>
<path d="M104.204 108.497C99.9507 108.497 96.4443 111.961 96.4443 116.257V119.895C96.4443 124.148 99.9082 127.655 104.204 127.655H156.595V108.497H104.204ZM181.849 108.497V127.657H191.712C195.966 127.657 199.472 124.193 199.472 119.897V116.259C199.472 111.963 195.966 108.499 191.712 108.499H181.849V108.497ZM104.204 151.025C99.9507 151.025 96.4443 154.489 96.4443 158.784V162.423C96.4443 166.676 99.9082 170.182 104.204 170.182H114.068V151.025H104.204ZM139.321 151.025V170.184H191.712C195.966 170.184 199.472 166.676 199.472 162.425V158.786C199.472 154.491 195.966 151.027 191.712 151.027L139.321 151.025Z" fill="#82C91E"/>
<path d="M159.444 22.4814V18.4814H178.444V22.4814" stroke="#C26700" stroke-width="2"/>
<path d="M166.351 3.75417H164.806L167.579 8.11781L164.806 12.4814H166.351L168.442 9.09508L170.533 12.4814H172.079L169.26 8.11781L172.079 3.75417H170.533L168.442 7.32235L166.351 3.75417Z" fill="#1F1F1F"/>
<path opacity="0.5" d="M24.9507 87.5693L492.009 87.5693L492.009 49.3493L24.9507 49.3493L24.9507 87.5693Z" fill="#FCA429"/>
<path d="M28.9507 87.8057L24.9507 87.8057L24.9507 49.3489L28.9507 49.3489" stroke="#C26700" stroke-width="2"/>
<path d="M0.263031 73.5771H7.60394V72.3271H2.19485V72.2362L4.80849 69.4408C6.80849 67.2987 7.39939 66.2987 7.39939 65.009C7.39939 63.2135 5.94485 61.7817 3.89939 61.7817C1.85962 61.7817 0.308485 63.1681 0.308485 65.2135H1.64939C1.64939 63.8896 2.50735 63.009 3.85394 63.009C5.1153 63.009 6.08121 63.7817 6.08121 65.009C6.08121 66.0828 5.45053 66.8783 4.10394 68.3499L0.263031 72.5544V73.5771ZM10.9733 64.8499H9.4278L12.2005 69.2135L9.4278 73.5771H10.9733L13.0642 70.1908L15.1551 73.5771H16.7005L13.8823 69.2135L16.7005 64.8499H15.1551L13.0642 68.4181L10.9733 64.8499Z" fill="#1F1F1F"/>
<path opacity="0.5" d="M24.9507 229.054L492.009 229.054L492.009 190.834L24.9507 190.834L24.9507 229.054Z" fill="#FCA429"/>
<path d="M28.9507 229.29L24.9507 229.29L24.9507 190.833L28.9507 190.833" stroke="#C26700" stroke-width="2"/>
<path d="M0.263031 215.062H7.60394V213.812H2.19485V213.721L4.80849 210.925C6.80849 208.783 7.39939 207.783 7.39939 206.493C7.39939 204.698 5.94485 203.266 3.89939 203.266C1.85962 203.266 0.308485 204.652 0.308485 206.698H1.64939C1.64939 205.374 2.50735 204.493 3.85394 204.493C5.1153 204.493 6.08121 205.266 6.08121 206.493C6.08121 207.567 5.45053 208.363 4.10394 209.834L0.263031 214.039V215.062ZM10.9733 206.334H9.4278L12.2005 210.698L9.4278 215.062H10.9733L13.0642 211.675L15.1551 215.062H16.7005L13.8823 210.698L16.7005 206.334H15.1551L13.0642 209.902L10.9733 206.334Z" fill="#1F1F1F"/>
<path opacity="0.5" d="M58.2236 18.5596L58.2236 228.29L96.4436 228.29L96.4436 18.5596L58.2236 18.5596Z" fill="#FCA429"/>
<path d="M57.9873 22.4814L57.9873 18.4814L96.4441 18.4814V22.4814" stroke="#C26700" stroke-width="2"/>
<path d="M69.7562 12.4814L77.0971 12.4814V11.2314L71.688 11.2314V11.1405L74.3016 8.34508C76.3016 6.20304 76.8926 5.20304 76.8926 3.91326C76.8926 2.11781 75.438 0.68599 73.3926 0.68599C71.3528 0.68599 69.8016 2.07235 69.8016 4.11781L71.1426 4.11781C71.1426 2.79395 72.0005 1.91326 73.3471 1.91326C74.6085 1.91326 75.5744 2.68599 75.5744 3.91326C75.5744 4.98713 74.9437 5.78258 73.5971 7.25417L69.7562 11.4587V12.4814ZM80.4664 3.75417L78.921 3.75417L81.6937 8.11781L78.921 12.4814L80.4664 12.4814L82.5573 9.09508L84.6482 12.4814L86.1937 12.4814L83.3755 8.11781L86.1937 3.75417L84.6482 3.75417L82.5573 7.32235L80.4664 3.75417Z" fill="#1F1F1F"/>
<path opacity="0.5" d="M199.444 18.0166L199.444 227.9H228.109V18.0166H199.444Z" fill="#FCA429"/>
<path d="M199.444 22.4814V18.4814H228.109V22.4814" stroke="#C26700" stroke-width="2"/>
<path d="M204.307 0.845081H202.897L199.988 2.7769V4.20872L202.829 2.32235H202.897V12.4814H204.307V0.845081ZM208.653 12.5724C209.216 12.5724 209.676 12.1121 209.676 11.5496C209.676 10.9871 209.216 10.5269 208.653 10.5269C208.091 10.5269 207.63 10.9871 207.63 11.5496C207.63 12.1121 208.091 12.5724 208.653 12.5724ZM215.696 12.6405C217.912 12.6405 219.537 11.0042 219.537 8.7769C219.537 6.52122 217.968 4.86781 215.832 4.86781C215.048 4.86781 214.287 5.14622 213.809 5.5269H213.741L214.15 2.09508H219.014V0.845081H212.968L212.264 6.57235L213.582 6.73145C214.065 6.38485 214.889 6.13485 215.605 6.14054C217.088 6.1519 218.173 7.2769 218.173 8.79963C218.173 10.2939 217.128 11.3905 215.696 11.3905C214.503 11.3905 213.554 10.6235 213.446 9.57235H212.082C212.167 11.3451 213.696 12.6405 215.696 12.6405ZM222.816 3.75417H221.271L224.044 8.11781L221.271 12.4814H222.816L224.907 9.09508L226.998 12.4814H228.544L225.726 8.11781L228.544 3.75417H226.998L224.907 7.32235L222.816 3.75417Z" fill="#1F1F1F"/>
<rect x="57.7236" y="48.8496" width="434.786" height="180.941" stroke="black"/>
</svg>
