<?xml version="1.0" encoding="UTF-8" standalone="no"?>
<svg
   xmlns:dc="http://purl.org/dc/elements/1.1/"
   xmlns:cc="http://creativecommons.org/ns#"
   xmlns:rdf="http://www.w3.org/1999/02/22-rdf-syntax-ns#"
   xmlns:svg="http://www.w3.org/2000/svg"
   xmlns="http://www.w3.org/2000/svg"
   xmlns:sodipodi="http://sodipodi.sourceforge.net/DTD/sodipodi-0.dtd"
   xmlns:inkscape="http://www.inkscape.org/namespaces/inkscape"
   width="236.51219"
   height="66.267632"
   viewBox="0 0 236.51219 66.267632"
   version="1.1"
   id="svg10"
   sodipodi:docname="briar_horizontal_color_bg.svg"
   style="fill:none"
   inkscape:export-filename="/home/anxhelo/briar-styleguide/static/images/briar_horizontal_color_bg.png"
   inkscape:export-xdpi="284.13"
   inkscape:export-ydpi="284.13"
   inkscape:version="0.92.4 (unknown)">
  <metadata
     id="metadata16">
    <rdf:RDF>
      <cc:Work
         rdf:about="">
        <dc:format>image/svg+xml</dc:format>
        <dc:type
           rdf:resource="http://purl.org/dc/dcmitype/StillImage" />
        <dc:title></dc:title>
      </cc:Work>
    </rdf:RDF>
  </metadata>
  <defs
     id="defs14" />
  <sodipodi:namedview
     pagecolor="#ffffff"
     bordercolor="#666666"
     borderopacity="1"
     objecttolerance="10"
     gridtolerance="10"
     guidetolerance="10"
     inkscape:pageopacity="0"
     inkscape:pageshadow="2"
     inkscape:window-width="1366"
     inkscape:window-height="717"
     id="namedview12"
     showgrid="false"
     inkscape:zoom="1.437589"
     inkscape:cx="124.4339"
     inkscape:cy="69.533399"
     inkscape:window-x="0"
     inkscape:window-y="0"
     inkscape:window-maximized="1"
     inkscape:current-layer="svg10"
     inkscape:snap-page="true" />
  <rect
     style="opacity:1;fill:#2e3d4f;fill-opacity:1;stroke:none;stroke-width:1;stroke-linecap:square;stroke-linejoin:miter;stroke-miterlimit:4;stroke-dasharray:none;stroke-opacity:1;paint-order:markers stroke fill"
     id="rect919"
     width="236.51219"
     height="66.267632"
     x="0"
     y="0" />
  <g
     id="g826"
     transform="matrix(1.142571,0,0,1.142571,-20.566278,-26.279704)">
    <path
       id="path4"
       d="M 92.2979,36.7075 V 68.2942 H 107.17 c 6.934,0 10.618,-3.4733 10.657,-8.9676 0,-3.5128 -1.67,-6.1868 -4.942,-7.6448 v -0.0676 c 2.471,-1.5312 3.554,-3.4452 3.554,-6.395 0,-4.481 -3.029,-8.5117 -9.613,-8.5117 z m 30.7591,0 v 31.5867 h 3.724 V 55.6505 l -0.384,-0.3828 h 7.521 c 4.181,0 6.584,1.4975 8.113,4.7288 l 3.938,8.3034 h 4.175 l -4.807,-9.8684 c -1.044,-2.2236 -2.646,-3.6141 -4.147,-4.239 v -0.0732 c 3.481,-0.9063 6.342,-3.9631 6.342,-8.0951 0,-6.2205 -4.841,-9.3111 -10.624,-9.3111 z m 30.963,0 v 31.5867 h 3.729 V 36.7075 Z m 22.009,0 -13.936,31.5867 h 4.074 l 3.345,-7.6109 -0.208,-0.3828 h 17.343 l -0.209,0.3828 3.346,7.6109 h 4.073 L 179.961,36.7075 Z m 21.879,0 v 31.5867 h 3.724 V 55.6505 l -0.384,-0.3828 h 7.526 c 4.181,0 6.584,1.4975 8.113,4.7288 l 3.933,8.3034 H 225 l -4.807,-9.8684 c -1.043,-2.2236 -2.646,-3.6141 -4.146,-4.239 v -0.0732 c 3.481,-0.9063 6.341,-3.9631 6.341,-8.0951 0,-6.2205 -4.841,-9.3111 -10.624,-9.3111 z M 95.6773,40.2203 h 10.7587 c 4.04,0 6.167,1.6325 6.167,4.9651 0,2.8148 -1.642,5.0778 -6.167,5.0778 H 95.6773 l 0.3837,-0.3828 v -9.2773 z m 30.7197,0 h 10.551 c 3.898,0 6.792,1.5987 6.826,5.7645 0,3.3383 -2.68,5.7364 -7.244,5.7364 h -10.138 l 0.383,-0.3828 V 40.6031 c 0.006,0 -0.378,-0.3828 -0.378,-0.3828 z m 74.885,0 h 10.55 c 3.865,0 6.793,1.5987 6.793,5.7645 0,3.3383 -2.646,5.7364 -7.21,5.7364 h -10.139 l 0.384,-0.3828 V 40.6031 c 0.005,0 -0.378,-0.3828 -0.378,-0.3828 z m -23.301,0.3434 h 0.073 l 0.937,3.1637 5.574,12.6831 0.384,0.3828 h -13.896 l 0.383,-0.3828 5.574,-12.6831 z M 95.6435,53.7759 h 11.4985 c 4.665,0 6.826,2.1505 6.826,5.5225 0,3.5128 -1.952,5.4549 -6.793,5.4549 H 95.6435 l 0.3836,-0.3828 V 54.1531 Z"
       inkscape:connector-curvature="0"
       style="fill:#ffffff" />
    <path
       id="path6"
       d="m 34.0529,23.0005 c -2.3996,0 -4.3779,1.9739 -4.3779,4.3682 v 5.5528 h 10.7844 v -5.5528 c 0,-2.3943 -1.9542,-4.3682 -4.3538,-4.3682 z m 23.9935,0 c -2.3996,0 -4.3778,1.9739 -4.3778,4.3682 V 56.8621 H 64.4529 V 27.3687 c 0,-2.3943 -1.9542,-4.3682 -4.3538,-4.3682 z M 29.675,47.1376 V 76.631 c 0,2.3943 1.9543,4.3682 4.3779,4.3682 h 2.0527 c 2.3996,0 4.3778,-1.9739 4.3778,-4.3682 V 47.1376 Z m 23.9924,23.9406 v 5.5528 c 0,2.3943 1.9794,4.3682 4.3778,4.3682 h 2.0527 c 2.3996,0 4.3778,-1.9739 4.3778,-4.3682 v -5.5528 c 0.0012,0 -10.8083,0 -10.8083,0 z"
       inkscape:connector-curvature="0"
       style="fill:#74b816" />
    <path
       id="path8"
       d="m 22.3778,34.6484 c -2.3995,0 -4.3778,1.95 -4.3778,4.3682 v 2.0482 c 0,2.3943 1.9542,4.3682 4.3778,4.3682 H 51.9364 V 34.6484 Z m 43.8061,0 v 10.7858 h 5.5651 c 2.3996,0 4.3778,-1.95 4.3778,-4.3682 v -2.0482 c 0,-2.4182 -1.9782,-4.3682 -4.3778,-4.3682 H 66.1839 Z M 22.3778,58.5891 C 19.9783,58.5891 18,60.539 18,62.9573 v 2.0481 c 0,2.3943 1.9542,4.3682 4.3778,4.3682 h 5.5651 V 58.5891 Z m 19.8126,0 V 69.3748 H 71.749 c 2.3996,0 4.3778,-1.9751 4.3778,-4.3682 v -2.0481 c 0,-2.4183 -1.9782,-4.3682 -4.3778,-4.3682 z"
       inkscape:connector-curvature="0"
       style="fill:#82c91e" />
  </g>
</svg>
