<svg width="160" height="160" viewBox="0 0 160 160" fill="none" xmlns="http://www.w3.org/2000/svg">
<path d="M43.9187 0C37.3537 0 31.9415 5.41225 31.9415 11.9772V27.2025H61.4461V11.9772C61.4461 5.41225 56.0996 0 49.5346 0H43.9187ZM109.562 0C102.997 0 97.5848 5.41225 97.5848 11.9772V92.8458H127.089V11.9772C127.089 5.41225 121.743 0 115.178 0H109.562ZM31.9415 66.1819V147.05C31.9415 153.615 37.288 159.028 43.9187 159.028H49.5346C56.0996 159.028 61.5118 153.615 61.5118 147.05V66.1819H31.9415ZM97.5815 131.825V147.05C97.5815 153.615 102.997 159.028 109.559 159.028H115.175C121.74 159.028 127.152 153.615 127.152 147.05V131.825C127.155 131.825 97.5815 131.825 97.5815 131.825Z" fill="#74B816"/>
<path d="M11.9772 31.9384C5.41225 31.9384 0 37.2849 0 43.9156V49.5315C0 56.0964 5.34657 61.5087 11.9772 61.5087H92.8458V31.9384H11.9772ZM131.825 31.9384V61.512H147.05C153.615 61.512 159.028 56.1654 159.028 49.5347V43.9189C159.028 37.2882 153.615 31.9416 147.05 31.9416H131.825V31.9384ZM11.9772 97.5816C5.41225 97.5816 0 102.928 0 109.559V115.175C0 121.74 5.34657 127.152 11.9772 127.152H27.2025V97.5816H11.9772ZM66.1819 97.5816V127.155H147.05C153.615 127.155 159.028 121.74 159.028 115.178V109.562C159.028 102.931 153.615 97.5849 147.05 97.5849L66.1819 97.5816Z" fill="#82C91E"/>
</svg>
