<svg width="367" height="104" viewBox="0 0 367 104" fill="none" xmlns="http://www.w3.org/2000/svg">
<path d="M131.69 24.35V80.46H158.05C170.34 80.46 176.87 74.29 176.94 64.53C176.94 58.29 173.98 53.54 168.18 50.95V50.83C172.56 48.11 174.48 44.71 174.48 39.47C174.48 31.51 169.11 24.35 157.44 24.35H131.69ZM186.21 24.35V80.46H192.81V58L192.13 57.32H205.46C212.87 57.32 217.13 59.98 219.84 65.72L226.82 80.47H234.22L225.7 62.94C223.85 58.99 221.01 56.52 218.35 55.41V55.28C224.52 53.67 229.59 48.24 229.59 40.9C229.59 29.85 221.01 24.36 210.76 24.36L186.21 24.35ZM241.09 24.35V80.46H247.7V24.35H241.09ZM280.1 24.35L255.4 80.46H262.62L268.55 66.94L268.18 66.26H298.92L298.55 66.94L304.48 80.46H311.7L287.07 24.35H280.1ZM318.88 24.35V80.46H325.48V58L324.8 57.32H338.14C345.55 57.32 349.81 59.98 352.52 65.72L359.49 80.47H366.9L358.38 62.94C356.53 58.99 353.69 56.52 351.03 55.41V55.28C357.2 53.67 362.27 48.24 362.27 40.9C362.27 29.85 353.69 24.36 343.44 24.36L318.88 24.35ZM137.68 30.59H156.75C163.91 30.59 167.68 33.49 167.68 39.41C167.68 44.41 164.77 48.43 156.75 48.43H137.68L138.36 47.75V31.27L137.68 30.59ZM192.13 30.59H210.83C217.74 30.59 222.87 33.43 222.93 40.83C222.93 46.76 218.18 51.02 210.09 51.02H192.12L192.8 50.34V31.27C192.81 31.27 192.13 30.59 192.13 30.59ZM324.86 30.59H343.56C350.41 30.59 355.6 33.43 355.6 40.83C355.6 46.76 350.91 51.02 342.82 51.02H324.85L325.53 50.34V31.27C325.54 31.27 324.86 30.59 324.86 30.59ZM283.56 31.2H283.69L285.35 36.82L295.23 59.35L295.91 60.03H271.28L271.96 59.35L281.84 36.82L283.56 31.2ZM137.62 54.67H158C166.27 54.67 170.1 58.49 170.1 64.48C170.1 70.72 166.64 74.17 158.06 74.17H137.62L138.3 73.49V55.34L137.62 54.67Z" fill="white"/>
<path d="M28.4533 0.000976562C24.2001 0.000976562 20.6938 3.50736 20.6938 7.76055V17.6244H39.8086V7.76055C39.8086 3.50736 36.3448 0.000976562 32.0916 0.000976562H28.4533ZM70.981 0.000976562C66.7278 0.000976562 63.2214 3.50736 63.2214 7.76055V60.152H82.3363V7.76055C82.3363 3.50736 78.8725 0.000976562 74.6193 0.000976562H70.981ZM20.6938 42.8776V95.2691C20.6938 99.5222 24.1576 103.029 28.4533 103.029H32.0916C36.3448 103.029 39.8512 99.5222 39.8512 95.2691V42.8776H20.6938ZM63.2193 85.4052V95.2691C63.2193 99.5222 66.7278 103.029 70.9789 103.029H74.6172C78.8703 103.029 82.3767 99.5222 82.3767 95.2691V85.4052C82.3789 85.4052 63.2193 85.4052 63.2193 85.4052Z" fill="white"/>
<path d="M7.75973 20.6925C3.50653 20.6925 0.000152588 24.1563 0.000152588 28.4521V32.0904C0.000152588 36.3436 3.46398 39.85 7.75973 39.85H60.1512V20.6925H7.75973ZM85.4044 20.6925V39.8521H95.2682C99.5214 39.8521 103.028 36.3882 103.028 32.0925V28.4542C103.028 24.1585 99.5214 20.6946 95.2682 20.6946H85.4044V20.6925ZM7.75973 63.2202C3.50653 63.2202 0.000152588 66.684 0.000152588 70.9797V74.618C0.000152588 78.8712 3.46398 82.3776 7.75973 82.3776H17.6236V63.2202H7.75973ZM42.8767 63.2202V82.3797H95.2682C99.5214 82.3797 103.028 78.8712 103.028 74.6202V70.9819C103.028 66.6861 99.5214 63.2223 95.2682 63.2223L42.8767 63.2202Z" fill="white"/>
</svg>
