<svg width="356" height="336" viewBox="0 0 356 336" fill="none" xmlns="http://www.w3.org/2000/svg">
<rect x="71.502" y="31.6919" width="283.516" height="302.811" stroke="black"/>
<path opacity="0.5" d="M53.9998 181.015L354.518 181.015L354.518 157.586L53.9998 157.586L53.9998 181.015Z" fill="#EA8271"/>
<path d="M57.2076 181.015L53.9998 181.015L53.9998 157.586L57.2076 157.586" stroke="#C26700" stroke-width="2"/>
<path d="M42.684 167.176H41.1386L43.9113 171.54L41.1386 175.903H42.684L44.775 172.517L46.8659 175.903H48.4113L45.5931 171.54L48.4113 167.176H46.8659L44.775 170.744L42.684 167.176Z" fill="#1F1F1F"/>
<path opacity="0.5" d="M54.6577 334.003L354.518 334.003L354.518 287.152L54.6577 287.152L54.6577 334.003Z" fill="#FCA429"/>
<path d="M57.8497 334.003L54.6418 334.003L54.6418 287.153L57.8497 287.153" stroke="#C26700" stroke-width="2"/>
<path d="M29.8176 316.563H37.1585V315.313H31.7494V315.223L34.363 312.427C36.363 310.285 36.9539 309.285 36.9539 307.995C36.9539 306.2 35.4994 304.768 33.4539 304.768C31.4142 304.768 29.863 306.154 29.863 308.2H31.2039C31.2039 306.876 32.0619 305.995 33.4085 305.995C34.6698 305.995 35.6357 306.768 35.6357 307.995C35.6357 309.069 35.0051 309.865 33.6585 311.336L29.8176 315.541L29.8176 316.563ZM40.5278 307.836H38.9823L41.7551 312.2L38.9823 316.563H40.5278L42.6187 313.177L44.7096 316.563H46.2551L43.4369 312.2L46.2551 307.836H44.7096L42.6187 311.404L40.5278 307.836Z" fill="#1F1F1F"/>
<path opacity="0.5" d="M54.6577 79.0425L354.518 79.0425L354.518 32.192L54.6577 32.192L54.6577 79.0425Z" fill="#FCA429"/>
<path d="M57.8497 79.0425L54.6418 79.0425L54.6418 32.1921L57.8497 32.1921" stroke="#C26700" stroke-width="2"/>
<path d="M28.799 61.6025H36.1399V60.3525H30.7308V60.2616L33.3445 57.4662C35.3445 55.3241 35.9354 54.3241 35.9354 53.0344C35.9354 51.2389 34.4808 49.8071 32.4354 49.8071C30.3956 49.8071 28.8445 51.1934 28.8445 53.2389H30.1854C30.1854 51.915 31.0433 51.0344 32.3899 51.0344C33.6513 51.0344 34.6172 51.8071 34.6172 53.0344C34.6172 54.1082 33.9865 54.9037 32.6399 56.3753L28.799 60.5798L28.799 61.6025ZM39.5092 52.8753H37.9638L40.7365 57.2389L37.9638 61.6025H39.5092L41.6001 58.2162L43.6911 61.6025H45.2365L42.4183 57.2389L45.2365 52.8753H43.6911L41.6001 56.4434L39.5092 52.8753Z" fill="#1F1F1F"/>
<path opacity="0.5" d="M72.1877 19.5327L72.1877 334.003L119.038 334.003L119.038 19.5327L72.1877 19.5327Z" fill="#FCA429"/>
<path d="M72.002 23.0457V19.8379L118.852 19.8379V23.0457" stroke="#C26700" stroke-width="2"/>
<path d="M87.4677 12.9585L94.8086 12.9585V11.7085L89.3995 11.7085V11.6176L92.0132 8.82213C94.0132 6.68009 94.6041 5.68009 94.6041 4.39031C94.6041 2.59486 93.1495 1.16304 91.1041 1.16304C89.0643 1.16304 87.5132 2.54941 87.5132 4.59486H88.8541C88.8541 3.271 89.712 2.39031 91.0586 2.39031C92.32 2.39031 93.2859 3.16304 93.2859 4.39031C93.2859 5.46418 92.6552 6.25963 91.3086 7.73122L87.4677 11.9358V12.9585ZM98.1779 4.23122H96.6325L99.4052 8.59486L96.6325 12.9585H98.1779L100.269 9.57213L102.36 12.9585H103.905L101.087 8.59486L103.905 4.23122L102.36 4.23122L100.269 7.79941L98.1779 4.23122Z" fill="#1F1F1F"/>
<path opacity="0.5" d="M307.667 19.5327L307.667 334.003L354.517 334.003L354.517 19.5327L307.667 19.5327Z" fill="#FCA429"/>
<path d="M307.667 23.0457V19.8379L354.517 19.8379V23.0457" stroke="#C26700" stroke-width="2"/>
<path d="M323.133 12.9585L330.474 12.9585V11.7085L325.065 11.7085V11.6176L327.678 8.82213C329.678 6.68009 330.269 5.68009 330.269 4.39031C330.269 2.59486 328.815 1.16304 326.769 1.16304C324.729 1.16304 323.178 2.54941 323.178 4.59486H324.519C324.519 3.271 325.377 2.39031 326.724 2.39031C327.985 2.39031 328.951 3.16304 328.951 4.39031C328.951 5.46418 328.32 6.25963 326.974 7.73122L323.133 11.9358V12.9585ZM333.843 4.23122H332.298L335.07 8.59486L332.298 12.9585H333.843L335.934 9.57213L338.025 12.9585H339.57L336.752 8.59486L339.57 4.23122L338.025 4.23122L335.934 7.79941L333.843 4.23122Z" fill="#1F1F1F"/>
<path opacity="0.5" d="M54.585 242.146L354.445 242.146L354.445 206.576L54.585 206.576L54.585 242.146Z" fill="#FCA429"/>
<path d="M57.2076 242.146L53.9998 242.146L53.9998 206.576L57.2076 206.576" stroke="#C26700" stroke-width="2"/>
<path d="M15.7508 218.71H14.3417L11.4326 220.642V222.073L14.2735 220.187H14.3417L14.3417 230.346H15.7508L15.7508 218.71ZM19.4099 230.437C19.9724 230.437 20.4326 229.977 20.4326 229.414C20.4326 228.852 19.9724 228.392 19.4099 228.392C18.8474 228.392 18.3871 228.852 18.3871 229.414C18.3871 229.977 18.8474 230.437 19.4099 230.437ZM26.2181 230.505C28.434 230.505 30.059 228.869 30.059 226.642C30.059 224.386 28.4908 222.733 26.3545 222.733C25.5704 222.733 24.809 223.011 24.3317 223.392H24.2636L24.6727 219.96H29.5363V218.71H23.4908L22.7863 224.437L24.1045 224.596C24.5874 224.25 25.4113 224 26.1272 224.005C27.6101 224.017 28.6954 225.142 28.6954 226.664C28.6954 228.159 27.6499 229.255 26.2181 229.255C25.0249 229.255 24.0761 228.488 23.9681 227.437H22.6045C22.6897 229.21 24.2181 230.505 26.2181 230.505ZM33.3388 221.619H31.7934L34.5661 225.983L31.7934 230.346H33.3388L35.4298 226.96L37.5207 230.346H39.0661L36.2479 225.983L39.0661 221.619H37.5207L35.4298 225.187L33.3388 221.619Z" fill="#1F1F1F"/>
<path d="M119.038 242.146V287.144H140.178C150.034 287.144 155.271 282.196 155.327 274.369C155.327 269.365 152.953 265.556 148.302 263.479V263.382C151.814 261.201 153.354 258.474 153.354 254.272C153.354 247.889 149.048 242.146 139.689 242.146H119.038ZM162.761 242.146V287.144H168.054V269.132L167.509 268.587H178.199C184.141 268.587 187.558 270.72 189.731 275.324L195.329 287.152H201.263L194.431 273.094C192.947 269.926 190.669 267.946 188.536 267.055V266.951C193.484 265.66 197.55 261.305 197.55 255.419C197.55 246.557 190.669 242.155 182.449 242.155L162.761 242.146ZM206.773 242.146V287.144H212.074V242.146H206.773ZM238.057 242.146L218.249 287.144H224.039L228.794 276.302L228.498 275.757H253.15L252.853 276.302L257.609 287.144H263.399L243.647 242.146H238.057ZM269.157 242.146V287.144H274.45V269.132L273.905 268.587H284.603C290.545 268.587 293.962 270.72 296.135 275.324L301.725 287.152H307.667L300.834 273.094C299.351 269.926 297.073 267.946 294.94 267.055V266.951C299.888 265.66 303.954 261.305 303.954 255.419C303.954 246.557 297.073 242.155 288.853 242.155L269.157 242.146ZM123.842 247.151H139.135C144.877 247.151 147.901 249.476 147.901 254.224C147.901 258.234 145.567 261.458 139.135 261.458H123.842L124.387 260.912V247.696L123.842 247.151ZM167.509 247.151H182.505C188.047 247.151 192.161 249.428 192.209 255.363C192.209 260.118 188.4 263.535 181.912 263.535H167.501L168.046 262.989V247.696C168.054 247.696 167.509 247.151 167.509 247.151ZM273.953 247.151H288.949C294.443 247.151 298.605 249.428 298.605 255.363C298.605 260.118 294.844 263.535 288.356 263.535H273.945L274.49 262.989V247.696C274.498 247.696 273.953 247.151 273.953 247.151ZM240.832 247.64H240.936L242.267 252.147L250.191 270.215L250.736 270.76H230.984L231.529 270.215L239.453 252.147L240.832 247.64ZM123.794 266.462H140.138C146.77 266.462 149.842 269.525 149.842 274.329C149.842 279.333 147.067 282.1 140.186 282.1H123.794L124.339 281.555V266.999L123.794 266.462Z" fill="#2E2E2E"/>
<path d="M184.734 79.0425C179.469 79.0425 175.128 83.3829 175.128 88.6477V100.858H198.79V88.6477C198.79 83.3829 194.502 79.0425 189.237 79.0425H184.734ZM237.377 79.0425C232.112 79.0425 227.772 83.3829 227.772 88.6477V153.501H251.433V88.6477C251.433 83.3829 247.145 79.0425 241.881 79.0425H237.377ZM175.128 132.118V196.971C175.128 202.236 179.416 206.576 184.734 206.576H189.237C194.502 206.576 198.843 202.236 198.843 196.971V132.118H175.128ZM227.769 184.761V196.971C227.769 202.236 232.112 206.576 237.374 206.576H241.878C247.143 206.576 251.483 202.236 251.483 196.971V184.761C251.486 184.761 227.769 184.761 227.769 184.761Z" fill="#74B816"/>
<path d="M159.118 104.655C153.853 104.655 149.512 108.943 149.512 114.261V118.764C149.512 124.029 153.8 128.369 159.118 128.369H223.971V104.655H159.118ZM255.231 104.655V128.372H267.441C272.706 128.372 277.046 124.084 277.046 118.767V114.263C277.046 108.946 272.706 104.658 267.441 104.658H255.231V104.655ZM159.118 157.299C153.853 157.299 149.512 161.586 149.512 166.904V171.407C149.512 176.672 153.8 181.013 159.118 181.013H171.328V157.299H159.118ZM202.588 157.299V181.015H267.441C272.706 181.015 277.046 176.672 277.046 171.41V166.906C277.046 161.589 272.706 157.301 267.441 157.301L202.588 157.299Z" fill="#82C91E"/>
</svg>
