<?xml version="1.0" encoding="UTF-8" standalone="no"?>
<svg
   xmlns:dc="http://purl.org/dc/elements/1.1/"
   xmlns:cc="http://creativecommons.org/ns#"
   xmlns:rdf="http://www.w3.org/1999/02/22-rdf-syntax-ns#"
   xmlns:svg="http://www.w3.org/2000/svg"
   xmlns="http://www.w3.org/2000/svg"
   xmlns:sodipodi="http://sodipodi.sourceforge.net/DTD/sodipodi-0.dtd"
   xmlns:inkscape="http://www.inkscape.org/namespaces/inkscape"
   width="360"
   height="240"
   viewBox="0 0 360 240"
   version="1.1"
   id="svg6"
   sodipodi:docname="typography-roboto.svg"
   inkscape:version="0.92.4 (5da689c313, 2019-01-14)">
  <metadata
     id="metadata12">
    <rdf:RDF>
      <cc:Work
         rdf:about="">
        <dc:format>image/svg+xml</dc:format>
        <dc:type
           rdf:resource="http://purl.org/dc/dcmitype/StillImage" />
        <dc:title></dc:title>
      </cc:Work>
    </rdf:RDF>
  </metadata>
  <defs
     id="defs10" />
  <sodipodi:namedview
     pagecolor="#ffffff"
     bordercolor="#666666"
     borderopacity="1"
     objecttolerance="10"
     gridtolerance="10"
     guidetolerance="10"
     inkscape:pageopacity="0"
     inkscape:pageshadow="2"
     inkscape:window-width="1920"
     inkscape:window-height="1027"
     id="namedview8"
     showgrid="false"
     inkscape:zoom="2.254885"
     inkscape:cx="136.21781"
     inkscape:cy="75.202292"
     inkscape:window-x="-8"
     inkscape:window-y="-8"
     inkscape:window-maximized="1"
     inkscape:current-layer="g943" />
  <g
     fill="none"
     fill-rule="evenodd"
     id="g4">
    <g
       id="g852"
       transform="translate(-147.1628,0.32448543)">
      <g
         id="g943"
         transform="translate(-23.695775,0.33791132)">
        <g
           aria-label="Roboto Regular"
           style="font-style:normal;font-variant:normal;font-weight:bold;font-stretch:normal;font-size:28.61829376px;line-height:1.25;font-family:Roboto;-inkscape-font-specification:'Roboto Bold';letter-spacing:0px;word-spacing:0px;fill:#4a4a4f;fill-opacity:1;stroke:none;stroke-width:0.71545732"
           id="text824">
          <path
             d="m 217.381,88.066199 h -4.77903 v 8.230554 h -2.69694 V 75.950935 h 6.73536 q 3.43755,0 5.28209,1.565063 1.85851,1.565063 1.85851,4.555451 0,1.900433 -1.03406,3.311785 -1.02009,1.411351 -2.85065,2.11004 l 4.77903,8.635794 v 0.167685 h -2.8786 z m -4.77903,-2.193883 h 4.12226 q 1.99825,0 3.17205,-1.03406 1.18777,-1.034059 1.18777,-2.766807 0,-1.88646 -1.13188,-2.892572 -1.1179,-1.006112 -3.24191,-1.020086 h -4.10829 z"
             style="font-style:normal;font-variant:normal;font-weight:normal;font-stretch:normal;font-family:Roboto;-inkscape-font-specification:Roboto;fill:#4a4a4f;fill-opacity:1;stroke-width:0.71545732"
             id="path991" />
          <path
             d="m 226.43601,88.597202 q 0,-2.22183 0.86637,-3.9965 0.88035,-1.774669 2.43144,-2.73886 1.56506,-0.96419 3.56331,-0.96419 3.0882,0 4.98864,2.137987 1.91441,2.137988 1.91441,5.687327 v 0.181659 q 0,2.207857 -0.8524,3.968553 -0.83843,1.746722 -2.41747,2.724886 -1.56506,0.978164 -3.60523,0.978164 -3.07423,0 -4.98864,-2.137987 -1.90043,-2.137988 -1.90043,-5.65938 z m 2.59912,0.307423 q 0,2.51528 1.15982,4.038422 1.1738,1.523141 3.13013,1.523141 1.9703,0 3.13012,-1.537115 1.15983,-1.551089 1.15983,-4.331871 0,-2.487332 -1.18777,-4.024447 -1.1738,-1.55109 -3.13013,-1.55109 -1.91441,0 -3.0882,1.523142 -1.1738,1.523142 -1.1738,4.359818 z"
             style="font-style:normal;font-variant:normal;font-weight:normal;font-stretch:normal;font-family:Roboto;-inkscape-font-specification:Roboto;fill:#4a4a4f;fill-opacity:1;stroke-width:0.71545732"
             id="path993" />
          <path
             d="m 256.24207,88.904625 q 0,3.465497 -1.59301,5.575537 -1.59301,2.096066 -4.27597,2.096066 -2.86463,0 -4.42969,-2.026197 l -0.12577,1.746722 h -2.37554 v -21.46372 h 2.58515 v 8.006973 q 1.56506,-1.942354 4.3179,-1.942354 2.75283,0 4.31789,2.082092 1.57904,2.082093 1.57904,5.701301 z m -2.58515,-0.293449 q 0,-2.641044 -1.02008,-4.080343 -1.02009,-1.439299 -2.9345,-1.439299 -2.5572,0 -3.6751,2.375542 v 6.539728 q 1.18777,2.375542 3.70305,2.375542 1.85851,0 2.89257,-1.439299 1.03406,-1.439299 1.03406,-4.331871 z"
             style="font-style:normal;font-variant:normal;font-weight:normal;font-stretch:normal;font-family:Roboto;-inkscape-font-specification:Roboto;fill:#4a4a4f;fill-opacity:1;stroke-width:0.71545732"
             id="path995" />
          <path
             d="m 258.79927,88.597202 q 0,-2.22183 0.86637,-3.9965 0.88035,-1.774669 2.43144,-2.73886 1.56506,-0.96419 3.56331,-0.96419 3.08821,0 4.98864,2.137987 1.91441,2.137988 1.91441,5.687327 v 0.181659 q 0,2.207857 -0.8524,3.968553 -0.83843,1.746722 -2.41746,2.724886 -1.56507,0.978164 -3.60524,0.978164 -3.07423,0 -4.98864,-2.137987 -1.90043,-2.137988 -1.90043,-5.65938 z m 2.59912,0.307423 q 0,2.51528 1.15983,4.038422 1.17379,1.523141 3.13012,1.523141 1.9703,0 3.13013,-1.537115 1.15982,-1.551089 1.15982,-4.331871 0,-2.487332 -1.18777,-4.024447 -1.1738,-1.55109 -3.13013,-1.55109 -1.9144,0 -3.0882,1.523142 -1.1738,1.523142 -1.1738,4.359818 z"
             style="font-style:normal;font-variant:normal;font-weight:normal;font-stretch:normal;font-family:Roboto;-inkscape-font-specification:Roboto;fill:#4a4a4f;fill-opacity:1;stroke-width:0.71545732"
             id="path997" />
          <path
             d="m 279.31278,77.515998 v 3.661129 h 2.8227 v 1.99825 h -2.8227 v 9.376404 q 0,0.908295 0.37729,1.36943 0.37729,0.447161 1.28559,0.447161 0.44716,0 1.22969,-0.167686 v 2.096067 q -1.02009,0.279475 -1.98428,0.279475 -1.73275,0 -2.61309,-1.048033 -0.88035,-1.048033 -0.88035,-2.976414 v -9.376404 h -2.75284 v -1.99825 h 2.75284 v -3.661129 z"
             style="font-style:normal;font-variant:normal;font-weight:normal;font-stretch:normal;font-family:Roboto;-inkscape-font-specification:Roboto;fill:#4a4a4f;fill-opacity:1;stroke-width:0.71545732"
             id="path999" />
          <path
             d="m 284.17565,88.597202 q 0,-2.22183 0.86638,-3.9965 0.88034,-1.774669 2.43143,-2.73886 1.56507,-0.96419 3.56332,-0.96419 3.0882,0 4.98863,2.137987 1.91441,2.137988 1.91441,5.687327 v 0.181659 q 0,2.207857 -0.8524,3.968553 -0.83843,1.746722 -2.41746,2.724886 -1.56507,0.978164 -3.60524,0.978164 -3.07423,0 -4.98864,-2.137987 -1.90043,-2.137988 -1.90043,-5.65938 z m 2.59912,0.307423 q 0,2.51528 1.15983,4.038422 1.17379,1.523141 3.13012,1.523141 1.97031,0 3.13013,-1.537115 1.15982,-1.551089 1.15982,-4.331871 0,-2.487332 -1.18777,-4.024447 -1.1738,-1.55109 -3.13012,-1.55109 -1.91441,0 -3.08821,1.523142 -1.1738,1.523142 -1.1738,4.359818 z"
             style="font-style:normal;font-variant:normal;font-weight:normal;font-stretch:normal;font-family:Roboto;-inkscape-font-specification:Roboto;fill:#4a4a4f;fill-opacity:1;stroke-width:0.71545732"
             id="path1001" />
          <path
             d="m 316.14765,88.066199 h -4.77903 v 8.230554 h -2.69694 V 75.950935 h 6.73536 q 3.43755,0 5.28209,1.565063 1.85851,1.565063 1.85851,4.555451 0,1.900433 -1.03406,3.311785 -1.02008,1.411351 -2.85065,2.11004 l 4.77903,8.635794 v 0.167685 h -2.87859 z m -4.77903,-2.193883 h 4.12227 q 1.99825,0 3.17204,-1.03406 1.18777,-1.034059 1.18777,-2.766807 0,-1.88646 -1.13187,-2.892572 -1.1179,-1.006112 -3.24192,-1.020086 h -4.10829 z"
             style="font-style:normal;font-variant:normal;font-weight:normal;font-stretch:normal;font-family:Roboto;-inkscape-font-specification:Roboto;fill:#4a4a4f;fill-opacity:1;stroke-width:0.71545732"
             id="path1003" />
          <path
             d="m 332.1616,96.576228 q -3.07423,0 -5.00261,-2.012223 -1.92838,-2.026198 -1.92838,-5.407852 v -0.475108 q 0,-2.249778 0.8524,-4.010474 0.86637,-1.774669 2.40349,-2.766808 1.55109,-1.006111 3.3537,-1.006111 2.94847,0 4.5834,1.942354 1.63493,1.942355 1.63493,5.561563 v 1.075981 h -10.24277 q 0.0559,2.235804 1.29956,3.619208 1.25764,1.36943 3.18602,1.36943 1.36943,0 2.31964,-0.558951 0.95022,-0.558951 1.66288,-1.48122 l 1.57904,1.229692 q -1.90043,2.920519 -5.7013,2.920519 z m -0.3214,-13.554563 q -1.56506,0 -2.62707,1.14585 -1.062,1.131876 -1.31353,3.186021 h 7.57378 v -0.195633 q -0.11179,-1.970302 -1.062,-3.046283 -0.95022,-1.089955 -2.57118,-1.089955 z"
             style="font-style:normal;font-variant:normal;font-weight:normal;font-stretch:normal;font-family:Roboto;-inkscape-font-specification:Roboto;fill:#4a4a4f;fill-opacity:1;stroke-width:0.71545732"
             id="path1005" />
          <path
             d="m 340.4201,88.611176 q 0,-3.535365 1.63493,-5.617458 1.63493,-2.096066 4.33187,-2.096066 2.76681,0 4.3179,1.956328 l 0.12576,-1.676853 h 2.36157 v 14.756308 q 0,2.934493 -1.74672,4.625315 -1.73275,1.69083 -4.66725,1.69083 -1.63493,0 -3.19999,-0.69869 -1.56506,-0.69869 -2.38952,-1.914405 l 1.34149,-1.551089 q 1.66288,2.054144 4.06636,2.054144 1.88646,0 2.9345,-1.062006 1.062,-1.062007 1.062,-2.990388 v -1.299561 q -1.55108,1.788643 -4.23405,1.788643 -2.65502,0 -4.30392,-2.137987 -1.63493,-2.137988 -1.63493,-5.827065 z m 2.59912,0.293449 q 0,2.557201 1.04803,4.024448 1.04803,1.453273 2.93449,1.453273 2.44542,0 3.59126,-2.221831 V 85.25747 q -1.18777,-2.165936 -3.56331,-2.165936 -1.88646,0 -2.94846,1.467247 -1.06201,1.467246 -1.06201,4.345844 z"
             style="font-style:normal;font-variant:normal;font-weight:normal;font-stretch:normal;font-family:Roboto;-inkscape-font-specification:Roboto;fill:#4a4a4f;fill-opacity:1;stroke-width:0.71545732"
             id="path1007" />
          <path
             d="m 366.41133,94.801559 q -1.50917,1.774669 -4.42969,1.774669 -2.41747,0 -3.68908,-1.397377 -1.25764,-1.411352 -1.27161,-4.164185 v -9.837539 h 2.58515 v 9.76767 q 0,3.437549 2.79475,3.437549 2.96244,0 3.94061,-2.207857 V 81.177127 h 2.58514 v 15.119626 h -2.45938 z"
             style="font-style:normal;font-variant:normal;font-weight:normal;font-stretch:normal;font-family:Roboto;-inkscape-font-specification:Roboto;fill:#4a4a4f;fill-opacity:1;stroke-width:0.71545732"
             id="path1009" />
          <path
             d="m 375.64799,96.296753 h -2.58515 v -21.46372 h 2.58515 z"
             style="font-style:normal;font-variant:normal;font-weight:normal;font-stretch:normal;font-family:Roboto;-inkscape-font-specification:Roboto;fill:#4a4a4f;fill-opacity:1;stroke-width:0.71545732"
             id="path1011" />
          <path
             d="m 389.10473,96.296753 q -0.22358,-0.447161 -0.36332,-1.593011 -1.80262,1.872486 -4.30392,1.872486 -2.23581,0 -3.6751,-1.257639 -1.42533,-1.271614 -1.42533,-3.213969 0,-2.361568 1.78864,-3.661129 1.80262,-1.313535 5.05851,-1.313535 h 2.51528 v -1.187771 q 0,-1.355457 -0.81048,-2.151962 -0.81048,-0.810479 -2.38951,-0.810479 -1.38341,0 -2.31965,0.698689 -0.93624,0.698689 -0.93624,1.690827 h -2.59913 q 0,-1.131876 0.79651,-2.179909 0.81048,-1.062007 2.17991,-1.676853 1.3834,-0.614846 3.03231,-0.614846 2.61309,0 4.09431,1.313534 1.48122,1.299562 1.53712,3.591261 v 6.958941 q 0,2.082092 0.531,3.311785 v 0.22358 z m -4.28995,-1.970303 q 1.21572,0 2.30567,-0.628819 1.08996,-0.62882 1.57904,-1.634932 V 88.96052 h -2.0262 q -4.75108,0 -4.75108,2.780782 0,1.215718 0.81048,1.900433 0.81048,0.684715 2.08209,0.684715 z"
             style="font-style:normal;font-variant:normal;font-weight:normal;font-stretch:normal;font-family:Roboto;-inkscape-font-specification:Roboto;fill:#4a4a4f;fill-opacity:1;stroke-width:0.71545732"
             id="path1013" />
          <path
             d="m 402.67327,83.496774 q -0.58689,-0.09782 -1.27161,-0.09782 -2.54323,0 -3.45152,2.165936 v 10.73186 h -2.58515 V 81.177127 h 2.51528 l 0.0419,1.746722 q 1.27161,-2.026197 3.60523,-2.026197 0.75459,0 1.14585,0.195632 z"
             style="font-style:normal;font-variant:normal;font-weight:normal;font-stretch:normal;font-family:Roboto;-inkscape-font-specification:Roboto;fill:#4a4a4f;fill-opacity:1;stroke-width:0.71545732"
             id="path1015" />
        </g>
        <g
           aria-label="Roboto Medium"
           style="font-style:normal;font-variant:normal;font-weight:bold;font-stretch:normal;font-size:28.61829376px;line-height:1.25;font-family:Roboto;-inkscape-font-specification:'Roboto Bold';letter-spacing:0px;word-spacing:0px;fill:#4a4a4f;fill-opacity:1;stroke:none;stroke-width:0.71545732"
           id="text828">
          <path
             d="m 217.56902,123.50878 h -3.9406 v 7.83929 h -3.53537 v -20.34582 h 7.15458 q 3.52139,0 5.43579,1.57904 1.91441,1.57903 1.91441,4.56942 0,2.04017 -0.99214,3.42358 -0.97816,1.36943 -2.73886,2.11004 l 4.56943,8.48208 v 0.18166 h -3.7869 z m -3.9406,-2.83668 h 3.63318 q 1.78864,0 2.79475,-0.89432 1.00612,-0.90829 1.00612,-2.47336 0,-1.63493 -0.93625,-2.52925 -0.92227,-0.89432 -2.7668,-0.92227 h -3.731 z"
             style="font-style:normal;font-variant:normal;font-weight:500;font-stretch:normal;font-family:Roboto;-inkscape-font-specification:'Roboto Medium';fill:#4a4a4f;fill-opacity:1;stroke-width:0.71545732"
             id="path966" />
          <path
             d="m 227.01529,123.64852 q 0,-2.22183 0.88035,-3.9965 0.88035,-1.78865 2.47336,-2.73886 1.59301,-0.96419 3.66113,-0.96419 3.06026,0 4.96069,1.9703 1.91441,1.9703 2.06812,5.22619 l 0.014,0.79651 q 0,2.2358 -0.86637,3.9965 -0.8524,1.76069 -2.45939,2.72488 -1.59301,0.96419 -3.68907,0.96419 -3.2,0 -5.12838,-2.12401 -1.91441,-2.13799 -1.91441,-5.68733 z m 3.39563,0.29345 q 0,2.33362 0.96419,3.66113 0.96419,1.31353 2.68297,1.31353 1.71877,0 2.66899,-1.34148 0.96419,-1.34148 0.96419,-3.92663 0,-2.2917 -0.99214,-3.63318 -0.97816,-1.34149 -2.66899,-1.34149 -1.66288,0 -2.64104,1.32751 -0.97817,1.31354 -0.97817,3.94061 z"
             style="font-style:normal;font-variant:normal;font-weight:500;font-stretch:normal;font-family:Roboto;-inkscape-font-specification:'Roboto Medium';fill:#4a4a4f;fill-opacity:1;stroke-width:0.71545732"
             id="path968" />
          <path
             d="m 257.24057,123.94197 q 0,3.52139 -1.57904,5.60348 -1.56506,2.08209 -4.31789,2.08209 -2.65502,0 -4.13624,-1.9144 l -0.16769,1.63493 h -3.07423 v -21.46372 h 3.39563 v 7.79737 q 1.46725,-1.73275 3.95458,-1.73275 2.76681,0 4.34584,2.05414 1.57904,2.05415 1.57904,5.74322 z m -3.39563,-0.29345 q 0,-2.45939 -0.86637,-3.68908 -0.86638,-1.22969 -2.51528,-1.22969 -2.20786,0 -3.10218,1.92838 v 6.2323 q 0.9083,1.97031 3.13013,1.97031 1.59301,0 2.45938,-1.18777 0.86638,-1.18778 0.89432,-3.59127 z"
             style="font-style:normal;font-variant:normal;font-weight:500;font-stretch:normal;font-family:Roboto;-inkscape-font-specification:'Roboto Medium';fill:#4a4a4f;fill-opacity:1;stroke-width:0.71545732"
             id="path970" />
          <path
             d="m 259.43446,123.64852 q 0,-2.22183 0.88034,-3.9965 0.88035,-1.78865 2.47336,-2.73886 1.59301,-0.96419 3.66113,-0.96419 3.06026,0 4.96069,1.9703 1.91441,1.9703 2.06812,5.22619 l 0.014,0.79651 q 0,2.2358 -0.86638,3.9965 -0.8524,1.76069 -2.45938,2.72488 -1.59301,0.96419 -3.68908,0.96419 -3.19999,0 -5.12838,-2.12401 -1.9144,-2.13799 -1.9144,-5.68733 z m 3.39562,0.29345 q 0,2.33362 0.96419,3.66113 0.9642,1.31353 2.68297,1.31353 1.71877,0 2.66899,-1.34148 0.96419,-1.34148 0.96419,-3.92663 0,-2.2917 -0.99214,-3.63318 -0.97816,-1.34149 -2.66899,-1.34149 -1.66288,0 -2.64104,1.32751 -0.97817,1.31354 -0.97817,3.94061 z"
             style="font-style:normal;font-variant:normal;font-weight:500;font-stretch:normal;font-family:Roboto;-inkscape-font-specification:'Roboto Medium';fill:#4a4a4f;fill-opacity:1;stroke-width:0.71545732"
             id="path972" />
          <path
             d="m 280.64665,112.55334 v 3.6751 h 2.66899 v 2.51528 h -2.66899 v 8.44016 q 0,0.86638 0.33537,1.25764 0.34935,0.37729 1.22969,0.37729 0.5869,0 1.18778,-0.13973 v 2.62707 q -1.15983,0.32139 -2.23581,0.32139 -3.91266,0 -3.91266,-4.31789 v -8.56593 h -2.48733 v -2.51528 h 2.48733 v -3.6751 z"
             style="font-style:normal;font-variant:normal;font-weight:500;font-stretch:normal;font-family:Roboto;-inkscape-font-specification:'Roboto Medium';fill:#4a4a4f;fill-opacity:1;stroke-width:0.71545732"
             id="path974" />
          <path
             d="m 284.86673,123.64852 q 0,-2.22183 0.88035,-3.9965 0.88035,-1.78865 2.47336,-2.73886 1.59301,-0.96419 3.66113,-0.96419 3.06025,0 4.96069,1.9703 1.9144,1.9703 2.06812,5.22619 l 0.014,0.79651 q 0,2.2358 -0.86637,3.9965 -0.85241,1.76069 -2.45939,2.72488 -1.59301,0.96419 -3.68908,0.96419 -3.19999,0 -5.12837,-2.12401 -1.91441,-2.13799 -1.91441,-5.68733 z m 3.39563,0.29345 q 0,2.33362 0.96419,3.66113 0.96419,1.31353 2.68296,1.31353 1.71878,0 2.66899,-1.34148 0.9642,-1.34148 0.9642,-3.92663 0,-2.2917 -0.99214,-3.63318 -0.97817,-1.34149 -2.66899,-1.34149 -1.66288,0 -2.64105,1.32751 -0.97816,1.31354 -0.97816,3.94061 z"
             style="font-style:normal;font-variant:normal;font-weight:500;font-stretch:normal;font-family:Roboto;-inkscape-font-specification:'Roboto Medium';fill:#4a4a4f;fill-opacity:1;stroke-width:0.71545732"
             id="path976" />
          <path
             d="m 313.89026,111.00225 5.86899,15.59473 5.85501,-15.59473 h 4.56943 v 20.34582 h -3.52139 v -6.70741 l 0.34934,-8.97117 -6.00872,15.67858 h -2.52926 l -5.99475,-15.6646 0.34935,8.95719 v 6.70741 h -3.52139 v -20.34582 z"
             style="font-style:normal;font-variant:normal;font-weight:500;font-stretch:normal;font-family:Roboto;-inkscape-font-specification:'Roboto Medium';fill:#4a4a4f;fill-opacity:1;stroke-width:0.71545732"
             id="path978" />
          <path
             d="m 340.67799,131.62754 q -3.22794,0 -5.24016,-2.02619 -1.99825,-2.04018 -1.99825,-5.42183 v -0.41921 q 0,-2.26375 0.86637,-4.03842 0.88035,-1.78865 2.45939,-2.78079 1.57903,-0.99213 3.52139,-0.99213 3.0882,0 4.76506,1.9703 1.69082,1.9703 1.69082,5.57554 v 1.36943 h -9.87946 q 0.15371,1.87248 1.24367,2.96244 1.10393,1.08995 2.76681,1.08995 2.33362,0 3.80086,-1.88646 l 1.83057,1.74672 q -0.9083,1.35546 -2.43144,2.11004 -1.50917,0.74061 -3.39563,0.74061 z m -0.40524,-12.95369 q -1.39737,0 -2.26375,0.97817 -0.8524,0.97816 -1.08995,2.72488 h 6.46986 v -0.25152 q -0.11179,-1.7048 -0.9083,-2.57118 -0.7965,-0.88035 -2.20786,-0.88035 z"
             style="font-style:normal;font-variant:normal;font-weight:500;font-stretch:normal;font-family:Roboto;-inkscape-font-specification:'Roboto Medium';fill:#4a4a4f;fill-opacity:1;stroke-width:0.71545732"
             id="path980" />
          <path
             d="m 348.75484,123.67647 q 0,-3.49345 1.62096,-5.60349 1.62095,-2.12401 4.34584,-2.12401 2.40349,0 3.88471,1.67685 v -7.74147 h 3.39563 v 21.46372 h -3.07423 l -0.16769,-1.56506 q -1.52314,1.84453 -4.06637,1.84453 -2.65501,0 -4.30392,-2.13798 -1.63493,-2.13799 -1.63493,-5.81309 z m 3.39563,0.29344 q 0,2.30568 0.88034,3.60524 0.89432,1.28559 2.52926,1.28559 2.08209,0 3.04628,-1.85852 v -6.45588 q -0.93624,-1.81659 -3.01834,-1.81659 -1.6489,0 -2.54322,1.31353 -0.89432,1.29956 -0.89432,3.92663 z"
             style="font-style:normal;font-variant:normal;font-weight:500;font-stretch:normal;font-family:Roboto;-inkscape-font-specification:'Roboto Medium';fill:#4a4a4f;fill-opacity:1;stroke-width:0.71545732"
             id="path982" />
          <path
             d="m 369.15655,131.34807 h -3.39563 v -15.11963 h 3.39563 z m -3.60523,-19.04626 q 0,-0.78253 0.48908,-1.29956 0.50306,-0.51703 1.42533,-0.51703 0.92226,0 1.42532,0.51703 0.50306,0.51703 0.50306,1.29956 0,0.76856 -0.50306,1.28559 -0.50306,0.50305 -1.42532,0.50305 -0.92227,0 -1.42533,-0.50305 -0.48908,-0.51703 -0.48908,-1.28559 z"
             style="font-style:normal;font-variant:normal;font-weight:500;font-stretch:normal;font-family:Roboto;-inkscape-font-specification:'Roboto Medium';fill:#4a4a4f;fill-opacity:1;stroke-width:0.71545732"
             id="path984" />
          <path
             d="m 382.02639,129.86685 q -1.49519,1.76069 -4.24803,1.76069 -2.45938,0 -3.73099,-1.4393 -1.25764,-1.43929 -1.25764,-4.16418 v -9.79562 h 3.39562 v 9.7537 q 0,2.8786 2.38952,2.8786 2.47336,0 3.33973,-1.77467 v -10.85763 h 3.39563 v 15.11963 h -3.2 z"
             style="font-style:normal;font-variant:normal;font-weight:500;font-stretch:normal;font-family:Roboto;-inkscape-font-specification:'Roboto Medium';fill:#4a4a4f;fill-opacity:1;stroke-width:0.71545732"
             id="path986" />
          <path
             d="m 391.9897,116.22844 0.0978,1.57904 q 1.59301,-1.85851 4.35982,-1.85851 3.03231,0 4.15021,2.31964 1.64891,-2.31964 4.63929,-2.31964 2.50131,0 3.71703,1.3834 1.22969,1.3834 1.25764,4.08034 v 9.93536 h -3.39563 v -9.83754 q 0,-1.4393 -0.62882,-2.11004 -0.62882,-0.67074 -2.08209,-0.67074 -1.15983,0 -1.90044,0.62882 -0.72663,0.61484 -1.02008,1.62096 l 0.014,10.36854 h -3.39563 v -9.94933 q -0.0699,-2.66899 -2.72488,-2.66899 -2.04017,0 -2.89257,1.66288 v 10.95544 h -3.39563 v -15.11963 z"
             style="font-style:normal;font-variant:normal;font-weight:500;font-stretch:normal;font-family:Roboto;-inkscape-font-specification:'Roboto Medium';fill:#4a4a4f;fill-opacity:1;stroke-width:0.71545732"
             id="path988" />
        </g>
        <g
           aria-label="Roboto Bold"
           style="font-style:normal;font-variant:normal;font-weight:bold;font-stretch:normal;font-size:28.61829376px;line-height:1.25;font-family:Roboto;-inkscape-font-specification:'Roboto Bold';letter-spacing:0px;word-spacing:0px;fill:#4a4a4f;fill-opacity:1;stroke:none;stroke-width:0.71545732"
           id="text832">
          <path
             d="m 217.61729,156.11468 h -3.33974 v 7.44802 h -4.19213 v -20.34582 h 7.55981 q 3.60524,0 5.56157,1.60698 1.95632,1.60699 1.95632,4.54148 0,2.08209 -0.90829,3.47947 -0.89432,1.38341 -2.72489,2.20786 l 4.40174,8.3144 v 0.19563 h -4.49955 z m -3.33974,-3.39563 h 3.38166 q 1.57903,0 2.44541,-0.79651 0.86637,-0.81048 0.86637,-2.22183 0,-1.4393 -0.82445,-2.26375 -0.81048,-0.82445 -2.50131,-0.82445 h -3.36768 z"
             style="font-style:normal;font-variant:normal;font-weight:bold;font-stretch:normal;font-family:Roboto;-inkscape-font-specification:'Roboto Bold';fill:#4a4a4f;fill-opacity:1;stroke-width:0.71545732"
             id="path945" />
          <path
             d="m 227.4688,155.86315 q 0,-2.24978 0.86637,-4.01048 0.86638,-1.76069 2.48733,-2.72488 1.63494,-0.96419 3.7869,-0.96419 3.06025,0 4.98863,1.87248 1.94236,1.87249 2.16594,5.08646 l 0.028,1.03406 q 0,3.47947 -1.94236,5.58951 -1.94235,2.09606 -5.21222,2.09606 -3.26986,0 -5.22619,-2.09606 -1.94235,-2.09607 -1.94235,-5.7013 z m 4.03842,0.29345 q 0,2.15196 0.81048,3.29781 0.81048,1.13187 2.31964,1.13187 1.46725,0 2.2917,-1.1179 0.82446,-1.13187 0.82446,-3.60523 0,-2.11004 -0.82446,-3.26987 -0.82445,-1.15982 -2.31964,-1.15982 -1.48122,0 -2.2917,1.15982 -0.81048,1.14585 -0.81048,3.56332 z"
             style="font-style:normal;font-variant:normal;font-weight:bold;font-stretch:normal;font-family:Roboto;-inkscape-font-specification:'Roboto Bold';fill:#4a4a4f;fill-opacity:1;stroke-width:0.71545732"
             id="path947" />
          <path
             d="m 257.93163,156.14262 q 0,3.63319 -1.55109,5.67336 -1.55109,2.02619 -4.33187,2.02619 -2.45938,0 -3.92663,-1.88646 l -0.18166,1.60699 h -3.63318 v -21.46372 h 4.03842 v 7.69955 q 1.39738,-1.63493 3.6751,-1.63493 2.76681,0 4.33188,2.04017 1.57903,2.0262 1.57903,5.71527 z m -4.03842,-0.29345 q 0,-2.2917 -0.72664,-3.33973 -0.72663,-1.06201 -2.16593,-1.06201 -1.92838,0 -2.65502,1.57904 v 5.9668 q 0.74061,1.59301 2.68297,1.59301 1.95633,0 2.57117,-1.92838 0.29345,-0.92227 0.29345,-2.80873 z"
             style="font-style:normal;font-variant:normal;font-weight:bold;font-stretch:normal;font-family:Roboto;-inkscape-font-specification:'Roboto Bold';fill:#4a4a4f;fill-opacity:1;stroke-width:0.71545732"
             id="path949" />
          <path
             d="m 259.77617,155.86315 q 0,-2.24978 0.86637,-4.01048 0.86637,-1.76069 2.48733,-2.72488 1.63493,-0.96419 3.7869,-0.96419 3.06025,0 4.98863,1.87248 1.94236,1.87249 2.16594,5.08646 l 0.0279,1.03406 q 0,3.47947 -1.94236,5.58951 -1.94235,2.09606 -5.21222,2.09606 -3.26986,0 -5.22619,-2.09606 -1.94235,-2.09607 -1.94235,-5.7013 z m 4.03842,0.29345 q 0,2.15196 0.81048,3.29781 0.81048,1.13187 2.31964,1.13187 1.46725,0 2.2917,-1.1179 0.82446,-1.13187 0.82446,-3.60523 0,-2.11004 -0.82446,-3.26987 -0.82445,-1.15982 -2.31964,-1.15982 -1.48122,0 -2.2917,1.15982 -0.81048,1.14585 -0.81048,3.56332 z"
             style="font-style:normal;font-variant:normal;font-weight:bold;font-stretch:normal;font-family:Roboto;-inkscape-font-specification:'Roboto Bold';fill:#4a4a4f;fill-opacity:1;stroke-width:0.71545732"
             id="path951" />
          <path
             d="m 281.44949,144.72605 v 3.71702 h 2.58515 v 2.96244 h -2.58515 v 7.54584 q 0,0.83843 0.3214,1.20175 0.3214,0.36332 1.22969,0.36332 0.67074,0 1.18777,-0.0978 v 3.06026 q -1.18777,0.36331 -2.44541,0.36331 -4.24803,0 -4.33187,-4.28995 v -8.14671 h -2.20786 v -2.96244 h 2.20786 v -3.71702 z"
             style="font-style:normal;font-variant:normal;font-weight:bold;font-stretch:normal;font-family:Roboto;-inkscape-font-specification:'Roboto Bold';fill:#4a4a4f;fill-opacity:1;stroke-width:0.71545732"
             id="path953" />
          <path
             d="m 285.26434,155.86315 q 0,-2.24978 0.86637,-4.01048 0.86638,-1.76069 2.48734,-2.72488 1.63493,-0.96419 3.78689,-0.96419 3.06026,0 4.98864,1.87248 1.94235,1.87249 2.16593,5.08646 l 0.028,1.03406 q 0,3.47947 -1.94235,5.58951 -1.94236,2.09606 -5.21222,2.09606 -3.26987,0 -5.22619,-2.09606 -1.94236,-2.09607 -1.94236,-5.7013 z m 4.03842,0.29345 q 0,2.15196 0.81048,3.29781 0.81048,1.13187 2.31965,1.13187 1.46724,0 2.2917,-1.1179 0.82445,-1.13187 0.82445,-3.60523 0,-2.11004 -0.82445,-3.26987 -0.82446,-1.15982 -2.31965,-1.15982 -1.48122,0 -2.2917,1.15982 -0.81048,1.14585 -0.81048,3.56332 z"
             style="font-style:normal;font-variant:normal;font-weight:bold;font-stretch:normal;font-family:Roboto;-inkscape-font-specification:'Roboto Bold';fill:#4a4a4f;fill-opacity:1;stroke-width:0.71545732"
             id="path955" />
          <path
             d="m 309.52281,163.5627 v -20.34582 h 7.12663 q 3.70305,0 5.61746,1.42533 1.9144,1.41135 1.9144,4.15021 0,1.49519 -0.76855,2.64104 -0.76856,1.13188 -2.13799,1.66288 1.56506,0.39127 2.45938,1.57904 0.9083,1.18777 0.9083,2.90654 0,2.9345 -1.87249,4.44366 -1.87248,1.50917 -5.33798,1.53712 z m 4.19214,-8.85938 v 5.4917 h 3.59126 q 1.48122,0 2.30567,-0.69869 0.83843,-0.71266 0.83843,-1.95633 0,-2.79475 -2.89258,-2.83668 z m 0,-2.96244 h 3.10217 q 3.17205,-0.0559 3.17205,-2.52925 0,-1.3834 -0.81048,-1.98428 -0.7965,-0.61484 -2.52925,-0.61484 h -2.93449 z"
             style="font-style:normal;font-variant:normal;font-weight:bold;font-stretch:normal;font-family:Roboto;-inkscape-font-specification:'Roboto Bold';fill:#4a4a4f;fill-opacity:1;stroke-width:0.71545732"
             id="path957" />
          <path
             d="m 326.90619,155.86315 q 0,-2.24978 0.86637,-4.01048 0.86637,-1.76069 2.48733,-2.72488 1.63493,-0.96419 3.7869,-0.96419 3.06025,0 4.98863,1.87248 1.94236,1.87249 2.16594,5.08646 l 0.0279,1.03406 q 0,3.47947 -1.94236,5.58951 -1.94235,2.09606 -5.21222,2.09606 -3.26986,0 -5.22619,-2.09606 -1.94235,-2.09607 -1.94235,-5.7013 z m 4.03842,0.29345 q 0,2.15196 0.81048,3.29781 0.81048,1.13187 2.31964,1.13187 1.46725,0 2.2917,-1.1179 0.82446,-1.13187 0.82446,-3.60523 0,-2.11004 -0.82446,-3.26987 -0.82445,-1.15982 -2.31964,-1.15982 -1.48122,0 -2.2917,1.15982 -0.81048,1.14585 -0.81048,3.56332 z"
             style="font-style:normal;font-variant:normal;font-weight:bold;font-stretch:normal;font-family:Roboto;-inkscape-font-specification:'Roboto Bold';fill:#4a4a4f;fill-opacity:1;stroke-width:0.71545732"
             id="path959" />
          <path
             d="m 348.00659,163.5627 h -4.0524 v -21.46372 h 4.0524 z"
             style="font-style:normal;font-variant:normal;font-weight:bold;font-stretch:normal;font-family:Roboto;-inkscape-font-specification:'Roboto Bold';fill:#4a4a4f;fill-opacity:1;stroke-width:0.71545732"
             id="path961" />
          <path
             d="m 350.71751,155.8911 q 0,-3.53537 1.57904,-5.63144 1.59301,-2.09606 4.34584,-2.09606 2.20786,0 3.64716,1.6489 v -7.71352 h 4.05239 v 21.46372 h -3.64715 l -0.19564,-1.60699 q -1.50916,1.88646 -3.8847,1.88646 -2.669,0 -4.28995,-2.09606 -1.60699,-2.11004 -1.60699,-5.85501 z m 4.03842,0.29344 q 0,2.12402 0.74061,3.25589 0.74061,1.13188 2.15196,1.13188 1.87249,0 2.64105,-1.57904 v -5.9668 q -0.75459,-1.57904 -2.6131,-1.57904 -2.92052,0 -2.92052,4.73711 z"
             style="font-style:normal;font-variant:normal;font-weight:bold;font-stretch:normal;font-family:Roboto;-inkscape-font-specification:'Roboto Bold';fill:#4a4a4f;fill-opacity:1;stroke-width:0.71545732"
             id="path963" />
        </g>
      </g>
    </g>
  </g>
</svg>
