<?xml version="1.0" encoding="UTF-8" standalone="no"?>
<svg
   xmlns:dc="http://purl.org/dc/elements/1.1/"
   xmlns:cc="http://creativecommons.org/ns#"
   xmlns:rdf="http://www.w3.org/1999/02/22-rdf-syntax-ns#"
   xmlns:svg="http://www.w3.org/2000/svg"
   xmlns="http://www.w3.org/2000/svg"
   id="svg6"
   version="1.1"
   viewBox="0 0 360 240"
   height="240"
   width="360">
  <metadata
     id="metadata12">
    <rdf:RDF>
      <cc:Work
         rdf:about="">
        <dc:format>image/svg+xml</dc:format>
        <dc:type
           rdf:resource="http://purl.org/dc/dcmitype/StillImage" />
        <dc:title></dc:title>
      </cc:Work>
    </rdf:RDF>
  </metadata>
  <defs
     id="defs10" />
  <g
     id="g4"
     fill-rule="evenodd"
     fill="none">
    <g
       transform="translate(-171.11081,0.32448543)"
       id="g852">
      <g
         id="text824"
         style="font-style:normal;font-weight:normal;font-size:28.61829376px;line-height:1.25;font-family:sans-serif;letter-spacing:0px;word-spacing:0px;fill:#4a4a4f;fill-opacity:1;stroke:none;stroke-width:0.71545732"
         aria-label="Inter UI Regular">
        <path
           id="path854"
           style="font-style:normal;font-variant:normal;font-weight:normal;font-stretch:normal;font-family:Inter;-inkscape-font-specification:Inter;fill:#4a4a4f;fill-opacity:1;stroke-width:0.71545732"
           d="M 212.59816,75.483448 V 96.296753 H 210.0778 V 75.483448 Z" />
        <path
           id="path856"
           style="font-style:normal;font-variant:normal;font-weight:normal;font-stretch:normal;font-family:Inter;-inkscape-font-specification:Inter;fill:#4a4a4f;fill-opacity:1;stroke-width:0.71545732"
           d="m 219.69683,86.906375 v 9.390378 h -2.3984 V 80.686775 h 2.3171 v 2.439059 h 0.20326 q 0.54879,-1.189042 1.66669,-1.910597 1.1179,-0.731717 2.88622,-0.731717 2.36792,0 3.82119,1.453272 1.46344,1.453273 1.46344,4.44112 v 9.918841 h -2.39841 v -9.756237 q 0,-1.839457 -0.9553,-2.865894 -0.9553,-1.0366 -2.62199,-1.0366 -1.7175,0 -2.85573,1.117902 -1.12807,1.107739 -1.12807,3.150451 z" />
        <path
           id="path858"
           style="font-style:normal;font-variant:normal;font-weight:normal;font-stretch:normal;font-family:Inter;-inkscape-font-specification:Inter;fill:#4a4a4f;fill-opacity:1;stroke-width:0.71545732"
           d="m 240.85567,80.686775 v 2.032549 h -3.33338 v 9.105821 q 0,1.016274 0.29472,1.524411 0.30488,0.497975 0.77237,0.670742 0.47765,0.162604 1.00611,0.162604 0.39635,0 0.65042,-0.04065 0.25407,-0.05081 0.40651,-0.0813 l 0.48781,2.154502 q -0.24391,0.09146 -0.6809,0.182929 -0.437,0.101628 -1.10774,0.101628 -1.01628,0 -1.9919,-0.436998 -0.96546,-0.436998 -1.60572,-1.33132 -0.63009,-0.894322 -0.63009,-2.25613 v -9.756236 h -2.35775 v -2.032549 h 2.35775 v -3.739891 h 2.39841 v 3.739891 z" />
        <path
           id="path860"
           style="font-style:normal;font-variant:normal;font-weight:normal;font-stretch:normal;font-family:Inter;-inkscape-font-specification:Inter;fill:#4a4a4f;fill-opacity:1;stroke-width:0.71545732"
           d="m 250.84057,96.621961 q -2.25613,0 -3.89233,-0.995949 -1.62604,-1.006112 -2.5102,-2.804918 -0.874,-1.808969 -0.874,-4.207377 0,-2.398408 0.874,-4.227703 0.88416,-1.839457 2.45939,-2.865894 1.58538,-1.0366 3.69923,-1.0366 1.21953,0 2.40858,0.406509 1.18904,0.40651 2.16466,1.321157 0.97562,0.904485 1.5549,2.398409 0.57928,1.493923 0.57928,3.678914 v 1.016274 h -11.33146 q 0.0813,2.500036 1.41262,3.831356 1.34148,1.33132 3.45533,1.33132 1.41262,0 2.4289,-0.609765 1.01627,-0.609765 1.4736,-1.829295 l 2.3171,0.650416 q -0.54879,1.768318 -2.19515,2.855732 -1.64637,1.087414 -4.02445,1.087414 z m -4.86795,-9.390378 h 8.8924 q 0,-1.981735 -1.15855,-3.282567 -1.15856,-1.310994 -3.10981,-1.310994 -1.37197,0 -2.37808,0.640253 -1.00611,0.640253 -1.58539,1.697178 -0.57927,1.046763 -0.66057,2.25613 z" />
        <path
           id="path862"
           style="font-style:normal;font-variant:normal;font-weight:normal;font-stretch:normal;font-family:Inter;-inkscape-font-specification:Inter;fill:#4a4a4f;fill-opacity:1;stroke-width:0.71545732"
           d="M 260.9525,96.296753 V 80.686775 h 2.31711 v 2.357757 h 0.1626 q 0.41668,-1.158553 1.53458,-1.880108 1.1179,-0.721555 2.53052,-0.721555 0.65042,0 1.13823,0.152441 0.48781,0.152441 0.85367,0.416672 l -0.81302,2.03255 q -0.25407,-0.132116 -0.5996,-0.203255 -0.33537,-0.0813 -0.78253,-0.0813 -1.70734,0 -2.82525,1.046763 -1.1179,1.0366 -1.1179,2.611825 v 9.87819 z" />
        <path
           id="path864"
           style="font-style:normal;font-variant:normal;font-weight:normal;font-stretch:normal;font-family:Inter;-inkscape-font-specification:Inter;fill:#4a4a4f;fill-opacity:1;stroke-width:0.71545732"
           d="m 293.94078,75.483448 h 2.52036 v 13.780684 q 0,2.337432 -1.10774,3.99396 -1.10774,1.656527 -2.94719,2.530524 -1.83946,0.873996 -4.03461,0.873996 -2.19516,0 -4.03461,-0.873996 -1.83946,-0.873997 -2.9472,-2.530524 -1.10774,-1.656528 -1.10774,-3.99396 V 75.483448 h 2.52036 v 13.780684 q 0,1.62604 0.77237,2.754105 0.77237,1.117902 2.04271,1.707341 1.27034,0.579277 2.75411,0.579277 1.48376,0 2.7541,-0.579277 1.27034,-0.589439 2.04271,-1.707341 0.77237,-1.128065 0.77237,-2.754105 z" />
        <path
           id="path866"
           style="font-style:normal;font-variant:normal;font-weight:normal;font-stretch:normal;font-family:Inter;-inkscape-font-specification:Inter;fill:#4a4a4f;fill-opacity:1;stroke-width:0.71545732"
           d="m 304.04255,75.483448 v 20.813305 h -2.52037 V 75.483448 Z" />
        <path
           id="path868"
           style="font-style:normal;font-variant:normal;font-weight:normal;font-stretch:normal;font-family:Inter;-inkscape-font-specification:Inter;fill:#4a4a4f;fill-opacity:1;stroke-width:0.71545732"
           d="M 317.11692,96.296753 V 75.483448 h 7.03262 q 2.43906,0 4.00412,0.833346 1.56506,0.823182 2.31711,2.266292 0.75204,1.44311 0.75204,3.282567 0,2.0732 -0.9553,3.617938 -0.94513,1.534574 -2.93703,2.215479 l 4.70535,8.597683 h -2.92687 l -4.39031,-8.14036 q -0.25407,0.01016 -0.52846,0.01016 h -4.55291 v 8.130197 z m 2.52036,-10.406652 h 4.47161 q 2.50003,0 3.56712,-1.077251 1.06709,-1.077252 1.06709,-2.947197 0,-1.880108 -1.07725,-3.008173 -1.06709,-1.138227 -3.59761,-1.138227 h -4.43096 z" />
        <path
           id="path870"
           style="font-style:normal;font-variant:normal;font-weight:normal;font-stretch:normal;font-family:Inter;-inkscape-font-specification:Inter;fill:#4a4a4f;fill-opacity:1;stroke-width:0.71545732"
           d="m 341.44654,96.621961 q -2.25613,0 -3.89234,-0.995949 -1.62604,-1.006112 -2.51019,-2.804918 -0.874,-1.808969 -0.874,-4.207377 0,-2.398408 0.874,-4.227703 0.88415,-1.839457 2.45938,-2.865894 1.58539,-1.0366 3.69924,-1.0366 1.21953,0 2.40857,0.406509 1.18904,0.40651 2.16467,1.321157 0.97562,0.904485 1.5549,2.398409 0.57927,1.493923 0.57927,3.678914 v 1.016274 h -11.33146 q 0.0813,2.500036 1.41262,3.831356 1.34148,1.33132 3.45534,1.33132 1.41262,0 2.42889,-0.609765 1.01628,-0.609765 1.4736,-1.829295 l 2.31711,0.650416 q -0.54879,1.768318 -2.19516,2.855732 -1.64636,1.087414 -4.02444,1.087414 z m -4.86796,-9.390378 h 8.8924 q 0,-1.981735 -1.15855,-3.282567 -1.15855,-1.310994 -3.1098,-1.310994 -1.37197,0 -2.37808,0.640253 -1.00612,0.640253 -1.58539,1.697178 -0.57928,1.046763 -0.66058,2.25613 z" />
        <path
           id="path872"
           style="font-style:normal;font-variant:normal;font-weight:normal;font-stretch:normal;font-family:Inter;-inkscape-font-specification:Inter;fill:#4a4a4f;fill-opacity:1;stroke-width:0.71545732"
           d="m 357.85937,102.4757 q -2.61183,0 -4.13624,-0.9553 -1.51425,-0.94513 -2.24597,-2.174823 l 1.9106,-1.341483 q 0.32521,0.426836 0.82318,0.975624 0.49798,0.558951 1.36181,0.965461 0.874,0.416671 2.28662,0.416671 1.89027,0 3.11996,-0.914646 1.22969,-0.914647 1.22969,-2.865894 v -3.170777 h -0.20325 q -0.26423,0.426835 -0.75204,1.056926 -0.47765,0.619927 -1.38214,1.107739 -0.89432,0.477649 -2.41873,0.477649 -1.89027,0 -3.39436,-0.894322 -1.49392,-0.894321 -2.36792,-2.601663 -0.86383,-1.707341 -0.86383,-4.1464 0,-2.398408 0.84351,-4.176889 0.8435,-1.788643 2.34759,-2.764267 1.50409,-0.985786 3.47566,-0.985786 1.52441,0 2.41873,0.508137 0.90449,0.497974 1.38214,1.138227 0.48781,0.630091 0.75204,1.036601 h 0.24391 v -2.47971 h 2.3171 v 16.057139 q 0,2.012224 -0.91465,3.272406 -0.90448,1.27034 -2.43905,1.85978 -1.52442,0.5996 -3.39436,0.5996 z m -0.0813,-8.577355 q 2.16466,0 3.31305,-1.463436 1.15855,-1.473598 1.15855,-4.065098 0,-2.530524 -1.13822,-4.126075 -1.13823,-1.605714 -3.33338,-1.605714 -1.52442,0 -2.54069,0.772369 -1.00611,0.772368 -1.51425,2.0732 -0.49797,1.300831 -0.49797,2.88622 0,2.439059 1.14839,3.983796 1.14839,1.544738 3.40452,1.544738 z" />
        <path
           id="path874"
           style="font-style:normal;font-variant:normal;font-weight:normal;font-stretch:normal;font-family:Inter;-inkscape-font-specification:Inter;fill:#4a4a4f;fill-opacity:1;stroke-width:0.71545732"
           d="m 378.83527,89.914548 v -9.227773 h 2.39841 v 15.609978 h -2.39841 v -2.642314 h -0.1626 q -0.54879,1.189041 -1.70734,2.022386 -1.15855,0.823183 -2.92687,0.823183 -2.19516,0 -3.61794,-1.453273 -1.42278,-1.453273 -1.42278,-4.44112 v -9.91884 h 2.3984 v 9.756236 q 0,1.707341 0.9553,2.723616 0.96546,1.016275 2.45939,1.016275 0.89432,0 1.81913,-0.457324 0.93497,-0.457323 1.56506,-1.402459 0.64025,-0.945135 0.64025,-2.408571 z" />
        <path
           id="path876"
           style="font-style:normal;font-variant:normal;font-weight:normal;font-stretch:normal;font-family:Inter;-inkscape-font-specification:Inter;fill:#4a4a4f;fill-opacity:1;stroke-width:0.71545732"
           d="m 387.99699,75.483448 v 20.813305 h -2.39841 V 75.483448 Z" />
        <path
           id="path878"
           style="font-style:normal;font-variant:normal;font-weight:normal;font-stretch:normal;font-family:Inter;-inkscape-font-specification:Inter;fill:#4a4a4f;fill-opacity:1;stroke-width:0.71545732"
           d="m 396.95546,96.662612 q -1.48376,0 -2.69313,-0.558951 -1.20936,-0.569114 -1.92075,-1.636202 -0.7114,-1.077252 -0.7114,-2.601663 0,-1.341483 0.52847,-2.174828 0.52846,-0.843508 1.41262,-1.321157 0.88416,-0.477649 1.95125,-0.711392 1.07725,-0.243906 2.16466,-0.386185 1.42278,-0.182929 2.30694,-0.274394 0.89433,-0.101627 1.30084,-0.335371 0.41667,-0.233743 0.41667,-0.813019 v -0.0813 q 0,-1.504087 -0.82318,-2.337432 -0.81302,-0.833345 -2.46955,-0.833345 -1.71751,0 -2.69313,0.752043 -0.97562,0.752043 -1.37197,1.605714 l -2.27646,-0.81302 q 0.60977,-1.422784 1.62604,-2.215478 1.02644,-0.802857 2.23581,-1.117903 1.21953,-0.325207 2.39841,-0.325207 0.75204,0 1.72766,0.182929 0.98579,0.172767 1.90044,0.721555 0.92481,0.548788 1.53457,1.656528 0.60977,1.107739 0.60977,2.967522 v 10.284699 h -2.39841 v -2.113851 h -0.12196 q -0.2439,0.508137 -0.81301,1.087414 -0.56912,0.579276 -1.51425,0.985786 -0.94514,0.40651 -2.30695,0.40651 z m 0.36586,-2.154502 q 1.42279,0 2.39841,-0.558951 0.98579,-0.558952 1.48376,-1.44311 0.50814,-0.884159 0.50814,-1.859783 v -2.195153 q -0.15244,0.182929 -0.67074,0.33537 -0.50814,0.142279 -1.17888,0.254069 -0.66058,0.101627 -1.29067,0.182929 -0.61993,0.07114 -1.00611,0.121953 -0.93498,0.121953 -1.74799,0.396348 -0.80286,0.264231 -1.30084,0.802856 -0.48781,0.528463 -0.48781,1.44311 0,1.250018 0.92481,1.890271 0.93497,0.630091 2.36792,0.630091 z" />
        <path
           id="path880"
           style="font-style:normal;font-variant:normal;font-weight:normal;font-stretch:normal;font-family:Inter;-inkscape-font-specification:Inter;fill:#4a4a4f;fill-opacity:1;stroke-width:0.71545732"
           d="M 408.51557,96.296753 V 80.686775 h 2.31711 v 2.357757 h 0.1626 q 0.41668,-1.158553 1.53458,-1.880108 1.1179,-0.721555 2.53052,-0.721555 0.65042,0 1.13823,0.152441 0.48781,0.152441 0.85367,0.416672 l -0.81302,2.03255 q -0.25407,-0.132116 -0.5996,-0.203255 -0.33537,-0.0813 -0.78253,-0.0813 -1.70735,0 -2.82525,1.046763 -1.1179,1.0366 -1.1179,2.611825 v 9.87819 z" />
      </g>
      <g
         id="text828"
         style="font-style:normal;font-weight:normal;font-size:28.61829376px;line-height:1.25;font-family:sans-serif;letter-spacing:0px;word-spacing:0px;fill:#4a4a4f;fill-opacity:1;stroke:none;stroke-width:0.71545732"
         aria-label="Inter UI SemiBold">
        <path
           id="path883"
           style="font-style:normal;font-variant:normal;font-weight:600;font-stretch:normal;font-family:Inter;-inkscape-font-specification:'Inter Semi-Bold';fill:#4a4a4f;fill-opacity:1;stroke-width:0.71545732"
           d="m 213.84819,111.08292 v 20.8133 h -3.77038 v -20.8133 z" />
        <path
           id="path885"
           style="font-style:normal;font-variant:normal;font-weight:600;font-stretch:normal;font-family:Inter;-inkscape-font-specification:'Inter Semi-Bold';fill:#4a4a4f;fill-opacity:1;stroke-width:0.71545732"
           d="m 221.47533,122.74975 v 9.14647 h -3.67892 v -15.60997 h 3.51631 v 2.65247 h 0.18293 q 0.53863,-1.30083 1.71751,-2.0732 1.18904,-0.78253 2.93703,-0.78253 2.41873,0 3.88217,1.53458 1.4736,1.53457 1.46344,4.33949 v 9.93916 h -3.67892 v -9.37005 q 0,-1.56506 -0.81302,-2.44922 -0.80286,-0.88416 -2.22564,-0.88416 -1.45327,0 -2.37808,0.93497 -0.92481,0.92481 -0.92481,2.62199 z" />
        <path
           id="path887"
           style="font-style:normal;font-variant:normal;font-weight:600;font-stretch:normal;font-family:Inter;-inkscape-font-specification:'Inter Semi-Bold';fill:#4a4a4f;fill-opacity:1;stroke-width:0.71545732"
           d="m 243.03051,116.28625 v 2.84557 h -3.07931 v 8.06922 q 0,1.10774 0.48781,1.46343 0.48781,0.34554 1.17888,0.34554 0.34553,0 0.63009,-0.0508 0.29472,-0.0508 0.44716,-0.0915 l 0.61993,2.87605 q -0.29472,0.10163 -0.84351,0.22358 -0.53862,0.12196 -1.32116,0.14228 -2.0732,0.061 -3.48582,-1.01627 -1.40246,-1.07725 -1.39229,-3.28257 v -8.67898 h -2.21548 v -2.84557 h 2.21548 v -3.73989 h 3.67891 v 3.73989 z" />
        <path
           id="path889"
           style="font-style:normal;font-variant:normal;font-weight:600;font-stretch:normal;font-family:Inter;-inkscape-font-specification:'Inter Semi-Bold';fill:#4a4a4f;fill-opacity:1;stroke-width:0.71545732"
           d="m 252.87821,132.20111 q -2.34759,0 -4.05493,-0.98579 -1.69718,-0.98579 -2.61183,-2.78459 -0.91465,-1.79881 -0.91465,-4.24803 0,-2.40857 0.91465,-4.2277 0.91465,-1.8293 2.57118,-2.84557 1.66669,-1.02644 3.90249,-1.02644 1.92076,0 3.5468,0.83335 1.62604,0.82318 2.60166,2.57117 0.98579,1.73783 0.98579,4.48177 v 1.12807 h -10.87414 q 0.0305,2.00206 1.10774,3.11996 1.08741,1.1179 2.87606,1.1179 1.18904,0 2.05287,-0.50813 0.874,-0.5183 1.25002,-1.50409 l 3.43501,0.38618 q -0.48781,2.03255 -2.27646,3.26225 -1.77848,1.22969 -4.51226,1.22969 z m -3.92282,-9.58347 h 7.33751 q -0.0102,-1.59555 -0.99595,-2.63215 -0.97563,-1.0366 -2.56102,-1.0366 -1.64636,0 -2.6728,1.08741 -1.02644,1.08741 -1.10774,2.58134 z" />
        <path
           id="path891"
           style="font-style:normal;font-variant:normal;font-weight:600;font-stretch:normal;font-family:Inter;-inkscape-font-specification:'Inter Semi-Bold';fill:#4a4a4f;fill-opacity:1;stroke-width:0.71545732"
           d="m 262.90376,131.89622 v -15.60997 h 3.56713 v 2.60166 h 0.1626 q 0.42684,-1.36181 1.46344,-2.09353 1.0366,-0.73171 2.38824,-0.73171 0.63009,0 1.15856,0.15244 0.52846,0.15244 0.93497,0.41667 l -1.13823,3.04882 q -0.29472,-0.14227 -0.65042,-0.23374 -0.35569,-0.0915 -0.80285,-0.0915 -1.44311,0 -2.4289,0.94513 -0.97562,0.93497 -0.97562,2.41874 v 9.17695 z" />
        <path
           id="path893"
           style="font-style:normal;font-variant:normal;font-weight:600;font-stretch:normal;font-family:Inter;-inkscape-font-specification:'Inter Semi-Bold';fill:#4a4a4f;fill-opacity:1;stroke-width:0.71545732"
           d="m 295.14507,111.08292 h 3.76022 v 13.76036 q 0,2.35776 -1.10774,4.00412 -1.10774,1.64637 -3.01834,2.5102 -1.91059,0.85367 -4.31916,0.85367 -2.40857,0 -4.31917,-0.85367 -1.9106,-0.86383 -3.01834,-2.5102 -1.10774,-1.64636 -1.10774,-4.00412 v -13.76036 h 3.77038 v 13.66889 q 0,1.28051 0.61993,2.19516 0.63009,0.90448 1.68702,1.39229 1.06708,0.47765 2.36792,0.47765 1.31099,0 2.36792,-0.47765 1.06708,-0.48781 1.68701,-1.39229 0.63009,-0.91465 0.63009,-2.19516 z" />
        <path
           id="path895"
           style="font-style:normal;font-variant:normal;font-weight:600;font-stretch:normal;font-family:Inter;-inkscape-font-specification:'Inter Semi-Bold';fill:#4a4a4f;fill-opacity:1;stroke-width:0.71545732"
           d="m 306.80175,111.08292 v 20.8133 h -3.77038 v -20.8133 z" />
        <path
           id="path897"
           style="font-style:normal;font-variant:normal;font-weight:600;font-stretch:normal;font-family:Inter;-inkscape-font-specification:'Inter Semi-Bold';fill:#4a4a4f;fill-opacity:1;stroke-width:0.71545732"
           d="m 329.32239,116.80455 q -0.14228,-1.33132 -1.18904,-2.0732 -1.04676,-0.74188 -2.73378,-0.74188 -1.76831,0 -2.76426,0.77236 -0.99595,0.76221 -1.00612,1.94109 -0.0102,0.86383 0.5183,1.43295 0.52847,0.55895 1.34149,0.89432 0.82318,0.33537 1.67685,0.53862 l 1.95125,0.48782 q 1.56506,0.36585 2.95736,1.08741 1.40246,0.71139 2.27645,1.9106 0.88416,1.18904 0.88416,2.99801 -0.0102,2.7541 -2.08336,4.46144 -2.0732,1.69718 -5.81309,1.69718 -3.63827,0 -5.80293,-1.67685 -2.16467,-1.68702 -2.27646,-4.78666 h 3.70941 q 0.11179,1.63621 1.34148,2.43906 1.22969,0.80286 2.99801,0.80286 1.84962,0 2.99801,-0.81302 1.14839,-0.82318 1.15855,-2.1545 -0.0102,-1.20937 -1.0366,-1.8293 -1.01627,-0.63009 -2.70329,-1.05692 l -2.36792,-0.60977 q -2.57117,-0.66058 -4.0651,-2.00206 -1.48376,-1.35164 -1.48376,-3.58745 0,-1.83945 0.99595,-3.22159 0.99595,-1.38213 2.72362,-2.14434 1.73783,-0.77237 3.92282,-0.77237 2.21548,0 3.89233,0.77237 1.67685,0.76221 2.62199,2.12402 0.9553,1.35164 0.98578,3.1098 z" />
        <path
           id="path899"
           style="font-style:normal;font-variant:normal;font-weight:600;font-stretch:normal;font-family:Inter;-inkscape-font-specification:'Inter Semi-Bold';fill:#4a4a4f;fill-opacity:1;stroke-width:0.71545732"
           d="m 343.31649,132.20111 q -2.34759,0 -4.05493,-0.98579 -1.69718,-0.98579 -2.61183,-2.78459 -0.91464,-1.79881 -0.91464,-4.24803 0,-2.40857 0.91464,-4.2277 0.91465,-1.8293 2.57118,-2.84557 1.66669,-1.02644 3.90249,-1.02644 1.92076,0 3.5468,0.83335 1.62604,0.82318 2.60166,2.57117 0.98579,1.73783 0.98579,4.48177 v 1.12807 h -10.87414 q 0.0305,2.00206 1.10774,3.11996 1.08742,1.1179 2.87606,1.1179 1.18904,0 2.05287,-0.50813 0.874,-0.5183 1.25002,-1.50409 l 3.43501,0.38618 q -0.48781,2.03255 -2.27646,3.26225 -1.77848,1.22969 -4.51226,1.22969 z m -3.92282,-9.58347 h 7.33751 q -0.0102,-1.59555 -0.99595,-2.63215 -0.97563,-1.0366 -2.56101,-1.0366 -1.64637,0 -2.67281,1.08741 -1.02643,1.08741 -1.10774,2.58134 z" />
        <path
           id="path901"
           style="font-style:normal;font-variant:normal;font-weight:600;font-stretch:normal;font-family:Inter;-inkscape-font-specification:'Inter Semi-Bold';fill:#4a4a4f;fill-opacity:1;stroke-width:0.71545732"
           d="m 353.34204,131.89622 v -15.60997 h 3.51631 v 2.65247 h 0.18293 q 0.48781,-1.33132 1.61587,-2.09352 1.12807,-0.76221 2.69313,-0.76221 1.57523,0 2.6728,0.76221 1.09758,0.7622 1.54474,2.09352 h 0.16261 q 0.5183,-1.30083 1.74799,-2.0732 1.23985,-0.78253 2.93703,-0.78253 2.1545,0 3.51631,1.36181 1.36181,1.36181 1.36181,3.97363 v 10.47779 h -3.68908 v -9.90867 q 0,-1.45328 -0.77237,-2.12402 -0.77236,-0.6809 -1.89027,-0.6809 -1.33132,0 -2.08336,0.83334 -0.74188,0.82319 -0.74188,2.14434 v 9.73591 h -3.60777 v -10.06111 q 0,-1.20937 -0.73172,-1.93093 -0.72156,-0.72155 -1.89027,-0.72155 -1.18904,0 -2.03255,0.89432 -0.83335,0.88416 -0.83335,2.32727 v 9.492 z" />
        <path
           id="path903"
           style="font-style:normal;font-variant:normal;font-weight:600;font-stretch:normal;font-family:Inter;-inkscape-font-specification:'Inter Semi-Bold';fill:#4a4a4f;fill-opacity:1;stroke-width:0.71545732"
           d="m 379.05378,131.89622 v -15.60997 h 3.67892 v 15.60997 z m 1.84962,-17.82545 q -0.88416,0 -1.51425,-0.57928 -0.61992,-0.58944 -0.61992,-1.41262 0,-0.83335 0.61992,-1.41262 0.63009,-0.58944 1.51425,-0.58944 0.874,0 1.49393,0.58944 0.63009,0.57927 0.63009,1.41262 0,0.82318 -0.63009,1.41262 -0.61993,0.57928 -1.49393,0.57928 z" />
        <path
           id="path905"
           style="font-style:normal;font-variant:normal;font-weight:600;font-stretch:normal;font-family:Inter;-inkscape-font-specification:'Inter Semi-Bold';fill:#4a4a4f;fill-opacity:1;stroke-width:0.71545732"
           d="m 386.65044,131.89622 v -20.8133 h 7.96759 q 3.3842,0 5.06105,1.53458 1.68702,1.53457 1.68702,3.86184 0,1.90043 -1.05693,2.98785 -1.05693,1.08741 -2.58134,1.44311 v 0.20325 q 1.10774,0.0508 2.12402,0.67074 1.02643,0.61993 1.67685,1.74799 0.65042,1.11791 0.65042,2.69313 0,1.61588 -0.78254,2.90655 -0.78253,1.2805 -2.35775,2.02238 -1.57523,0.74188 -3.96347,0.74188 z m 3.77038,-3.15045 h 4.05493 q 2.05288,0 2.95736,-0.78253 0.91465,-0.79269 0.91465,-2.03255 0,-1.39229 -1.01627,-2.33743 -1.00612,-0.94513 -2.75411,-0.94513 h -4.15656 z m 0,-8.8111 h 3.72973 q 1.47359,0 2.45938,-0.79269 0.98579,-0.80286 0.98579,-2.17483 0,-1.20937 -0.85367,-1.9919 -0.84351,-0.78253 -2.5102,-0.78253 h -3.81103 z" />
        <path
           id="path907"
           style="font-style:normal;font-variant:normal;font-weight:600;font-stretch:normal;font-family:Inter;-inkscape-font-specification:'Inter Semi-Bold';fill:#4a4a4f;fill-opacity:1;stroke-width:0.71545732"
           d="m 412.13353,132.20111 q -2.28662,0 -3.96347,-1.00611 -1.67685,-1.00612 -2.60166,-2.81509 -0.91465,-1.81913 -0.91465,-4.2277 0,-2.41873 0.91465,-4.2277 0.92481,-1.81913 2.60166,-2.82524 1.67685,-1.01628 3.96347,-1.01628 2.28662,0 3.96347,1.01628 1.68702,1.00611 2.60166,2.82524 0.91465,1.80897 0.91465,4.2277 0,2.40857 -0.91465,4.2277 -0.91464,1.80897 -2.60166,2.81509 -1.67685,1.00611 -3.96347,1.00611 z m 0.0203,-2.9472 q 1.25001,0 2.0732,-0.6809 0.83334,-0.68091 1.23985,-1.83946 0.41667,-1.16872 0.41667,-2.5915 0,-1.43295 -0.41667,-2.5915 -0.40651,-1.16872 -1.23985,-1.85978 -0.82319,-0.69107 -2.0732,-0.69107 -1.26018,0 -2.10369,0.69107 -0.83335,0.69106 -1.25002,1.85978 -0.41667,1.15855 -0.41667,2.5915 0,1.42278 0.41667,2.5915 0.41667,1.15855 1.25002,1.83946 0.84351,0.6809 2.10369,0.6809 z" />
        <path
           id="path909"
           style="font-style:normal;font-variant:normal;font-weight:600;font-stretch:normal;font-family:Inter;-inkscape-font-specification:'Inter Semi-Bold';fill:#4a4a4f;fill-opacity:1;stroke-width:0.71545732"
           d="m 426.38678,111.08292 v 20.8133 h -3.67891 v -20.8133 z" />
        <path
           id="path911"
           style="font-style:normal;font-variant:normal;font-weight:600;font-stretch:normal;font-family:Inter;-inkscape-font-specification:'Inter Semi-Bold';fill:#4a4a4f;fill-opacity:1;stroke-width:0.71545732"
           d="m 435.93468,132.17062 q -1.83945,0 -3.29273,-0.94514 -1.45327,-0.94513 -2.29678,-2.74394 -0.8435,-1.7988 -0.8435,-4.36998 0,-2.60166 0.85367,-4.39031 0.86383,-1.78864 2.32727,-2.71345 1.46343,-0.92481 3.26224,-0.92481 1.38213,0 2.25613,0.46749 0.88416,0.45732 1.40246,1.10774 0.52846,0.64025 0.80285,1.20936 h 0.15244 v -7.78466 h 3.68908 v 20.8133 h -3.61794 v -2.45938 h -0.22358 q -0.28455,0.56911 -0.82318,1.20937 -0.53863,0.63009 -1.42278,1.07725 -0.88416,0.44716 -2.22565,0.44716 z m 1.02644,-3.01834 q 1.75816,0 2.71345,-1.39229 0.9553,-1.40246 0.9553,-3.66875 0,-2.27646 -0.94513,-3.6281 -0.94514,-1.36181 -2.72362,-1.36181 -1.83946,0 -2.77443,1.40246 -0.93497,1.40246 -0.93497,3.58745 0,2.19515 0.94513,3.6281 0.94514,1.43294 2.76427,1.43294 z" />
      </g>
      <g
         id="text832"
         style="font-style:normal;font-weight:normal;font-size:28.61829376px;line-height:1.25;font-family:sans-serif;letter-spacing:0px;word-spacing:0px;fill:#4a4a4f;fill-opacity:1;stroke:none;stroke-width:0.71545732"
         aria-label="Inter UI Bold">
        <path
           id="path914"
           style="font-style:normal;font-variant:normal;font-weight:bold;font-stretch:normal;font-family:Inter;-inkscape-font-specification:'Inter Bold';fill:#4a4a4f;fill-opacity:1;stroke-width:0.71545732"
           d="M 214.47827,142.74939 V 163.5627 H 210.0778 V 142.74939 Z" />
        <path
           id="path916"
           style="font-style:normal;font-variant:normal;font-weight:bold;font-stretch:normal;font-family:Inter;-inkscape-font-specification:'Inter Bold';fill:#4a4a4f;fill-opacity:1;stroke-width:0.71545732"
           d="m 222.37472,154.53818 v 9.02452 h -4.32933 v -15.60998 h 4.12608 v 2.7541 h 0.18293 q 0.52846,-1.3618 1.73783,-2.1545 1.21952,-0.80285 2.95735,-0.80285 2.43906,0 3.91266,1.57522 1.4736,1.56506 1.4736,4.29884 v 9.93917 h -4.32933 v -9.1668 q 0.0102,-1.43295 -0.73172,-2.2358 -0.74188,-0.81302 -2.04271,-0.81302 -1.31099,0 -2.13418,0.84351 -0.81302,0.83334 -0.82318,2.34759 z" />
        <path
           id="path918"
           style="font-style:normal;font-variant:normal;font-weight:bold;font-stretch:normal;font-family:Inter;-inkscape-font-specification:'Inter Bold';fill:#4a4a4f;fill-opacity:1;stroke-width:0.71545732"
           d="m 244.123,147.95272 v 3.25208 h -2.93704 v 7.56108 q 0,0.89432 0.40651,1.20937 0.40651,0.31504 1.05693,0.31504 0.30488,0 0.60976,-0.0508 0.30489,-0.061 0.46749,-0.0915 l 0.6809,3.22159 q -0.3252,0.10162 -0.91464,0.23374 -0.58944,0.14228 -1.43295,0.17277 -2.35776,0.10162 -3.7907,-1.01628 -1.42279,-1.12806 -1.41263,-3.42484 v -8.1302 h -2.13417 v -3.25208 h 2.13417 v -3.73989 h 4.32933 v 3.73989 z" />
        <path
           id="path920"
           style="font-style:normal;font-variant:normal;font-weight:bold;font-stretch:normal;font-family:Inter;-inkscape-font-specification:'Inter Bold';fill:#4a4a4f;fill-opacity:1;stroke-width:0.71545732"
           d="m 253.8894,163.86758 q -2.39841,0 -4.13624,-0.97562 -1.73783,-0.98579 -2.6728,-2.7846 -0.93498,-1.80896 -0.93498,-4.27851 0,-2.40857 0.93498,-4.2277 0.93497,-1.81914 2.63215,-2.83541 1.70734,-1.01627 4.00412,-1.01627 2.06304,0 3.71956,0.87399 1.66669,0.874 2.64232,2.64232 0.97562,1.75815 0.97562,4.41063 v 1.18904 H 250.4239 v 0.0102 q 0,1.74799 0.9553,2.75411 0.95529,1.00611 2.58133,1.00611 1.08742,0 1.88011,-0.45733 0.7927,-0.45732 1.1179,-1.35164 l 4.00413,0.26423 q -0.45733,2.17483 -2.31711,3.47566 -1.85978,1.30083 -4.75616,1.30083 z m -3.4655,-9.6851 h 6.55497 q -0.0102,-1.39229 -0.89432,-2.29678 -0.88416,-0.90448 -2.29678,-0.90448 -1.44311,0 -2.36792,0.93497 -0.92481,0.93497 -0.99595,2.26629 z" />
        <path
           id="path922"
           style="font-style:normal;font-variant:normal;font-weight:bold;font-stretch:normal;font-family:Inter;-inkscape-font-specification:'Inter Bold';fill:#4a4a4f;fill-opacity:1;stroke-width:0.71545732"
           d="m 263.87938,163.5627 v -15.60998 h 4.19721 v 2.72362 h 0.16261 q 0.42683,-1.45328 1.42278,-2.19516 1.00611,-0.75204 2.32727,-0.75204 0.63009,0 1.16871,0.15244 0.53863,0.15244 0.96547,0.41667 l -1.30084,3.57729 q -0.30488,-0.15244 -0.67074,-0.25407 -0.35569,-0.11179 -0.80285,-0.11179 -1.311,0 -2.22565,0.89432 -0.90448,0.89432 -0.91464,2.32727 v 8.83143 z" />
        <path
           id="path924"
           style="font-style:normal;font-variant:normal;font-weight:bold;font-stretch:normal;font-family:Inter;-inkscape-font-specification:'Inter Bold';fill:#4a4a4f;fill-opacity:1;stroke-width:0.71545732"
           d="m 295.73959,142.74939 h 4.36998 v 13.76036 q 0,2.35776 -1.10774,4.00412 -1.10774,1.63621 -3.05899,2.48988 -1.94108,0.85367 -4.46144,0.85367 -2.52036,0 -4.47161,-0.85367 -1.95125,-0.85367 -3.05899,-2.48988 -1.09757,-1.64636 -1.09757,-4.00412 v -13.76036 h 4.40047 v 13.60792 q 0,1.66669 1.1992,2.62199 1.20937,0.9553 3.0285,0.9553 1.84962,0 3.04882,-0.9553 1.20937,-0.9553 1.20937,-2.62199 z" />
        <path
           id="path926"
           style="font-style:normal;font-variant:normal;font-weight:bold;font-stretch:normal;font-family:Inter;-inkscape-font-specification:'Inter Bold';fill:#4a4a4f;fill-opacity:1;stroke-width:0.71545732"
           d="M 308.10257,142.74939 V 163.5627 H 303.7021 V 142.74939 Z" />
        <path
           id="path928"
           style="font-style:normal;font-variant:normal;font-weight:bold;font-stretch:normal;font-family:Inter;-inkscape-font-specification:'Inter Bold';fill:#4a4a4f;fill-opacity:1;stroke-width:0.71545732"
           d="m 318.40251,163.5627 v -20.81331 h 8.33345 q 3.44518,0 5.17284,1.50409 1.73783,1.49392 1.73783,3.83136 0,1.83945 -1.06709,2.97768 -1.06708,1.12807 -2.69312,1.49392 v 0.20326 q 1.18904,0.0508 2.22564,0.67074 1.04676,0.61993 1.69718,1.72767 0.65041,1.10774 0.65041,2.65247 0,1.65653 -0.82318,2.95736 -0.81302,1.30083 -2.40857,2.05288 -1.59555,0.74188 -3.93298,0.74188 z m 4.40047,-3.59761 h 3.58745 q 1.84962,0 2.68297,-0.7114 0.8435,-0.71139 0.8435,-1.8801 0,-1.29067 -0.92481,-2.11386 -0.91464,-0.82318 -2.50003,-0.82318 h -3.68908 z m 0,-8.50622 h 3.26224 q 1.35165,0 2.24597,-0.70123 0.89432,-0.71139 0.89432,-1.94109 0,-1.12806 -0.80285,-1.81913 -0.7927,-0.69106 -2.25613,-0.69106 h -3.34355 z" />
        <path
           id="path930"
           style="font-style:normal;font-variant:normal;font-weight:bold;font-stretch:normal;font-family:Inter;-inkscape-font-specification:'Inter Bold';fill:#4a4a4f;fill-opacity:1;stroke-width:0.71545732"
           d="m 344.2667,163.86758 q -2.36792,0 -4.09558,-1.00611 -1.71751,-1.01628 -2.65248,-2.82524 -0.93497,-1.81914 -0.93497,-4.21754 0,-2.41874 0.93497,-4.22771 0.93497,-1.81913 2.65248,-2.82524 1.72766,-1.01627 4.09558,-1.01627 2.36792,0 4.08543,1.01627 1.72767,1.00611 2.66264,2.82524 0.93497,1.80897 0.93497,4.22771 0,2.3984 -0.93497,4.21754 -0.93497,1.80896 -2.66264,2.82524 -1.71751,1.00611 -4.08543,1.00611 z m 0.0203,-3.35371 q 1.60571,0 2.4289,-1.34148 0.83334,-1.34148 0.83334,-3.38419 0,-2.04271 -0.83334,-3.3842 -0.82319,-1.35164 -2.4289,-1.35164 -1.6362,0 -2.46955,1.35164 -0.83334,1.34149 -0.83334,3.3842 0,2.04271 0.83334,3.38419 0.83335,1.34148 2.46955,1.34148 z" />
        <path
           id="path932"
           style="font-style:normal;font-variant:normal;font-weight:bold;font-stretch:normal;font-family:Inter;-inkscape-font-specification:'Inter Bold';fill:#4a4a4f;fill-opacity:1;stroke-width:0.71545732"
           d="m 359.09415,142.74939 v 20.81331 h -4.32933 v -20.81331 z" />
        <path
           id="path934"
           style="font-style:normal;font-variant:normal;font-weight:bold;font-stretch:normal;font-family:Inter;-inkscape-font-specification:'Inter Bold';fill:#4a4a4f;fill-opacity:1;stroke-width:0.71545732"
           d="m 368.28636,163.81677 q -1.77848,0 -3.21143,-0.91465 -1.43294,-0.92481 -2.27645,-2.71345 -0.84351,-1.79881 -0.84351,-4.41064 0,-2.68296 0.86383,-4.46144 0.874,-1.78864 2.30695,-2.6728 1.44311,-0.89432 3.15045,-0.89432 1.31099,0 2.18499,0.44716 0.88416,0.43699 1.42278,1.08741 0.54879,0.65042 0.83335,1.29067 h 0.13211 v -7.82532 h 4.31917 v 20.81331 h -4.26835 v -2.50004 h -0.18293 q -0.29472,0.65042 -0.85367,1.29067 -0.55895,0.63009 -1.44311,1.04676 -0.874,0.41668 -2.13418,0.41668 z m 1.37197,-3.44517 q 1.56506,0 2.41874,-1.26018 0.86383,-1.27035 0.86383,-3.35371 0,-2.09353 -0.85367,-3.32322 -0.85367,-1.23985 -2.4289,-1.23985 -1.60571,0 -2.44922,1.27034 -0.83335,1.26018 -0.83335,3.29273 0,2.04271 0.84351,3.33338 0.84351,1.28051 2.43906,1.28051 z" />
      </g>
    </g>
  </g>
</svg>
